<svg width="372" height="489" viewBox="0 0 372 489" fill="none" xmlns="http://www.w3.org/2000/svg">
<mask id="mask0" style="mask-type:alpha" maskUnits="userSpaceOnUse" x="0" y="0" width="372" height="489">
<rect width="372" height="489" fill="#C4C4C4"/>
</mask>
<g mask="url(#mask0)">
<path d="M409.724 106.653H278.654V30.8906C278.654 28.4272 279.632 26.0648 281.375 24.3229C283.117 22.5811 285.481 21.6025 287.945 21.6025H400.432C402.896 21.6025 405.26 22.5811 407.002 24.3229C408.745 26.0648 409.724 28.4272 409.724 30.8906V106.653Z" fill="white" stroke="#3A9EFD" stroke-width="3" stroke-miterlimit="10"/>
<path d="M432.699 124.433C437.713 127.698 436.547 134.09 430.618 134.09H252.062C247.066 134.09 245.356 127.347 250.254 124.258L432.699 124.433Z" fill="#66B0F0" stroke="#3A9EFD" stroke-miterlimit="10"/>
<path d="M430.617 129.64H252.061C248.874 129.64 247.61 125.89 250.254 124.258L278.691 106.653H409.353L432.678 124.433C435.011 126.201 433.651 129.64 430.617 129.64Z" fill="white" stroke="#3A9EFD" stroke-width="2" stroke-miterlimit="10"/>
<path d="M410.016 124.336H272.667C270.218 124.336 269.246 121.441 271.267 120.197L291.015 106.653H393.647L411.588 120.332C413.397 121.693 412.348 124.336 410.016 124.336Z" fill="white" stroke="#3A9EFD" stroke-miterlimit="10"/>
<path d="M366.337 106.653L380.06 124.336" stroke="#3A9EFD" stroke-miterlimit="10"/>
<path d="M356.385 106.653L367.99 124.336" stroke="#3A9EFD" stroke-miterlimit="10"/>
<path d="M348.124 106.653L353.781 124.336" stroke="#3A9EFD" stroke-miterlimit="10"/>
<path d="M299.354 106.653L281.394 124.336" stroke="#3A9EFD" stroke-miterlimit="10"/>
<path d="M308.879 106.653L293.056 124.336" stroke="#3A9EFD" stroke-miterlimit="10"/>
<path d="M317.782 106.653L304.059 124.336" stroke="#3A9EFD" stroke-miterlimit="10"/>
<path d="M327.734 106.653L316.13 124.336" stroke="#3A9EFD" stroke-miterlimit="10"/>
<path d="M335.996 106.653L330.339 124.336" stroke="#3A9EFD" stroke-miterlimit="10"/>
<path d="M341.593 124.55V106.653" stroke="#3A9EFD" stroke-miterlimit="10"/>
<path d="M281.394 113.26H402.337" stroke="#3A9EFD" stroke-miterlimit="10"/>
<path d="M399.829 101.718H289.092C287.69 101.717 286.346 101.159 285.355 100.168C284.364 99.1774 283.806 97.8337 283.805 96.4323V31.4935C283.806 30.092 284.364 28.7483 285.355 27.7573C286.346 26.7663 287.69 26.2091 289.092 26.2078H399.829C401.231 26.2091 402.576 26.7663 403.567 27.7573C404.558 28.7483 405.116 30.092 405.117 31.4935V96.4519C405.116 97.1448 404.978 97.8308 404.712 98.4705C404.446 99.1102 404.056 99.6912 403.565 100.18C403.074 100.669 402.491 101.057 401.85 101.321C401.209 101.585 400.523 101.72 399.829 101.718Z" stroke="#3A9EFD"/>
<mask id="mask1" style="mask-type:alpha" maskUnits="userSpaceOnUse" x="285" y="25" width="123" height="78">
<path d="M401.615 101.863H290.878C289.476 101.862 288.132 101.305 287.14 100.314C286.149 99.323 285.592 97.9792 285.59 96.5778V31.639C285.592 30.2375 286.149 28.8938 287.14 27.9028C288.132 26.9118 289.476 26.3546 290.878 26.3533H401.615C403.017 26.3546 404.361 26.9118 405.352 27.9028C406.343 28.8938 406.901 30.2375 406.902 31.639V96.5974C406.901 97.2903 406.764 97.9763 406.497 98.616C406.231 99.2557 405.841 99.8367 405.35 100.326C404.859 100.815 404.277 101.202 403.636 101.466C402.995 101.73 402.308 101.865 401.615 101.863Z" fill="#C4C4C4" stroke="#3A9EFD"/>
</mask>
<g mask="url(#mask1)">
<path d="M365.126 38.3325H350.23V59.7385H365.126V38.3325Z" fill="white"/>
<path d="M363.761 39.7319H351.267V58.6223H363.761V39.7319Z" fill="#DDD6FF"/>
<path d="M361.338 52.6522C361.128 52.6534 360.919 52.6243 360.717 52.5657C360.523 52.5089 360.337 52.4302 360.161 52.331C359.985 52.2313 359.818 52.1146 359.664 51.9825C359.507 51.8485 359.359 51.7052 359.219 51.5534C359.044 51.6926 358.86 51.8206 358.669 51.9363C358.438 52.0764 358.195 52.1954 357.943 52.2918C357.653 52.4025 357.355 52.4892 357.051 52.551C356.708 52.6194 356.358 52.6523 356.008 52.6492C355.557 52.653 355.108 52.5948 354.672 52.4764C354.289 52.3742 353.93 52.1992 353.613 51.9609C353.319 51.7355 353.082 51.4451 352.919 51.1125C352.746 50.7464 352.66 50.345 352.668 49.9401C352.663 49.6185 352.727 49.2995 352.857 49.0053C352.978 48.7391 353.144 48.4959 353.348 48.2865C353.552 48.0795 353.784 47.9011 354.036 47.7562C354.284 47.6112 354.544 47.4874 354.814 47.3861C354.678 47.2801 354.549 47.1656 354.428 47.0434C354.298 46.9132 354.181 46.7704 354.079 46.6172C353.975 46.4607 353.891 46.2918 353.829 46.1145C353.764 45.9303 353.731 45.7364 353.731 45.541C353.724 45.2487 353.788 44.959 353.919 44.6975C354.05 44.436 354.243 44.2107 354.482 44.0417C354.738 43.8602 355.026 43.7271 355.33 43.6489C355.685 43.5549 356.05 43.509 356.417 43.5124C356.769 43.5088 357.119 43.5568 357.457 43.6547C357.749 43.7372 358.024 43.8701 358.269 44.0475C358.488 44.2076 358.668 44.4155 358.794 44.6554C358.918 44.8966 358.982 45.1646 358.979 45.436C358.987 45.8682 358.842 46.2894 358.568 46.6241C358.255 46.9876 357.858 47.2685 357.411 47.442C357.607 47.5318 357.796 47.6348 357.979 47.7504C358.164 47.8687 358.342 48 358.509 48.1432C358.689 48.2988 358.858 48.4667 359.015 48.6459C359.193 48.8496 359.357 49.0652 359.506 49.291C359.831 48.8898 360.077 48.4302 360.231 47.9369C360.378 47.4517 360.452 46.9474 360.45 46.4405C360.45 46.2898 360.441 46.1393 360.422 45.9898C360.406 45.8534 360.376 45.7188 360.333 45.5881H361.994C362.037 45.7129 362.07 45.841 362.092 45.9711C362.114 46.116 362.124 46.2625 362.123 46.409C362.123 46.8013 362.081 47.1926 361.996 47.5756C361.913 47.9484 361.794 48.3121 361.64 48.6616C361.489 49.0062 361.304 49.335 361.088 49.6435C360.874 49.95 360.636 50.239 360.375 50.5076C360.556 50.7011 360.767 50.8645 360.999 50.9917C361.184 51.097 361.392 51.1553 361.604 51.1616C361.807 51.161 362.01 51.1393 362.209 51.0968C362.396 51.0607 362.576 50.9996 362.746 50.9151V52.388C362.53 52.4742 362.305 52.5399 362.077 52.5844C361.833 52.6308 361.586 52.6535 361.338 52.6522ZM356.109 51.1793C356.34 51.1808 356.571 51.157 356.797 51.1085C357.004 51.0635 357.206 51.0004 357.402 50.9201C357.585 50.845 357.762 50.7543 357.929 50.649C358.085 50.5512 358.235 50.4439 358.377 50.3279C358.193 50.0325 357.984 49.7527 357.754 49.4913C357.566 49.2791 357.362 49.0821 357.143 48.9021C356.954 48.7485 356.752 48.6113 356.541 48.4917C356.341 48.3804 356.14 48.2797 355.938 48.1893C355.771 48.2705 355.61 48.362 355.454 48.4633C355.302 48.5619 355.164 48.68 355.044 48.8148C354.923 48.95 354.826 49.1043 354.757 49.2714C354.681 49.4585 354.645 49.6589 354.649 49.8605C354.646 50.0449 354.682 50.2278 354.754 50.3976C354.821 50.5553 354.921 50.6965 355.048 50.811C355.184 50.9299 355.341 51.0213 355.511 51.0801C355.704 51.147 355.908 51.1799 356.112 51.1773L356.109 51.1793ZM357.251 45.5754C357.253 45.4646 357.229 45.3549 357.183 45.2543C357.14 45.1624 357.077 45.0813 356.998 45.0167C356.919 44.9522 356.829 44.9021 356.732 44.8684C356.631 44.8332 356.525 44.8156 356.418 44.8164C356.291 44.8152 356.164 44.8361 356.044 44.8782C355.937 44.9165 355.838 44.973 355.75 45.0452C355.667 45.1125 355.599 45.1978 355.553 45.2946C355.508 45.392 355.485 45.4983 355.486 45.6058C355.486 45.8356 355.562 46.059 355.702 46.2412C355.845 46.4342 356.028 46.5942 356.239 46.7105C356.372 46.6625 356.501 46.6047 356.625 46.5377C356.743 46.4748 356.851 46.3958 356.946 46.303C357.039 46.2128 357.114 46.1062 357.168 45.9888C357.226 45.8581 357.254 45.7163 357.251 45.5735V45.5754Z" fill="#FE5244"/>
<g opacity="0.41">
<g opacity="0.41">
<path opacity="0.41" d="M350.122 52.8759V57.6873L365.018 40.8492V38.3276H362.988L350.122 52.8759Z" fill="white"/>
</g>
<g opacity="0.41">
<path opacity="0.41" d="M365.016 43.2432L350.422 59.7396H352.161L365.016 45.207V43.2432Z" fill="white"/>
</g>
</g>
<g opacity="0.25">
<path opacity="0.25" d="M350.37 38.7667C350.37 38.8649 350.375 38.9581 350.377 39.0534H364.404V59.5433C364.653 59.5668 364.901 59.5982 365.149 59.6356V38.3091H350.369L350.37 38.7667Z" fill="black"/>
</g>
<path d="M365.5 60.1108H349.859V37.9604H365.5V60.1108ZM350.604 59.3665H364.756V38.7047H350.604V59.3665Z" fill="#A897F3"/>
<path d="M325.104 56.0015L327.404 67.928L343.484 71.7703L339.405 73.6526L323.089 72.7119L320.711 61.2558L325.104 56.0015Z" fill="#E3B3A4"/>
<path d="M323.307 82.4447L323.686 87.0795L323.618 137.272L317.233 137.478L315.31 92.0922L314.279 92.0234L309.54 137.409H302.808L303.839 111.661L303.564 83.9903L307.822 81.0376L323.307 82.4447Z" fill="#1E183F"/>
<path d="M304.055 88.1861L303.893 88.0319L309.147 82.5037L314.897 82.5733V82.7972L309.245 82.7295L304.055 88.1861Z" fill="#DDD6FF"/>
<path d="M315.407 92.1421L315.21 92.0439L315.611 91.2428L315.681 82.5723L321.006 82.7147L323.785 87.0214L323.597 87.1432L320.882 82.9356L315.904 82.803L315.836 91.2977L315.407 92.1421Z" fill="#DDD6FF"/>
<path d="M315.409 71.0299C315.284 71.0299 315.161 70.9926 315.056 70.9228C314.952 70.853 314.87 70.7538 314.822 70.6377C314.774 70.5216 314.762 70.3938 314.786 70.2706C314.811 70.1474 314.871 70.0342 314.96 69.9454C315.049 69.8565 315.162 69.796 315.285 69.7715C315.409 69.747 315.537 69.7596 315.653 69.8077C315.769 69.8558 315.868 69.9372 315.938 70.0416C316.008 70.1461 316.045 70.2689 316.045 70.3945C316.045 70.5629 315.978 70.7245 315.859 70.8435C315.739 70.9626 315.578 71.0297 315.409 71.0299ZM315.409 69.9654C315.325 69.9654 315.242 69.9907 315.171 70.0378C315.1 70.085 315.045 70.1519 315.013 70.2303C314.98 70.3087 314.972 70.3951 314.988 70.4783C315.005 70.5616 315.046 70.638 315.106 70.698C315.166 70.758 315.243 70.7988 315.326 70.8154C315.409 70.8319 315.495 70.8235 315.574 70.791C315.652 70.7586 315.719 70.7035 315.766 70.6329C315.814 70.5624 315.839 70.4794 315.839 70.3945C315.838 70.2808 315.793 70.1718 315.713 70.0914C315.632 70.011 315.523 69.9657 315.409 69.9654Z" fill="#356493"/>
<path d="M310.475 45.4937C310.475 45.4937 305.393 47.43 304.695 47.7678C299.675 50.199 299.204 61.9606 299.204 61.9606H303.44L302.881 84.7413C302.881 84.7413 314.963 87.2501 324.142 84.5842L322.975 63.785C325.085 63.7183 327.158 63.2168 329.065 62.3121C329.065 62.3121 324.908 50.3935 323.073 48.9815C321.239 47.5694 314.202 46.3155 314.202 46.3155L310.475 45.4937Z" fill="#F4B223"/>
<path d="M312.362 39.9036L310.521 46.1879C310.459 47.1707 310.78 48.1393 311.415 48.8917C312.051 49.6441 312.952 50.1222 313.932 50.2266C314.35 50.3676 314.796 50.4033 315.231 50.3304C315.666 50.2574 316.076 50.0782 316.425 49.8085C316.774 49.5389 317.051 49.1872 317.231 48.7847C317.412 48.3823 317.489 47.9415 317.458 47.5017L317.221 46.3715L317.567 42.6127L312.362 39.9036Z" fill="#E3B3A4"/>
<path d="M312.044 40.9908L312.307 40.0913L313.93 40.7198L315.463 41.5181L317.476 43.6115L317.287 45.6598C316.225 45.5066 312.55 44.7093 312.044 40.9908Z" fill="#C59B8E"/>
<path d="M321.672 36.4238C321.311 39.3028 319.876 44.9607 316.979 44.781C313.934 44.5925 312.494 42.8515 312.173 39.9892C312.173 39.9892 310.622 40.486 310.805 38.4181C310.885 37.5059 311.885 38.0253 311.885 38.0253C311.885 38.0253 310.412 30.4576 315.18 30.0148C319.949 29.5719 322.167 32.4814 321.672 36.4238Z" fill="#E3B3A4"/>
<path d="M316.442 36.464C316.52 36.5219 316.607 36.5664 316.699 36.5956C316.747 36.6078 316.797 36.6049 316.843 36.5873C316.889 36.5697 316.928 36.5383 316.955 36.4974C316.989 36.4225 317.002 36.3398 316.994 36.258C316.985 36.1761 316.955 36.098 316.906 36.0319C316.728 35.8058 316.469 35.6576 316.184 35.6185C315.917 35.5392 315.638 35.5076 315.36 35.5253C315.213 35.5393 315.072 35.5838 314.944 35.6558C314.815 35.7279 314.704 35.8259 314.616 35.9436C314.59 35.974 314.574 36.0117 314.57 36.0516C314.569 36.0783 314.577 36.1045 314.593 36.1263C314.608 36.1482 314.63 36.1646 314.655 36.1733C314.701 36.183 314.749 36.1802 314.794 36.1655C315.075 36.1038 315.365 36.0984 315.648 36.1497C315.931 36.2009 316.201 36.3077 316.442 36.464Z" fill="#40327A"/>
<path d="M319.279 36.9157C319.198 36.9514 319.112 36.9724 319.024 36.9776C318.979 36.9771 318.935 36.9611 318.9 36.9323C318.866 36.9036 318.842 36.8637 318.833 36.8195C318.825 36.7385 318.836 36.6568 318.866 36.5811C318.896 36.5054 318.944 36.438 319.005 36.3845C319.106 36.301 319.222 36.2388 319.347 36.2019C319.473 36.1649 319.604 36.1539 319.734 36.1695C319.981 36.1602 320.228 36.2003 320.46 36.2873C320.584 36.3415 320.694 36.4224 320.784 36.5242C320.873 36.6261 320.938 36.7464 320.976 36.8765C320.989 36.9132 320.992 36.953 320.984 36.9913C320.979 37.0166 320.966 37.0396 320.947 37.0572C320.928 37.0748 320.904 37.086 320.878 37.0895C320.836 37.087 320.796 37.072 320.762 37.0463C320.54 36.9164 320.292 36.8374 320.035 36.8148C319.779 36.7922 319.521 36.8267 319.279 36.9157Z" fill="#40327A"/>
<path d="M317.075 40.9415L316.992 40.8531C317.062 40.8017 317.141 40.7648 317.226 40.7446C317.31 40.7244 317.398 40.7212 317.483 40.7353C317.542 40.7383 317.602 40.7383 317.661 40.7353C317.803 40.7243 317.94 40.6729 318.054 40.587C318.071 40.5752 318.086 40.5602 318.098 40.5428C318.114 40.4938 318.111 40.4407 318.09 40.3936C317.85 39.7511 317.772 39.0596 317.861 38.3796L317.979 38.4052C317.895 39.0656 317.973 39.7366 318.206 40.3602C318.223 40.3985 318.231 40.4398 318.231 40.4815C318.231 40.5232 318.223 40.5644 318.206 40.6027C318.186 40.6341 318.16 40.6612 318.13 40.6823C317.996 40.7824 317.836 40.8421 317.67 40.8541C317.609 40.8541 317.544 40.8541 317.48 40.8541C317.339 40.8301 317.194 40.8614 317.075 40.9415Z" fill="#1E183F"/>
<path d="M319.939 38.6095C320.006 38.1186 319.857 37.7013 319.607 37.6679C319.358 37.6345 319.102 37.9998 319.035 38.4868C318.968 38.9738 319.117 39.3951 319.367 39.4285C319.616 39.4619 319.874 39.0956 319.939 38.6095Z" fill="#1E183F"/>
<path d="M316.107 38.0291C316.173 37.5428 316.024 37.121 315.774 37.087C315.524 37.0529 315.268 37.4196 315.202 37.9059C315.135 38.3922 315.284 38.814 315.534 38.848C315.784 38.882 316.04 38.5154 316.107 38.0291Z" fill="#1E183F"/>
<path d="M318.852 41.78C317.611 41.9299 316.352 41.7911 315.173 41.3745C315.173 41.3745 315.732 42.8631 316.932 42.9319C317.322 42.9141 317.702 42.7995 318.037 42.5984C318.372 42.3974 318.652 42.1161 318.852 41.78Z" fill="white"/>
<path d="M322.914 34.1368C323.177 33.9866 323.503 33.8353 323.549 33.5359C323.594 33.2364 323.326 33.0056 323.064 32.874C322.786 32.7809 322.535 32.6214 322.333 32.4096C322.943 32.3664 323.261 31.5818 323.068 31.0015C322.973 30.7516 322.828 30.5234 322.642 30.3304C322.456 30.1375 322.234 29.9837 321.988 29.8782C321.494 29.6702 320.97 29.5445 320.436 29.506C319.437 29.394 318.431 29.3632 317.427 29.4137C316.593 29.5723 315.729 29.4277 314.991 29.0062C314.825 28.8326 314.627 28.6923 314.408 28.5928C314.218 28.5603 314.023 28.5956 313.857 28.6926C313.691 28.7896 313.564 28.942 313.499 29.1231C313.38 29.4898 313.352 29.88 313.417 30.2601C313.229 30.1641 313.022 30.1114 312.811 30.1058C312.601 30.1002 312.391 30.1419 312.199 30.2277C311.835 30.4398 311.729 31.0584 312.1 31.2646C312.219 31.3314 312.381 31.3628 312.433 31.4856C312.492 31.627 312.369 31.7723 312.262 31.8784C311.391 32.7526 310.903 33.9369 310.906 35.1707C310.908 36.4044 311.401 37.5866 312.275 38.4573C312.678 37.438 313.241 36.4934 313.68 35.4869C314.168 34.4994 314.386 33.4005 314.313 32.3016C316.227 33.6418 318.566 34.2355 320.888 33.9709C321.061 33.9359 321.241 33.967 321.393 34.0582C321.456 34.127 321.504 34.2079 321.535 34.296C321.566 34.3841 321.579 34.4776 321.572 34.5708L321.707 36.6329C321.642 36.1444 321.722 35.6478 321.937 35.2043C322.151 34.7607 322.491 34.3896 322.914 34.1368Z" fill="#FE5244"/>
<path d="M312.103 38.0154C312.092 38.0153 312.082 38.0127 312.073 38.0077C312.064 38.0027 312.057 37.9956 312.051 37.9869C312.045 37.9782 312.042 37.9683 312.041 37.958C312.041 37.9477 312.042 37.9374 312.047 37.928C312.998 35.89 313.637 33.72 313.941 31.4915C313.944 31.4769 313.953 31.4642 313.966 31.4557C313.978 31.4473 313.993 31.4436 314.008 31.4456C314.023 31.4475 314.037 31.4548 314.047 31.4662C314.057 31.4775 314.062 31.4921 314.062 31.5072C314.054 31.5749 314.195 31.7242 314.912 32.0531C314.966 32.0777 315.01 32.0973 315.034 32.1101C315.606 32.4033 316.209 32.6313 316.831 32.7896C318.106 33.0587 319.408 33.1731 320.71 33.1303C321.081 33.1303 321.463 33.1352 321.841 33.145C322.088 33.1291 322.333 33.1894 322.544 33.3179C322.606 33.3657 322.656 33.4262 322.692 33.4954C322.729 33.5645 322.749 33.6406 322.753 33.7185C322.757 33.7735 322.748 33.8286 322.727 33.8796C322.706 33.9306 322.674 33.9762 322.633 34.0131C322.62 34.0221 322.605 34.0261 322.589 34.0242C322.574 34.0224 322.56 34.0149 322.55 34.0032C322.54 33.9915 322.534 33.9765 322.535 33.961C322.535 33.9456 322.541 33.9309 322.552 33.9198C322.579 33.8949 322.6 33.8644 322.613 33.8305C322.627 33.7965 322.633 33.7599 322.631 33.7234C322.628 33.6638 322.612 33.6056 322.584 33.5528C322.556 33.4999 322.518 33.4536 322.471 33.417C322.28 33.3044 322.059 33.2527 321.838 33.2688C321.461 33.259 321.079 33.256 320.709 33.254C319.397 33.2969 318.085 33.1812 316.801 32.9094C316.169 32.7494 315.558 32.5188 314.978 32.222L314.861 32.167C314.564 32.0506 314.287 31.8911 314.037 31.6938C313.721 33.869 313.089 35.9863 312.159 37.9781C312.154 37.989 312.146 37.9984 312.136 38.005C312.126 38.0116 312.115 38.0152 312.103 38.0154Z" fill="white"/>
<path d="M322.176 32.275C322.165 32.2749 322.154 32.2719 322.144 32.2661C321.274 31.8703 320.306 31.7408 319.363 31.894H319.278C317.815 32.0659 316.331 31.8788 314.956 31.349C314.942 31.3415 314.932 31.3289 314.927 31.314C314.922 31.2991 314.923 31.2829 314.93 31.2687C314.936 31.2545 314.948 31.2433 314.963 31.2374C314.977 31.2315 314.994 31.2314 315.008 31.2371C316.365 31.7579 317.828 31.9412 319.271 31.7712H319.356C320.323 31.6163 321.315 31.7531 322.204 32.164C322.215 32.1711 322.224 32.1816 322.229 32.1939C322.233 32.2063 322.234 32.2198 322.23 32.2325C322.227 32.2453 322.22 32.2565 322.209 32.2647C322.199 32.2728 322.186 32.2775 322.173 32.2779L322.176 32.275Z" fill="white"/>
<path d="M316.64 39.4578C316.614 39.4578 316.588 39.4555 316.563 39.451L314.464 39.065C314.352 39.0445 314.253 38.9805 314.188 38.8869C314.123 38.7934 314.099 38.6781 314.119 38.5662L314.445 36.786C314.466 36.6743 314.53 36.5754 314.623 36.5108C314.717 36.4463 314.832 36.4213 314.944 36.4413L317.043 36.8253C317.155 36.8458 317.254 36.9099 317.319 37.0034C317.383 37.0969 317.408 37.2122 317.388 37.3241L317.062 39.1043C317.044 39.2033 316.992 39.293 316.915 39.3576C316.838 39.4223 316.741 39.4577 316.64 39.4578ZM314.866 36.5886C314.802 36.5887 314.739 36.6115 314.69 36.653C314.64 36.6944 314.607 36.7519 314.595 36.8155L314.269 38.5957C314.263 38.6313 314.263 38.6679 314.271 38.7034C314.279 38.7388 314.293 38.7724 314.314 38.8022C314.334 38.832 314.361 38.8575 314.391 38.8772C314.422 38.8968 314.456 38.9103 314.491 38.9168L316.59 39.3007C316.626 39.3072 316.663 39.3067 316.698 39.2991C316.733 39.2914 316.767 39.2769 316.797 39.2563C316.827 39.2357 316.852 39.2094 316.872 39.1789C316.892 39.1485 316.905 39.1145 316.911 39.0788L317.238 37.2985C317.244 37.2629 317.244 37.2263 317.236 37.1909C317.228 37.1554 317.214 37.1218 317.193 37.092C317.173 37.0622 317.146 37.0368 317.116 37.0171C317.085 36.9974 317.051 36.984 317.016 36.9775L314.917 36.5935C314.9 36.59 314.883 36.5881 314.866 36.5876V36.5886Z" fill="#1E183F"/>
<path d="M320.426 40.1473C320.401 40.1473 320.376 40.1449 320.352 40.1404L318.43 39.7889C318.322 39.7691 318.227 39.7074 318.164 39.6174C318.102 39.5274 318.078 39.4164 318.098 39.3087L318.429 37.503C318.438 37.4496 318.458 37.3987 318.488 37.3532C318.517 37.3076 318.555 37.2683 318.6 37.2375C318.645 37.2066 318.695 37.1849 318.748 37.1735C318.801 37.1621 318.856 37.1613 318.909 37.1711L320.831 37.5226C320.939 37.5424 321.034 37.6041 321.096 37.6941C321.159 37.7841 321.183 37.8951 321.163 38.0028L320.832 39.8085C320.815 39.9036 320.765 39.9895 320.691 40.0514C320.617 40.1133 320.523 40.1473 320.426 40.1473ZM318.834 37.3115C318.772 37.3114 318.712 37.3332 318.664 37.3731C318.616 37.4129 318.584 37.4683 318.573 37.5295L318.242 39.3352C318.229 39.4046 318.245 39.4762 318.285 39.5342C318.325 39.5922 318.387 39.6319 318.456 39.6445L320.378 39.9961C320.448 40.0087 320.519 39.9932 320.577 39.9531C320.635 39.9129 320.675 39.8514 320.688 39.782L321.019 37.9763C321.031 37.9069 321.016 37.8353 320.976 37.7773C320.936 37.7193 320.874 37.6796 320.805 37.667L318.882 37.3184C318.867 37.3146 318.85 37.3123 318.834 37.3115Z" fill="#1E183F"/>
<path d="M312.392 37.6968L312.38 37.814L314.256 38.0178L314.269 37.9006L312.392 37.6968Z" fill="#1E183F"/>
<path d="M318.251 38.736C318.014 38.2195 317.125 38.4925 317.116 38.4945L317.081 38.3825C317.121 38.3698 318.078 38.0752 318.358 38.6869L318.251 38.736Z" fill="#1E183F"/>
<path d="M320.926 39.0584L320.891 39.1711L321.136 39.2459L321.171 39.1332L320.926 39.0584Z" fill="#1E183F"/>
<path d="M322.976 63.9019C322.946 63.9017 322.918 63.8904 322.896 63.8702C322.874 63.85 322.861 63.8224 322.859 63.7929L322.398 57.3436C322.396 57.3277 322.397 57.3115 322.402 57.2961C322.406 57.2807 322.414 57.2663 322.424 57.2539C322.434 57.2415 322.446 57.2313 322.461 57.2239C322.475 57.2165 322.491 57.2121 322.507 57.211C322.523 57.2099 322.539 57.212 322.554 57.2173C322.569 57.2226 322.583 57.2309 322.595 57.2417C322.607 57.2526 322.616 57.2657 322.623 57.2804C322.629 57.295 322.633 57.3109 322.633 57.3269L323.094 63.7762C323.096 63.8073 323.085 63.838 323.065 63.8616C323.045 63.8852 323.016 63.8996 322.984 63.9019H322.976Z" fill="#242638"/>
<path d="M307.128 61.8821L307.755 66.6729H320.933L326.581 67.7315L328.938 68.9098L325.526 71.0268L319.878 69.498L302.905 72.7795C302.757 72.708 302.628 72.6021 302.529 72.4705C302.43 72.339 302.364 72.1857 302.336 72.0234L300.62 61.9607L307.128 61.8821Z" fill="#E3B3A4"/>
<path d="M307.991 62.1571H307.97L307.108 62C307.078 61.9936 307.052 61.9758 307.035 61.9503C307.018 61.9249 307.011 61.8938 307.017 61.8637C307.022 61.8335 307.039 61.8067 307.064 61.7889C307.089 61.7711 307.12 61.7637 307.15 61.7682L307.878 61.9008L308.031 55.9219C308.03 55.9056 308.033 55.8892 308.038 55.8739C308.044 55.8585 308.053 55.8445 308.064 55.8327C308.075 55.821 308.089 55.8117 308.104 55.8055C308.119 55.7993 308.135 55.7963 308.152 55.7967C308.168 55.7971 308.184 55.8009 308.199 55.8078C308.214 55.8148 308.227 55.8247 308.238 55.8371C308.249 55.8494 308.257 55.8638 308.261 55.8794C308.266 55.895 308.268 55.9115 308.266 55.9277L308.109 62.0442C308.108 62.0749 308.095 62.1042 308.073 62.1256C308.051 62.1471 308.022 62.1591 307.991 62.1591V62.1571Z" fill="#242638"/>
<path d="M354.43 56.0408L332.286 55.9927L329.183 72.1218L351.176 72.3849L354.43 56.0408Z" fill="#1E183F"/>
<path d="M335.228 70.7311L321.121 70.7029L321.118 72.1031L335.225 72.1313L335.228 70.7311Z" fill="#1E183F"/>
<path d="M345.349 63.0548C345.349 62.679 345.239 62.3115 345.03 61.9986C344.822 61.6857 344.526 61.4415 344.179 61.297C343.832 61.1525 343.45 61.1141 343.081 61.1866C342.712 61.2592 342.373 61.4394 342.107 61.7046C341.84 61.9698 341.659 62.308 341.585 62.6764C341.51 63.0448 341.547 63.4269 341.69 63.7744C341.834 64.1219 342.076 64.4191 342.389 64.6285C342.701 64.8379 343.068 64.9502 343.444 64.951C343.694 64.9515 343.941 64.9028 344.172 64.8078C344.402 64.7128 344.612 64.5733 344.789 64.3972C344.966 64.2211 345.106 64.0119 345.202 63.7816C345.298 63.5513 345.348 63.3043 345.349 63.0548Z" fill="white"/>
<path d="M351.538 125.396V124.954C353.497 124.954 354.961 124.746 355.972 122.051C357.045 119.191 357.523 113.663 357.523 104.127C357.523 96.4263 358.824 91.9685 361.391 90.8766C361.981 90.6657 362.61 90.5914 363.233 90.6595C363.855 90.7275 364.454 90.936 364.984 91.2692C365.588 91.5902 366.149 91.9862 366.654 92.4476L366.348 92.7657C366.322 92.7412 363.782 90.3394 361.565 91.284C360.52 91.7288 359.687 92.8551 359.089 94.6167C358.229 97.7107 357.85 100.919 357.967 104.128C357.967 113.719 357.476 119.295 356.387 122.206C355.278 125.156 353.535 125.396 351.538 125.396Z" fill="#242638"/>
<path d="M363.098 111.389H361.768V99.6461C361.769 98.6279 362.174 97.6518 362.894 96.9318C363.615 96.2118 364.591 95.8069 365.61 95.8059H373.959V97.1354H365.61C364.944 97.1362 364.305 97.401 363.835 97.8716C363.364 98.3423 363.099 98.9805 363.098 99.6461V111.389Z" fill="#DDD6FF"/>
<path d="M381.273 70.9229H381.272C375.029 70.9229 369.969 75.9816 369.969 82.2219V100.169C369.969 106.409 375.029 111.468 381.272 111.468H381.273C387.515 111.468 392.576 106.409 392.576 100.169V82.2219C392.576 75.9816 387.515 70.9229 381.273 70.9229Z" fill="#F4B223"/>
<path d="M388.77 108.255H369.894C369.865 108.255 369.837 108.243 369.816 108.222C369.795 108.201 369.784 108.173 369.784 108.144C369.784 108.114 369.795 108.086 369.816 108.065C369.837 108.044 369.865 108.033 369.894 108.033H388.77C389.122 108.032 389.46 107.892 389.709 107.643C389.959 107.394 390.099 107.056 390.1 106.703V75.6115C390.1 75.5821 390.111 75.5538 390.132 75.533C390.153 75.5122 390.181 75.5005 390.211 75.5005C390.24 75.5005 390.268 75.5122 390.289 75.533C390.31 75.5538 390.322 75.5821 390.322 75.6115V106.703C390.321 107.115 390.158 107.509 389.867 107.8C389.576 108.091 389.181 108.254 388.77 108.255Z" fill="#242638"/>
<path d="M384.397 80.477C384.27 81.1565 383.979 81.7949 383.551 82.3375C383.122 82.8802 382.568 83.3108 381.937 83.5926C380.679 84.1325 379.333 84.4374 377.965 84.4921C376.579 84.6799 375.172 84.6571 373.792 84.4244C373.098 84.3019 372.436 84.0431 371.844 83.663C371.251 83.283 370.74 82.7891 370.339 82.2101C369.309 80.5683 369.412 78.1842 367.877 77.0235C366.488 75.9729 364.242 76.3735 363.186 74.9772C362.872 74.4308 362.716 73.8076 362.735 73.1774C362.754 72.5473 362.949 71.935 363.296 71.4089C363.895 70.3052 364.78 69.3684 365.271 68.2117C365.747 66.6566 365.989 65.0394 365.99 63.4131C366.115 62.2008 366.386 61.008 366.796 59.8604C367.02 59.1372 367.392 58.4684 367.888 57.8966C368.653 57.1822 369.622 56.724 370.659 56.5857C371.946 56.3081 373.283 56.369 374.539 56.7625C375.169 56.9665 375.749 57.2976 376.246 57.7352C376.742 58.1729 377.142 58.7077 377.423 59.3066C378.332 61.404 377.447 64.1122 378.782 65.9582C380.52 68.3629 384.866 67.6707 386.21 70.3249C386.874 71.6367 386.468 73.2402 385.875 74.5864C385.144 75.8672 384.65 77.2698 384.419 78.7262C384.387 79.3085 384.471 79.8977 384.397 80.477Z" fill="#31006F"/>
<path d="M373.935 67.218C373.935 67.218 374.314 72.1503 374.498 72.5204C374.683 72.8906 377.084 73.5731 377.084 73.5731C377.084 73.5731 372.664 76.3529 368.771 74.3075C369.393 73.9277 369.967 73.4744 370.481 72.9573C370.585 72.6539 370.383 69.4332 370.383 69.4332L373.935 67.218Z" fill="#E3B3A4"/>
<path d="M370.46 70.4888C371.246 70.5258 372.023 70.3041 372.671 69.8577C373.318 69.4113 373.802 68.7648 374.047 68.0173L370.254 68.7106L370.46 70.4888Z" fill="#C59B8E"/>
<path d="M367.084 62.6462C366.789 67.6384 369.329 69.669 370.458 69.7249C371.462 69.7083 372.434 69.374 373.236 68.7701C374.037 68.1661 374.627 67.3237 374.919 66.3638C374.919 66.3638 376.709 66.2764 376.799 65.2837C376.965 63.4612 375.586 64.4677 375.586 64.4677C375.586 64.4677 377.792 58.1146 372.817 56.9619C369.568 56.2117 367.367 57.8593 367.084 62.6462Z" fill="#E3B3A4"/>
<path d="M372.914 62.7886C372.863 62.6786 372.635 62.6639 372.533 62.6364C372.324 62.5793 372.106 62.561 371.89 62.5824C371.721 62.6011 371.552 62.6316 371.387 62.6737C371.275 62.7002 371.079 62.7719 370.977 62.6845C370.949 62.6521 370.934 62.6109 370.934 62.5682C370.934 62.5255 370.949 62.4842 370.977 62.4518C371.097 62.2957 371.388 62.2701 371.566 62.2456C371.819 62.1747 372.089 62.1895 372.333 62.2877C372.576 62.3859 372.781 62.5621 372.914 62.7886Z" fill="#40327A"/>
<path d="M367.189 62.7768C367.239 62.6669 367.467 62.6492 367.568 62.6207C367.776 62.5612 367.994 62.5402 368.209 62.5589C368.379 62.5759 368.548 62.6047 368.714 62.6452C368.827 62.6707 369.023 62.7434 369.124 62.6521C369.152 62.6197 369.167 62.5785 369.167 62.5358C369.167 62.4931 369.152 62.4518 369.124 62.4194C369.002 62.2643 368.711 62.2426 368.535 62.223C368.281 62.1534 368.011 62.17 367.767 62.2702C367.523 62.3704 367.32 62.5486 367.189 62.7768Z" fill="#40327A"/>
<path d="M372.361 65.5192C372.811 65.5039 373.169 65.306 373.162 65.0773C373.154 64.8486 372.783 64.6756 372.333 64.691C371.883 64.7063 371.524 64.9042 371.532 65.1329C371.54 65.3616 371.911 65.5346 372.361 65.5192Z" fill="#EFA0C4"/>
<path d="M368.798 65.1117C368.79 64.8829 368.46 64.7082 368.06 64.719C367.66 64.7298 367.344 64.9291 367.352 65.1579C367.36 65.3867 367.69 65.5615 368.089 65.5507C368.488 65.5399 368.806 65.3405 368.798 65.1117Z" fill="#EFA0C4"/>
<path d="M370.262 65.9777C370.141 65.9686 370.024 65.9337 369.919 65.8754C369.813 65.8172 369.721 65.7369 369.649 65.64C369.642 65.6304 369.637 65.6191 369.635 65.6072C369.634 65.5954 369.635 65.5833 369.64 65.5722C369.9 64.8833 369.973 64.1382 369.852 63.412C369.85 63.4031 369.85 63.3939 369.852 63.3849C369.854 63.376 369.857 63.3675 369.862 63.3599C369.867 63.3523 369.874 63.3458 369.881 63.3408C369.889 63.3357 369.897 63.3322 369.906 63.3305C369.924 63.3272 369.943 63.331 369.958 63.3411C369.973 63.3511 369.984 63.3667 369.988 63.3845C370.115 64.1245 370.044 64.8848 369.783 65.5889C369.841 65.6612 369.912 65.7209 369.994 65.7645C370.075 65.8081 370.165 65.8345 370.257 65.8422H370.28C370.299 65.8411 370.317 65.8472 370.331 65.8594C370.344 65.8715 370.353 65.8887 370.354 65.907C370.355 65.9254 370.349 65.9435 370.337 65.9573C370.325 65.9711 370.308 65.9795 370.289 65.9807L370.262 65.9777Z" fill="#1E183F"/>
<path d="M371.476 67.0058L370.463 66.6572L370.098 66.9665L369.751 66.672L368.977 67.0795C368.977 67.0795 369.36 68.1881 370.254 68.2156C371.148 68.2431 371.476 67.0058 371.476 67.0058Z" fill="#C59B8E"/>
<path d="M370.061 67.4587C369.684 67.4508 369.316 67.3375 369 67.1317C368.985 67.1211 368.974 67.1051 368.97 67.0869C368.966 67.0686 368.969 67.0496 368.979 67.0335C368.989 67.0183 369.005 67.0077 369.024 67.0039C369.042 67.0001 369.061 67.0033 369.077 67.0129C369.431 67.2046 369.828 67.3038 370.231 67.3012C370.634 67.2986 371.03 67.1944 371.382 66.9982C371.391 66.9933 371.4 66.9902 371.409 66.9889C371.419 66.9877 371.429 66.9882 371.438 66.9907C371.447 66.9932 371.456 66.9977 371.464 67.0036C371.471 67.0094 371.478 67.0168 371.483 67.0251C371.488 67.0335 371.491 67.0427 371.492 67.0523C371.493 67.0619 371.493 67.0716 371.49 67.081C371.488 67.0903 371.483 67.0992 371.477 67.1069C371.471 67.1146 371.464 67.121 371.456 67.1258C371.025 67.3499 370.546 67.4642 370.061 67.4587Z" fill="#1E183F"/>
<path d="M372.313 63.8313C372.326 63.4159 372.121 63.0732 371.858 63.0644C371.595 63.0555 371.367 63.3864 371.358 63.8018C371.349 64.2171 371.55 64.5598 371.813 64.5687C372.076 64.5775 372.3 64.2466 372.313 63.8313Z" fill="#1E183F"/>
<path d="M368.735 63.7598C368.748 63.3446 368.543 63.0017 368.279 62.9939C368.015 62.9861 367.791 63.3163 367.779 63.7316C367.767 64.1468 367.971 64.4897 368.235 64.4975C368.499 64.5053 368.723 64.175 368.735 63.7598Z" fill="#1E183F"/>
<path d="M381.657 93.1841C380.288 93.7732 377.172 94.4292 370.619 93.2558C370.429 94.7006 370.1 96.1238 369.637 97.5055L355.973 98.7742C354.611 99.1954 348.246 119.112 347.182 122.583L353.454 124.43L355.805 118.44L352.95 132.322L358.549 132.434C363.962 118.551 363.701 110.714 363.701 110.714C363.701 110.714 375.543 108.885 377.452 108.313C382.629 106.758 383.279 106.659 384.267 104.033C385.176 101.602 382.12 94.2642 381.657 93.1841Z" fill="#A897F3"/>
<path d="M376.531 85.736C375.759 86.3811 374.783 86.73 373.778 86.7198C372.772 86.7095 371.803 86.3409 371.045 85.6802C371.045 85.6802 374.029 87.1078 376.531 85.736Z" fill="#242638"/>
<path d="M377.361 98.3412C377.352 98.3425 377.342 98.3425 377.332 98.3412C374.817 97.7292 372.226 97.4855 369.641 97.6176C369.611 97.6192 369.582 97.6091 369.56 97.5894C369.537 97.5698 369.524 97.5421 369.522 97.5125C369.521 97.4978 369.523 97.483 369.528 97.4691C369.532 97.4552 369.54 97.4424 369.55 97.4313C369.559 97.4203 369.571 97.4113 369.585 97.4049C369.598 97.3984 369.612 97.3946 369.627 97.3937C372.235 97.2611 374.849 97.5075 377.387 98.1252C377.413 98.1324 377.436 98.1488 377.451 98.1714C377.466 98.194 377.472 98.2212 377.468 98.2481C377.465 98.275 377.451 98.2996 377.431 98.3175C377.411 98.3354 377.384 98.3452 377.357 98.3452L377.361 98.3412Z" fill="#1E183F"/>
<path d="M367.17 74.9998C366.384 75.5035 362.13 86.6985 362.13 86.6985L351.211 90.7843L348.188 91.177L346.004 91.5698L345.444 91.9626L353.06 92.1865L365.154 89.444L369.802 79.4283L367.17 74.9998Z" fill="#E3B3A4"/>
<path d="M375.457 73.0967C375.457 73.0967 381.3 74.0295 381.468 74.7012C381.636 75.3728 381.617 84.3289 381.617 84.3289L373.61 86.6424L367.73 83.1722L367.226 75.9511L367.17 74.9996L370.417 73.4286L375.457 73.0967Z" fill="#E3B3A4"/>
<path d="M375.047 77.6873L370.473 80.7656L367.208 77.8366L366.666 82.7816C366.666 82.7816 366.89 84.8711 368.309 85.3935L370.175 90.0213L369.727 94.4999C369.727 94.4999 379.003 95.0036 381.99 91.4215L381.892 89.9487L381.65 82.2797L375.047 77.6873Z" fill="#E57281"/>
<g style="mix-blend-mode:multiply">
<g style="mix-blend-mode:multiply">
<g style="mix-blend-mode:multiply">
<path d="M376.241 82.1091C376.241 82.1091 375.062 84.5157 371.537 83.3404C371.537 83.3404 374.169 85.0754 375.793 84.2359C375.998 84.1622 376.181 84.0374 376.324 83.8732C376.467 83.7089 376.566 83.5107 376.611 83.2975C376.656 83.0843 376.646 82.8631 376.581 82.6551C376.516 82.4471 376.399 82.2592 376.241 82.1091Z" fill="#FFE4E1"/>
</g>
</g>
</g>
<path d="M376.652 76.9036L373.106 87.7628L359.779 91.494L357.241 90.1134L355.3 90.7105L353.807 92.1658H354.404L354.638 92.0675L354.927 91.9438C354.927 91.9438 354.665 92.2384 354.777 92.2384H360.082L375.236 91.7631C375.501 91.7547 375.757 91.6669 375.972 91.5113C376.187 91.3557 376.35 91.1393 376.44 90.8902L381.286 78.7477L376.652 76.9036Z" fill="#E3B3A4"/>
<path d="M376.321 63.2756L375.588 64.4726C375.588 64.4726 371.379 62.059 370.511 58.961C369.31 60.281 368.022 61.5194 366.655 62.6678C366.655 62.6678 366.709 57.9654 369.044 57.2466C371.379 56.5278 374.741 56.14 375.832 58.1303C376.922 60.1207 376.321 63.2756 376.321 63.2756Z" fill="#31006F"/>
<path d="M352.685 92.2593C352.674 92.2592 352.663 92.2556 352.654 92.2491C352.644 92.2425 352.637 92.2334 352.633 92.2227C352.629 92.212 352.629 92.2004 352.632 92.1894C352.634 92.1784 352.641 92.1684 352.649 92.161L353.73 91.2282L353.741 91.2204C354.658 90.7541 355.601 90.341 356.565 89.9832C357.287 90.1968 357.992 90.4592 358.678 90.7686C358.687 90.7765 358.694 90.7872 358.697 90.7991C358.699 90.8109 358.698 90.8233 358.693 90.8344C358.688 90.8455 358.68 90.8547 358.669 90.8606C358.658 90.8664 358.646 90.8686 358.634 90.8668C357.964 90.5583 357.272 90.2978 356.565 90.0872C355.619 90.4391 354.694 90.8473 353.796 91.3097L352.716 92.2376C352.709 92.2481 352.698 92.2558 352.685 92.2593Z" fill="#C59B8E"/>
<path d="M372.934 96.1867C372.057 96.1867 371.105 96.1611 370.075 96.1022C370.046 96.1005 370.018 96.0871 369.998 96.0651C369.979 96.043 369.969 96.0139 369.97 95.9844C369.972 95.9551 369.986 95.9278 370.008 95.9082C370.03 95.8886 370.059 95.8783 370.088 95.8794C373.202 96.1229 376.335 95.9532 379.405 95.3747C380.347 95.2078 381.261 94.9103 382.121 94.4909C382.147 94.4759 382.178 94.4719 382.207 94.4797C382.236 94.4876 382.261 94.5066 382.275 94.5326C382.29 94.5586 382.294 94.5897 382.287 94.6187C382.279 94.6477 382.26 94.6724 382.234 94.6874C381.36 95.1179 380.43 95.4214 379.471 95.5887C377.319 96.0164 375.128 96.2168 372.934 96.1867Z" fill="#1E183F"/>
<path d="M351.341 123.886C351.321 123.886 351.301 123.881 351.284 123.872C351.267 123.862 351.252 123.848 351.242 123.83C351.232 123.813 351.227 123.794 351.227 123.774C351.227 123.754 351.233 123.734 351.243 123.717C353.917 119.129 356.059 114.251 357.627 109.178C358.273 107.145 358.78 105.072 359.145 102.971C359.149 102.942 359.163 102.915 359.186 102.897C359.209 102.878 359.239 102.87 359.268 102.873C359.323 102.879 364.827 103.483 370.374 103.855C373.63 104.074 376.268 104.172 378.2 104.149C381.321 104.107 381.968 103.745 382.077 103.533C382.978 101.765 380.603 95.2913 380.578 95.2255C380.568 95.1976 380.569 95.1667 380.581 95.1398C380.594 95.1128 380.616 95.0919 380.644 95.0816C380.672 95.0713 380.703 95.0726 380.73 95.085C380.757 95.0974 380.778 95.1201 380.788 95.1479C380.886 95.4179 383.221 101.783 382.276 103.634C382.125 103.928 381.539 104.328 378.203 104.373C376.26 104.4 373.621 104.301 370.359 104.079C365.232 103.734 360.143 103.195 359.349 103.105C358.978 105.18 358.475 107.228 357.842 109.239C356.268 114.328 354.12 119.222 351.438 123.825C351.429 123.843 351.415 123.858 351.398 123.869C351.381 123.88 351.361 123.886 351.341 123.886Z" fill="#1E183F"/>
<path d="M358.074 144.105C357.958 144.102 357.849 144.056 357.767 143.975C357.684 143.895 357.636 143.786 357.631 143.671L354.556 94.4086H334.272L332.808 143.655C332.811 143.717 332.802 143.778 332.78 143.836C332.758 143.894 332.725 143.946 332.682 143.99C332.639 144.034 332.587 144.069 332.53 144.091C332.473 144.114 332.411 144.125 332.35 144.123C332.288 144.121 332.228 144.106 332.172 144.08C332.117 144.053 332.067 144.015 332.027 143.968C331.987 143.921 331.957 143.867 331.939 143.808C331.922 143.749 331.916 143.687 331.924 143.626L333.397 93.9295C333.398 93.8117 333.445 93.6989 333.528 93.6149C333.61 93.531 333.722 93.4825 333.84 93.4797H354.969C355.084 93.4824 355.193 93.5287 355.275 93.6093C355.358 93.6899 355.406 93.7988 355.411 93.9138L358.514 143.61C358.523 143.73 358.485 143.848 358.407 143.94C358.33 144.032 358.22 144.09 358.1 144.101L358.074 144.105Z" fill="#3A9EFD"/>
<path d="M402.8 94.6657H332.449C332.449 94.2787 332.603 93.9076 332.877 93.634C333.15 93.3603 333.522 93.2065 333.909 93.2065H401.341C401.533 93.2065 401.722 93.2443 401.9 93.3177C402.077 93.391 402.237 93.4985 402.373 93.634C402.509 93.7695 402.616 93.9303 402.689 94.1073C402.763 94.2844 402.801 94.474 402.801 94.6657H402.8Z" fill="#F4B223"/>
<path d="M359.251 65.8599H335.804C335.707 65.8598 335.611 65.8806 335.522 65.9208C335.434 65.961 335.355 66.0196 335.291 66.0928C335.227 66.166 335.179 66.2521 335.151 66.3452C335.123 66.4383 335.115 66.5363 335.128 66.6327L337.604 84.9142C337.626 85.0775 337.707 85.2272 337.831 85.3355C337.955 85.4438 338.115 85.5034 338.28 85.5033H361.726C361.823 85.5034 361.92 85.4826 362.008 85.4424C362.097 85.4023 362.176 85.3436 362.24 85.2704C362.304 85.1972 362.351 85.1111 362.379 85.018C362.407 84.9249 362.415 84.8269 362.402 84.7306L359.927 66.4491C359.904 66.2858 359.823 66.1361 359.699 66.0277C359.575 65.9194 359.416 65.8598 359.251 65.8599Z" fill="#DDD6FF"/>
<path d="M350.242 90.3079L352.311 83.9567L344.332 83.7358L341.229 91.6384H355.266V90.3088L350.242 90.3079ZM346.751 88.9783C346.492 88.9783 346.238 88.9015 346.023 88.7574C345.807 88.6134 345.639 88.4087 345.54 88.1691C345.441 87.9296 345.415 87.666 345.465 87.4117C345.516 87.1574 345.641 86.9239 345.824 86.7406C346.007 86.5573 346.241 86.4324 346.495 86.3818C346.75 86.3313 347.014 86.3572 347.253 86.4564C347.493 86.5556 347.698 86.7236 347.842 86.9392C347.986 87.1548 348.063 87.4082 348.063 87.6675C348.063 87.84 348.03 88.0108 347.964 88.1703C347.898 88.3298 347.802 88.4748 347.68 88.5969C347.558 88.7191 347.413 88.816 347.254 88.8821C347.095 88.9482 346.924 88.9823 346.751 88.9823V88.9783Z" fill="#DDD6FF"/>
<path d="M351.802 85.6597C351.796 85.6608 351.789 85.6608 351.783 85.6597C351.77 85.6546 351.758 85.6443 351.752 85.6311C351.746 85.6179 351.745 85.6028 351.75 85.589L352.277 84.1161H344.261L343.611 85.5968C343.609 85.6048 343.606 85.6123 343.601 85.6187C343.596 85.6252 343.589 85.6304 343.582 85.6341C343.575 85.6377 343.567 85.6398 343.558 85.64C343.55 85.6401 343.542 85.6384 343.535 85.635C343.527 85.6317 343.521 85.6268 343.515 85.6205C343.51 85.6143 343.506 85.607 343.504 85.5991C343.502 85.5912 343.502 85.5829 343.503 85.5749C343.505 85.5668 343.508 85.5593 343.513 85.5527L344.178 84.0386C344.182 84.0286 344.189 84.0201 344.198 84.0141C344.207 84.0082 344.218 84.005 344.229 84.0051H352.36C352.369 84.0051 352.377 84.0072 352.385 84.0112C352.393 84.0153 352.4 84.0212 352.405 84.0284C352.41 84.0356 352.414 84.0439 352.415 84.0527C352.416 84.0615 352.415 84.0704 352.412 84.0787L351.858 85.6293C351.853 85.6395 351.845 85.6477 351.835 85.6531C351.825 85.6586 351.813 85.661 351.802 85.6597Z" fill="white"/>
<path d="M361.582 85.803C361.568 85.8029 361.556 85.7982 361.546 85.7895C361.536 85.7809 361.529 85.7689 361.527 85.7558L358.701 65.8708C358.7 65.8636 358.7 65.8562 358.702 65.8492C358.704 65.8421 358.707 65.8355 358.711 65.8296C358.716 65.8238 358.721 65.8188 358.727 65.8151C358.734 65.8114 358.741 65.809 358.748 65.8079C358.755 65.8069 358.763 65.8073 358.77 65.8091C358.777 65.8109 358.783 65.8141 358.789 65.8185C358.795 65.8229 358.8 65.8284 358.804 65.8347C358.807 65.8409 358.81 65.8479 358.811 65.8551L361.637 85.7401C361.639 85.7547 361.635 85.7694 361.626 85.7811C361.617 85.7929 361.604 85.8008 361.59 85.803H361.582Z" fill="white"/>
<path d="M402.149 94.8357H332.875C332.443 94.8357 332.028 94.6641 331.723 94.3586C331.417 94.0531 331.245 93.6388 331.245 93.2067C331.245 92.7747 331.417 92.3603 331.723 92.0548C332.028 91.7493 332.443 91.5776 332.875 91.5776H402.148C402.58 91.5776 402.994 91.7493 403.3 92.0548C403.606 92.3603 403.777 92.7747 403.777 93.2067C403.777 93.6388 403.606 94.0531 403.3 94.3586C402.994 94.6641 402.58 94.8357 402.148 94.8357H402.149ZM332.875 91.8585C332.695 91.8536 332.515 91.8849 332.348 91.9504C332.18 92.016 332.027 92.1145 331.898 92.2401C331.769 92.3658 331.666 92.5159 331.596 92.6818C331.526 92.8478 331.49 93.0261 331.49 93.2062C331.49 93.3863 331.526 93.5646 331.596 93.7305C331.666 93.8964 331.769 94.0466 331.898 94.1722C332.027 94.2978 332.18 94.3964 332.348 94.4619C332.515 94.5275 332.695 94.5587 332.875 94.5539H402.148C402.499 94.5444 402.833 94.3983 403.078 94.1466C403.323 93.8949 403.46 93.5575 403.46 93.2062C403.46 92.855 403.323 92.5175 403.078 92.2658C402.833 92.0141 402.499 91.868 402.148 91.8585H332.875Z" fill="#F4B223"/>
<path d="M346.56 77.7237C347.302 77.7133 347.889 76.6023 347.87 75.2422C347.85 73.8821 347.233 72.7879 346.491 72.7983C345.749 72.8087 345.163 73.9197 345.182 75.2798C345.201 76.6399 345.818 77.7341 346.56 77.7237Z" fill="#A897F3"/>
<path d="M367.279 78.3089H367.265C367.25 78.3072 367.234 78.3024 367.221 78.2948C367.207 78.2872 367.195 78.2769 367.185 78.2646C367.175 78.2523 367.168 78.2381 367.163 78.223C367.159 78.2078 367.157 78.192 367.159 78.1764L367.552 74.6924C367.556 74.6607 367.572 74.6318 367.596 74.612C367.621 74.5921 367.653 74.5829 367.685 74.5864C367.716 74.5899 367.745 74.6058 367.765 74.6307C367.785 74.6555 367.794 74.6874 367.791 74.719L367.398 78.2038C367.394 78.2328 367.38 78.2595 367.358 78.2789C367.336 78.2982 367.308 78.3089 367.279 78.3089Z" fill="#E57281"/>
</g>
<path d="M703.06 484.068L619.808 208.881C618.997 206.21 617.347 203.87 615.104 202.208C612.86 200.546 610.14 199.649 607.348 199.651H102.059C99.2369 199.652 96.4919 200.57 94.2375 202.266C91.9831 203.963 90.3415 206.346 89.5603 209.056L10.119 484.068" stroke="#3A9EFD" stroke-width="3" stroke-miterlimit="10"/>
<path d="M729.287 390.668L646.034 115.481C645.223 112.81 643.574 110.47 641.33 108.808C639.086 107.146 636.367 106.249 633.574 106.251H128.285C125.463 106.252 122.718 107.17 120.464 108.866C118.21 110.563 116.568 112.946 115.787 115.656L36.3455 390.668" stroke="#3A9EFD" stroke-width="3" stroke-miterlimit="10"/>
<path d="M274.411 166.8L256.317 204.024H201.643L223.614 166.8H274.411Z" fill="white" stroke="#35D4D9" stroke-width="3" stroke-miterlimit="10"/>
<path d="M262.424 175.881C262.424 175.881 260.045 171.817 254.332 172.866C250.061 173.634 245 177.154 241.894 175.263C238.788 173.372 236.031 171.013 232.004 172.137C229.51 172.851 227.145 173.957 224.998 175.413" stroke="#35D4D9" stroke-width="3" stroke-miterlimit="10"/>
<path d="M260.55 181.686C260.55 181.686 258.171 177.622 252.458 178.671C248.188 179.439 243.127 182.959 240.021 181.068C236.915 179.177 234.158 176.817 230.132 177.941C227.638 178.655 225.273 179.761 223.126 181.217" stroke="#35D4D9" stroke-width="3" stroke-miterlimit="10"/>
<path d="M293.561 368.743C293.561 380.036 264.478 389.174 228.055 389.174C191.633 389.174 163.423 387.836 163.423 376.542C163.423 365.248 191.633 348.311 228.055 348.311C264.478 348.311 293.561 357.49 293.561 368.743Z" fill="#363636"/>
<path d="M286.981 327.774V392.372L285.016 383.044C284.344 379.876 282.971 376.898 280.998 374.329C279.026 371.76 276.503 369.665 273.616 368.196C270.728 366.727 267.548 365.923 264.31 365.842C261.071 365.76 257.855 366.404 254.897 367.726C254.799 367.763 254.71 367.824 254.598 367.857L247.386 341.568L243.378 326.944C250.054 325.455 256.879 324.739 263.719 324.81C272.933 324.816 281.231 325.958 286.981 327.774Z" fill="#E3B3A4"/>
<path d="M286.98 327.774V339.945C281.23 341.762 272.934 342.904 263.716 342.904C258.245 342.926 252.781 342.487 247.383 341.593L243.375 326.969C250.051 325.48 256.876 324.764 263.716 324.834C272.932 324.816 281.23 325.958 286.98 327.774Z" fill="#BF9386"/>
<path d="M247.57 373.105L243.248 377.955C240.856 380.633 239.375 384.001 239.018 387.574C238.661 391.147 239.447 394.742 241.263 397.84L260.312 430.495C262.142 433.629 264.762 436.229 267.91 438.036C271.059 439.843 274.626 440.794 278.256 440.793H286.142C287.478 440.795 288.798 440.498 290.004 439.924C291.211 439.35 292.274 438.514 293.116 437.477C293.958 436.439 294.558 435.227 294.871 433.928C295.184 432.629 295.203 431.277 294.926 429.97L284.998 383.066C283.97 378.197 281.298 373.829 277.431 370.696C273.564 367.563 268.736 365.855 263.758 365.858C260.7 365.853 257.677 366.496 254.886 367.745C252.096 368.994 249.602 370.821 247.57 373.105Z" fill="#25272B" stroke="#25272B" stroke-width="3" stroke-miterlimit="10"/>
<path d="M262.311 387.225L286.904 434.86C287.842 436.728 289.325 438.269 291.157 439.278C289.674 440.278 287.926 440.812 286.137 440.813H278.252C274.621 440.814 271.054 439.864 267.905 438.057C264.757 436.25 262.137 433.649 260.308 430.515L241.259 397.84C240.501 396.535 239.916 395.138 239.517 393.683C236.82 383.668 248.227 375.801 256.787 381.68C258.956 383.171 260.829 385.051 262.311 387.225Z" fill="#F5F5F5"/>
<path d="M262.367 387.337H239.665C239.774 386.992 239.905 386.654 240.058 386.326H261.637C261.862 386.62 262.086 386.925 262.31 387.243L262.367 387.337Z" fill="#25272B"/>
<path d="M265.702 393.778H239.554C239.55 393.745 239.543 393.713 239.535 393.68C239.461 393.381 239.386 393.063 239.329 392.763H265.196L265.702 393.778Z" fill="#25272B"/>
<path d="M269.036 400.239H242.663L242.064 399.208H268.511L269.036 400.239Z" fill="#25272B"/>
<path d="M272.37 406.698H246.428L245.829 405.667H271.846L272.37 406.698Z" fill="#25272B"/>
<path d="M275.704 413.139H250.193L249.594 412.128H275.18L275.704 413.139Z" fill="#25272B"/>
<path d="M279.039 419.599H253.958L253.358 418.569H278.495L279.039 419.599Z" fill="#25272B"/>
<path d="M282.373 426.059H257.723L257.124 425.029H281.83L282.373 426.059Z" fill="#25272B"/>
<path d="M285.688 432.501H261.637C261.394 432.163 261.146 431.826 260.925 431.489H285.163L285.688 432.501Z" fill="#25272B"/>
<path d="M290.614 438.959H269.708C269.034 438.659 268.379 438.322 267.743 437.948H289.265C289.689 438.317 290.14 438.655 290.614 438.959Z" fill="#25272B"/>
<path d="M214.078 338.99L213.98 343.615L213.081 388.76V387.449C213.08 381.882 210.868 376.544 206.931 372.608C202.993 368.672 197.653 366.46 192.084 366.459H190.807C185.156 366.449 179.715 368.599 175.598 372.469L172.848 353.857L171.144 342.341C176.309 343.163 181.532 343.564 186.761 343.539C198.454 343.521 208.628 341.686 214.078 338.99Z" fill="#E3B3A4"/>
<path d="M214.078 338.99L213.979 343.615C207.011 348.559 185.494 354.644 172.866 353.839L171.162 342.322C176.328 343.135 181.55 343.536 186.78 343.521C198.456 343.521 208.627 341.686 214.078 338.99Z" fill="#BF9386"/>
<path d="M193.044 441.412H196.528C200.919 441.41 205.13 439.666 208.235 436.562C211.34 433.458 213.085 429.249 213.086 424.859V387.448C213.085 381.881 210.873 376.543 206.935 372.607C202.998 368.671 197.658 366.459 192.089 366.458H190.812C187.635 366.458 184.494 367.138 181.601 368.452C178.708 369.766 176.13 371.684 174.04 374.077C171.95 376.47 170.396 379.282 169.483 382.324C168.571 385.367 168.32 388.57 168.748 391.717L173.149 424.073C173.811 428.878 176.191 433.281 179.848 436.468C183.505 439.655 188.192 441.411 193.044 441.412Z" fill="#25272B" stroke="#25272B" stroke-width="3" stroke-miterlimit="10"/>
<path d="M207.879 436.9C204.812 439.8 200.75 441.416 196.528 441.417H193.044C188.194 441.418 183.508 439.662 179.854 436.474C176.2 433.286 173.826 428.882 173.171 424.078L168.77 391.722C168.695 391.105 168.619 390.487 168.601 389.887C169.159 386.36 170.958 383.148 173.674 380.828C176.39 378.509 179.844 377.235 183.417 377.235C186.989 377.235 190.444 378.509 193.16 380.828C195.876 383.148 197.674 386.36 198.233 389.887L204.02 429.377C204.436 432.243 205.794 434.89 207.879 436.9Z" fill="#F5F5F5"/>
<path d="M196.489 384.883H170.323C170.513 384.533 170.726 384.195 170.959 383.872H195.872C196.099 384.195 196.306 384.533 196.489 384.883Z" fill="#25272B"/>
<path d="M198.438 391.325H168.716C168.679 390.988 168.642 390.651 168.618 390.313H198.287L198.438 391.325Z" fill="#25272B"/>
<path d="M199.393 397.785H169.592L169.442 396.773H199.243L199.393 397.785Z" fill="#25272B"/>
<path d="M200.33 404.244H170.469L170.319 403.214H200.18L200.33 404.244Z" fill="#25272B"/>
<path d="M201.285 410.684H171.353L171.203 409.673H201.135L201.285 410.684Z" fill="#25272B"/>
<path d="M202.222 417.145H172.215L172.083 416.134H202.072L202.222 417.145Z" fill="#25272B"/>
<path d="M203.176 423.605H173.094L172.964 422.575H203.027L203.176 423.605Z" fill="#25272B"/>
<path d="M204.132 430.047H174.949C174.781 429.71 174.631 429.373 174.499 429.036H203.967L204.023 429.372L204.132 430.047Z" fill="#25272B"/>
<path d="M207.485 436.506H179.895C179.521 436.188 179.145 435.831 178.808 435.495H206.624C206.891 435.849 207.178 436.186 207.485 436.506Z" fill="#25272B"/>
<path d="M231.875 130.194V256.47C230.507 252.893 219.681 253.399 207.768 257.911C197.559 261.787 189.899 267.105 188.775 270.794V131.674C188.776 125.331 190.427 119.097 193.566 113.585C196.706 108.074 201.226 103.473 206.682 100.235C213.736 101.468 220.129 105.148 224.737 110.627C229.345 116.107 231.872 123.035 231.875 130.194Z" fill="#25272B"/>
<path d="M187.95 101.658C183.104 105.022 179.145 109.51 176.412 114.737C173.678 119.964 172.252 125.775 172.254 131.674V168.28H118.928L126.289 136.598C127.812 130.03 130.957 123.949 135.437 118.909C139.916 113.869 145.587 110.031 151.932 107.746L187.95 101.658Z" fill="#25272B"/>
<path d="M295.805 258.344L293.427 368.615C293.427 363.616 253.177 357.118 222.989 357.118C192.802 357.118 163.399 372.225 163.399 377.224L165.774 305.223C165.771 304.429 165.455 303.669 164.893 303.107C164.332 302.546 163.571 302.23 162.777 302.227L186.727 293.617H133.649C126.924 293.617 120.286 292.1 114.23 289.178C108.174 286.256 102.856 282.004 98.6724 276.741C94.4892 271.478 91.5488 265.338 90.0705 258.78C88.5922 252.222 88.6141 245.415 90.1347 238.867L113.211 139.477C115.01 131.723 119.062 124.675 124.858 119.218C130.653 113.76 137.934 110.138 145.784 108.806L151.928 107.758C139.191 112.345 145.707 123.952 142.58 137.452L126.286 165.529L179.07 155.139L172.251 131.671C172.251 125.773 173.678 119.962 176.411 114.736C179.145 109.509 183.103 105.021 187.947 101.655L196.376 100.232C198.077 99.9416 199.801 99.7973 201.527 99.8011H202.182C202.388 99.8011 202.594 99.8197 202.781 99.8197H202.893C203.044 99.8197 203.211 99.8384 203.362 99.8384H203.436C203.535 99.8384 203.624 99.8571 203.699 99.8571C203.868 99.8757 204.017 99.8758 204.19 99.8944L204.77 99.9503L205.314 100.006C205.351 100.006 205.388 100.025 205.445 100.025C205.633 100.044 205.838 100.081 206.026 100.1H206.063C206.269 100.137 206.476 100.156 206.681 100.198C201.225 103.435 196.705 108.036 193.566 113.548C190.426 119.06 188.775 125.293 188.774 131.636L190.573 216.383L259.089 221.607C268.828 221.621 278.164 225.497 285.048 232.384C291.931 239.272 295.8 248.608 295.805 258.344Z" fill="#25272B"/>
<path d="M232.247 285.322C232.245 274.899 235.934 264.811 242.659 256.846" stroke="#1A1A1A" stroke-width="3" stroke-miterlimit="10" stroke-linecap="round"/>
<path d="M190.651 260.815L199.994 170.1" stroke="#1A1A1A" stroke-width="3" stroke-linecap="round"/>
<path d="M238.523 277.892V279.877C237.891 279.726 237.243 279.651 236.594 279.652H234.177C232.475 279.648 230.814 279.122 229.421 278.144C228.027 277.166 226.967 275.784 226.385 274.185L233.24 273.267C233.899 273.18 234.57 273.234 235.206 273.426C235.843 273.618 236.431 273.944 236.931 274.382C237.431 274.82 237.832 275.36 238.107 275.965C238.381 276.571 238.523 277.228 238.523 277.892Z" fill="#1A1A1A"/>
<path d="M244.855 287.911V303.152C244.855 303.998 244.689 304.836 244.365 305.618C244.041 306.399 243.566 307.109 242.968 307.707C242.37 308.306 241.659 308.78 240.878 309.104C240.096 309.427 239.258 309.594 238.411 309.594H231.241C230.394 309.598 229.556 309.433 228.774 309.108C227.992 308.783 227.283 308.305 226.689 307.703C226.09 307.106 225.614 306.397 225.29 305.616C224.965 304.835 224.798 303.998 224.797 303.152H229.461C229.825 303.153 230.186 303.082 230.523 302.943C230.859 302.804 231.165 302.6 231.423 302.343C231.68 302.085 231.885 301.779 232.024 301.443C232.163 301.106 232.234 300.746 232.233 300.381V296.393C232.234 296.029 232.163 295.668 232.024 295.331C231.885 294.995 231.68 294.689 231.423 294.432C231.165 294.174 230.859 293.97 230.523 293.831C230.186 293.692 229.825 293.621 229.461 293.622H205.617C201.146 293.621 196.859 291.846 193.697 288.685C190.536 285.525 188.76 281.239 188.759 276.77V275.545C189.883 271.857 197.544 266.521 207.752 262.663C214.72 260.022 221.332 258.75 225.884 258.862V271.395C225.885 273.59 226.757 275.694 228.309 277.246C229.862 278.798 231.967 279.67 234.162 279.671H236.579C237.664 279.666 238.74 279.875 239.744 280.287C240.748 280.699 241.661 281.305 242.43 282.071C243.2 282.837 243.81 283.747 244.226 284.749C244.642 285.751 244.856 286.826 244.855 287.911Z" fill="#E3B3A4"/>
<path d="M231.874 258.045C233.241 261.621 224.588 267.969 212.694 272.479C200.799 276.989 190.142 277.683 188.774 274.089C187.407 270.496 195.855 264.016 207.768 259.503C219.68 254.99 230.507 254.449 231.874 258.045Z" fill="#1A1A1A"/>
<path d="M225.881 258.053V268.24C221.741 270.927 217.311 273.138 212.675 274.831C200.763 279.348 190.124 280.035 188.756 276.441V274.737C189.88 271.048 197.541 265.712 207.749 261.854C214.736 259.215 221.329 257.941 225.881 258.053Z" fill="#3B3B3B"/>
<path d="M194.732 83.5139L187.689 101.658L151.388 108.155L160.866 83.5139H194.732Z" fill="#A0505A"/>
<path d="M194.73 83.5139L190.928 93.3253L154.927 98.9429L160.865 83.5139H194.73Z" fill="#73325A"/>
<path d="M216.008 46.5895C216.008 49.0443 211.756 51.7574 206.849 54.0413C202.11 56.1752 197.243 58.0135 192.276 59.546L186.956 69.5616C194.186 73.4 197.014 80.2912 198.138 85.1026C198.556 86.8272 198.795 88.5902 198.85 90.3638H147.869C147.869 90.3638 134.477 46.998 166.75 36.6249C186.49 30.2777 216.008 40.7667 216.008 46.5895Z" fill="#E8E8E8"/>
<path d="M198.126 85.1045C197.077 80.5542 194.455 74.0755 187.993 70.1625H186.323C185.584 70.1723 184.85 70.0352 184.164 69.7592C183.478 69.4832 182.854 69.0737 182.328 68.5546C181.802 68.0355 181.384 67.4171 181.099 66.7352C180.814 66.0534 180.667 65.3217 180.667 64.5827C180.667 63.8436 180.814 63.112 181.099 62.4301C181.384 61.7483 181.802 61.1298 182.328 60.6107C182.854 60.0916 183.478 59.6822 184.164 59.4062C184.85 59.1302 185.584 58.9931 186.323 59.0029L193.385 59.1531H193.572C193.703 59.1158 193.835 59.0549 193.985 59.0225C198.464 58.0558 202.818 56.5856 206.966 54.6401L207.547 58.1044L209.42 69.208C210.015 72.8111 209.162 76.5033 207.047 79.4807C204.932 82.458 201.725 84.4793 198.126 85.1045Z" fill="#E3B3A4"/>
<path d="M207.525 58.0857C201.381 60.5759 193.364 59.1344 193.364 59.1344C198.002 57.4949 202.548 55.6059 206.981 53.4756L207.525 58.0857Z" fill="#E3B3A4"/>
<path d="M190.667 65.6505C190.668 65.1438 190.568 64.642 190.375 64.1737C190.181 63.7055 189.897 63.28 189.538 62.9217C189.18 62.5635 188.754 62.2794 188.286 62.0857C187.818 61.8921 187.316 61.7928 186.809 61.7935" fill="#E3B3A4"/>
<path d="M190.667 65.6505C190.668 65.1438 190.568 64.642 190.375 64.1737C190.181 63.7055 189.897 63.28 189.538 62.9217C189.18 62.5635 188.754 62.2794 188.286 62.0857C187.818 61.8921 187.316 61.7928 186.809 61.7935" stroke="#73325A" stroke-width="3" stroke-miterlimit="10" stroke-linecap="round"/>
<path d="M210.502 303.152L232.248 484.067" stroke="#3A9EFD" stroke-width="3" stroke-miterlimit="10"/>
<path d="M116.228 303.152L94.5008 484.067" stroke="#3A9EFD" stroke-width="3" stroke-miterlimit="10"/>
<path d="M101.957 421.939H224.775" stroke="#3A9EFD" stroke-width="3" stroke-miterlimit="10"/>
<path d="M97.3319 303.151H229.403C230.158 303.151 230.883 302.852 231.417 302.317C231.951 301.783 232.251 301.059 232.251 300.304V296.45C232.251 295.695 231.951 294.97 231.417 294.436C230.883 293.902 230.158 293.602 229.403 293.602H97.3319C96.5764 293.602 95.8518 293.902 95.3176 294.436C94.7834 294.97 94.4833 295.695 94.4833 296.45V300.307C94.4897 301.06 94.792 301.78 95.3249 302.312C95.8578 302.844 96.5787 303.146 97.3319 303.151Z" fill="white" stroke="#FFCF2D" stroke-width="3" stroke-miterlimit="10"/>
<path d="M195.381 85.5375C197.941 62.808 206.328 54.8576 207.811 53.5184C207.074 46.2921 199.636 35.2779 192.251 33.0003C181.752 53.3099 195.381 85.5375 195.381 85.5375Z" fill="#E8E8E8"/>
<g style="mix-blend-mode:multiply">
<path d="M196.06 80.6397C195.575 70.4701 195.724 60.2801 196.506 50.129C197.306 43.4955 199.233 39.8934 199.04 37.3667C198.821 37.1559 198.601 36.949 198.379 36.7498C196.583 38.7337 191.948 43.9746 190.329 47.146C188.405 50.9115 191.731 76.2326 195.467 84.839C195.64 83.3767 195.837 81.9769 196.06 80.6397Z" fill="#B3B3B3"/>
</g>
<path d="M195.565 51.3378C194.442 66.0214 195.545 81.5758 198.369 92.7535C201.05 103.37 203.192 98.2887 209.48 100.826C214.104 102.697 231.262 109.248 231.374 123.396C219.199 116.975 216.111 123.431 202.74 151.254C189.369 179.078 192.47 212.015 180.696 226.191C168.922 240.368 143.783 238.683 137.023 233.391C131.961 229.427 131.065 224.314 136.119 204.759C141.005 185.864 138.455 162.093 136.369 136.198C134.283 110.303 125.959 72.4804 135.114 46.8048C143.286 23.8866 163.747 22.978 181.424 26.9486C187.523 28.4072 193.701 29.5084 199.927 30.2466C200.388 37.0416 196.206 42.9469 195.565 51.3378Z" fill="#25272B"/>
<g style="mix-blend-mode:multiply">
<g style="mix-blend-mode:multiply">
<path d="M200.584 115.904C189.338 119.965 187.695 132.481 183.25 167.434C180.391 189.911 172.571 207.961 171.616 208.503C177.222 191.532 180.157 178 182.94 153.664C185.724 129.328 190.108 117.235 200.584 115.904Z" fill="#CFCCC6"/>
</g>
<g style="mix-blend-mode:multiply">
<path d="M161.313 157.111C163.175 183.597 153.077 218.887 149.876 218.762C146.675 218.638 152.969 212.182 156.888 195.462C160.807 178.742 160.783 162.424 160.136 159.129C159.303 154.918 161.096 154.028 161.313 157.111Z" fill="#CFCCC6"/>
</g>
<g style="mix-blend-mode:multiply">
<path d="M143.777 184.637C144.461 188.764 144.436 192.977 143.703 197.095C142.919 201.903 140.971 206.356 139.616 211.009C138.903 213.42 138.347 215.875 137.951 218.358C137.469 220.621 137.373 222.949 137.665 225.244C138.073 227.374 139.473 228.713 141.242 229.849C143.278 231.093 145.516 231.971 147.854 232.442C150.079 232.919 152.349 233.156 154.624 233.15C155.578 233.162 156.532 233.113 157.48 233.004C157.595 232.99 158.175 232.791 158.146 233.056C158.13 233.208 157.533 233.345 157.382 233.396C153.201 234.682 148.735 234.721 144.531 233.509C141.589 232.672 138.047 230.921 136.605 228.015C134.466 223.708 136.679 218.353 138.033 214.152C138.805 211.775 139.52 209.381 140.071 206.937C140.607 204.562 140.986 202.151 141.448 199.761C142.381 195.35 143.053 190.887 143.462 186.397C143.489 185.99 143.511 185.582 143.541 185.175C143.557 184.982 143.469 184.561 143.777 184.637Z" fill="#CFCCC6"/>
</g>
<g style="mix-blend-mode:multiply">
<path d="M146.122 102.662C153.651 126.694 151.725 173.287 149.336 183.743C147.042 181.145 149.25 164.469 149.988 151.374C150.726 138.279 148.112 123.812 146.768 116.754C145.425 109.697 145.211 99.7563 146.122 102.662Z" fill="#CFCCC6"/>
</g>
<g style="mix-blend-mode:multiply">
<path d="M221.415 123.176C219.41 113.334 211.13 108.229 207.61 106.767C202.164 104.505 200.139 99.6618 197.85 90.1132C196.133 82.3139 195.237 74.356 195.177 66.3699C193.621 83.1458 197.697 106.136 203.123 107.066C208.962 108.068 216.414 111.361 221.415 123.176Z" fill="#CFCCC6"/>
</g>
</g>
<path d="M335.386 163.008H386.261V206.69H335.386V163.008Z" fill="#FFCF2D"/>
<path d="M474.831 199.267H353.606C352.928 199.267 352.262 199.085 351.678 198.74C351.094 198.395 350.614 197.9 350.287 197.306C349.96 196.712 349.798 196.041 349.819 195.363C349.84 194.686 350.042 194.026 350.405 193.454L366.542 168.119C367.572 166.501 368.993 165.168 370.675 164.244C372.357 163.321 374.245 162.836 376.164 162.836H458.215L474.831 199.267Z" fill="#E3B3A4"/>
<path d="M370.735 182.264H355.545C355.041 182.265 354.547 182.399 354.111 182.651C353.676 182.904 353.314 183.267 353.064 183.703L351.453 186.505C351.207 186.939 351.078 187.43 351.08 187.929C351.083 188.428 351.216 188.918 351.468 189.349C351.719 189.78 352.079 190.138 352.511 190.386C352.944 190.635 353.435 190.766 353.934 190.765H366.151C367.196 190.765 368.223 190.497 369.135 189.987C370.047 189.476 370.813 188.74 371.359 187.85L372.666 185.709C372.874 185.366 372.986 184.973 372.993 184.572C372.999 184.171 372.899 183.775 372.703 183.425C372.507 183.075 372.221 182.783 371.875 182.58C371.53 182.376 371.136 182.267 370.735 182.264Z" fill="#E57281"/>
<path d="M366.814 190.766H351.623C351.119 190.767 350.625 190.9 350.19 191.153C349.754 191.406 349.393 191.769 349.142 192.205L347.532 195.007C347.285 195.441 347.156 195.932 347.158 196.431C347.161 196.93 347.294 197.42 347.545 197.851C347.797 198.283 348.157 198.641 348.59 198.889C349.023 199.138 349.513 199.268 350.013 199.268H362.229C363.274 199.268 364.302 199 365.214 198.489C366.126 197.979 366.892 197.243 367.438 196.352L368.745 194.213C368.955 193.87 369.07 193.477 369.077 193.075C369.085 192.673 368.986 192.276 368.789 191.924C368.593 191.573 368.306 191.281 367.959 191.078C367.612 190.874 367.217 190.766 366.814 190.766Z" fill="#E57281"/>
<path d="M375.071 173.649H359.881C359.377 173.65 358.883 173.783 358.447 174.036C358.012 174.289 357.651 174.652 357.4 175.088L355.791 177.891C355.544 178.325 355.415 178.816 355.418 179.315C355.42 179.814 355.554 180.303 355.805 180.735C356.056 181.166 356.416 181.524 356.849 181.772C357.282 182.021 357.772 182.151 358.271 182.151H370.488C371.533 182.151 372.561 181.883 373.473 181.372C374.385 180.862 375.15 180.126 375.696 179.235L377.004 177.096C377.214 176.753 377.328 176.36 377.336 175.957C377.344 175.555 377.244 175.158 377.047 174.807C376.851 174.456 376.564 174.163 376.216 173.96C375.869 173.756 375.474 173.649 375.071 173.649Z" fill="#E57281"/>
<path d="M370.735 182.264H355.545C355.041 182.265 354.547 182.399 354.111 182.651C353.676 182.904 353.314 183.267 353.064 183.703L351.453 186.505C351.207 186.939 351.078 187.43 351.08 187.929C351.083 188.428 351.216 188.918 351.468 189.349C351.719 189.78 352.079 190.138 352.511 190.386C352.944 190.635 353.435 190.766 353.934 190.765H366.151C367.196 190.765 368.223 190.497 369.135 189.987C370.047 189.476 370.813 188.74 371.359 187.85L372.666 185.709C372.874 185.366 372.986 184.973 372.993 184.572C372.999 184.171 372.899 183.775 372.703 183.425C372.507 183.075 372.221 182.783 371.875 182.58C371.53 182.376 371.136 182.267 370.735 182.264V182.264Z" stroke="#9A3B82" stroke-width="3" stroke-miterlimit="10" stroke-linecap="round"/>
<path d="M366.814 190.766H351.623C351.119 190.767 350.625 190.9 350.19 191.153C349.754 191.406 349.393 191.769 349.142 192.205L347.532 195.007C347.285 195.441 347.156 195.932 347.158 196.431C347.161 196.93 347.294 197.42 347.545 197.851C347.797 198.283 348.157 198.641 348.59 198.889C349.023 199.138 349.513 199.268 350.013 199.268H362.229C363.274 199.268 364.302 199 365.214 198.489C366.126 197.979 366.892 197.243 367.438 196.352L368.745 194.213C368.955 193.87 369.07 193.477 369.077 193.075C369.085 192.673 368.986 192.276 368.789 191.924C368.593 191.573 368.306 191.281 367.959 191.078C367.612 190.874 367.217 190.766 366.814 190.766Z" stroke="#9A3B82" stroke-width="3" stroke-miterlimit="10" stroke-linecap="round"/>
<path d="M375.071 173.649H359.881C359.377 173.65 358.883 173.783 358.447 174.036C358.012 174.289 357.651 174.652 357.4 175.088L355.791 177.891C355.544 178.325 355.415 178.816 355.418 179.315C355.42 179.814 355.554 180.303 355.805 180.735C356.056 181.166 356.416 181.524 356.849 181.772C357.282 182.021 357.772 182.151 358.271 182.151H370.488C371.533 182.151 372.561 181.883 373.473 181.372C374.385 180.862 375.15 180.126 375.696 179.235L377.004 177.096C377.214 176.753 377.328 176.36 377.336 175.957C377.344 175.555 377.244 175.158 377.047 174.807C376.851 174.456 376.564 174.163 376.216 173.96C375.869 173.756 375.474 173.649 375.071 173.649V173.649Z" stroke="#9A3B82" stroke-width="3" stroke-miterlimit="10" stroke-linecap="round"/>
<path d="M397.86 186.317C393.297 186.319 388.888 184.663 385.454 181.659L379.696 176.622H374.392L373.029 178.08C371.901 179.367 370.512 180.399 368.954 181.107C367.396 181.815 365.706 182.184 363.994 182.188H361.456C361.154 182.188 360.857 182.106 360.597 181.951C360.338 181.797 360.124 181.576 359.979 181.311C359.834 181.046 359.763 180.746 359.773 180.444C359.783 180.142 359.874 179.849 360.036 179.594L366.419 169.597H397.88V186.316L397.86 186.317Z" fill="#E3B3A4"/>
<path d="M365.621 169.598L359.239 179.595C359.076 179.85 358.986 180.144 358.976 180.446C358.966 180.748 359.037 181.047 359.182 181.312C359.327 181.577 359.541 181.798 359.801 181.953C360.061 182.107 360.357 182.189 360.66 182.189H363.198C364.91 182.189 366.602 181.822 368.161 181.114C369.719 180.405 371.108 179.371 372.233 178.081L373.596 176.623H378.9L384.658 181.66C388.095 184.659 392.502 186.314 397.064 186.318" stroke="#DCAB9B" stroke-width="3" stroke-miterlimit="10" stroke-linecap="round"/>
</g>
</svg>
