<svg width="163" height="160" viewBox="0 0 163 160" fill="none" xmlns="http://www.w3.org/2000/svg">
<path d="M161.05 98.0259C160.239 111.398 153.499 124.76 142.45 132.113C129.279 140.879 110.863 138.938 95.864 140.056C82.897 141.021 69.832 141.856 56.864 140.471C46.236 139.338 35.5169 135.128 30.4389 124.81C25.3529 114.469 24.8019 100.728 29.8889 90.2619C31.5028 86.9681 33.6463 83.9615 36.234 81.3619C36.649 80.9369 37.0799 80.5219 37.5189 80.1169C37.8189 79.8439 38.1189 79.5729 38.4189 79.3099C38.8869 78.9049 39.368 78.5099 39.855 78.1239C40.016 77.9989 40.178 77.8729 40.343 77.7479C40.508 77.6229 40.669 77.5009 40.834 77.3789C40.999 77.2569 41.163 77.135 41.334 77.016L41.709 76.75C41.917 76.6013 42.1279 76.4563 42.3419 76.3149C44.235 75.0407 46.224 73.915 48.291 72.948C50.2802 72.0103 52.3321 71.212 54.432 70.5589C61.255 68.4409 68.3799 67.6899 75.4209 66.7639C90.4174 64.9065 105.519 64.0313 120.63 64.1439C132.918 64.1439 146.755 65.9859 154.971 76.5349C159.607 82.4929 161.515 90.4099 161.05 98.0259Z" stroke="#FE5244" stroke-width="2"/>
<path d="M135.337 75.4429C135.337 75.4429 138.507 72.465 140.186 70.743C141.865 69.021 138.201 68.964 136.395 71.112C135.874 71.6899 135.504 72.3882 135.32 73.1441C135.135 73.9 135.141 74.6899 135.337 75.4429Z" fill="#F9B384"/>
<g opacity="0.07">
<path opacity="0.07" d="M47.877 72.95C45.8101 73.9171 43.8211 75.0429 41.9279 76.317C41.7133 76.459 41.5023 76.604 41.295 76.752L40.919 77.0179C40.752 77.1369 40.586 77.259 40.419 77.381C40.252 77.503 40.0899 77.624 39.9279 77.75C39.7659 77.876 39.602 78 39.441 78.126C38.96 78.508 38.489 78.9 38.024 79.302L38.004 79.312C37.697 79.576 37.3979 79.8459 37.1039 80.1189C36.6659 80.5239 36.2339 80.939 35.8189 81.364C35.8303 81.5422 35.8982 81.7122 36.0128 81.8492C36.1273 81.9863 36.2826 82.0832 36.456 82.126C38.929 82.626 40.1669 84.9849 42.1559 86.3259C42.8603 86.8194 43.6709 87.1399 44.5223 87.2615C45.3736 87.3832 46.2417 87.3024 47.056 87.0259C45.256 90.8419 44.256 94.6259 45.038 98.8989C45.2771 100.191 45.6824 101.447 46.244 102.635C43.929 100.915 41.6979 97.2349 40.7809 93.4949C40.7508 93.368 40.6957 93.2483 40.6187 93.1429C40.5418 93.0376 40.4445 92.9486 40.3328 92.8812C40.2211 92.8138 40.0971 92.7693 39.968 92.7504C39.8389 92.7314 39.7074 92.7384 39.581 92.7709C39.4545 92.8018 39.3352 92.8574 39.2303 92.9346C39.1253 93.0117 39.0367 93.1088 38.9694 93.2203C38.9021 93.3319 38.8575 93.4556 38.8382 93.5844C38.8189 93.7132 38.8253 93.8446 38.857 93.9709C39.993 98.5969 42.884 103.041 45.888 104.778C46.5545 105.172 47.2865 105.443 48.049 105.578C48.6434 106.342 49.3095 107.047 50.038 107.684L54.4789 108.926L58.103 85.5359L47.877 72.95Z" fill="#B35341"/>
</g>
<path d="M60.745 88.659C53.9726 86.0932 47.5126 82.7683 41.4889 78.748C40.3151 77.9424 39.3972 76.8171 38.844 75.5054C38.2908 74.1937 38.1256 72.7507 38.3679 71.3479L43.1029 43.7479C43.3405 42.3486 43.9243 41.0309 44.801 39.9147C45.6778 38.7985 46.8197 37.9192 48.1229 37.357C54.9962 34.4028 62.2327 32.3779 69.641 31.336C72.4136 31.1676 75.1952 31.2225 77.959 31.5C81.027 31.8 88.051 33.8729 92.516 35.2589C93.7603 35.6454 94.9012 36.308 95.8535 37.1972C96.8059 38.0863 97.5451 39.1791 98.016 40.3939C99.888 45.2199 102.929 53.368 103.898 57.772C107.248 72.981 106.698 71.855 106.698 71.855L110.157 95.245L73.4249 97.304L64.0359 93.021L60.745 88.659Z" fill="#708CD5"/>
<path d="M83.4759 5.06303C83.4759 5.06303 80.223 -1.60801 71.576 1.43999C65.317 0.0809876 60.5399 7.49305 65.1519 17.5831L73.8409 19.6L83.4759 5.06303Z" fill="#31006F"/>
<path d="M78.865 23.9229V35.7229C78.865 37.049 78.3382 38.3207 77.4005 39.2584C76.4629 40.1961 75.1911 40.7229 73.865 40.7229C72.0678 40.7229 70.3442 40.009 69.0733 38.7383C67.8024 37.4676 67.0882 35.7441 67.0879 33.9469V23.9219L78.865 23.9229Z" fill="#F9B384"/>
<path d="M78.865 28.8188V35.2559C73.617 35.2819 70.135 28.4958 70.135 28.4958L78.865 28.8188Z" fill="#E28B6D"/>
<path d="M84.056 22.4379C83.7601 24.0783 83.2849 25.6812 82.639 27.2179C81.506 29.8039 79.776 31.774 77.139 31.83C70.956 31.962 66.1849 23.5118 66.1849 23.5118L67.1739 11.9819L71.868 6.71094L84.7979 14.7C84.7808 17.2962 84.5326 19.8857 84.056 22.4379Z" fill="#F9B384"/>
<path d="M66.963 20.1339C67.9396 16.7555 69.9393 13.7629 72.687 11.568C72.687 11.568 79.1519 20.01 85.9869 15.933C92.8219 11.856 89.8569 3.82591 83.4749 5.06091L76.145 4.23792L66.962 7.16101L65.3969 14.3679L66.963 20.1339Z" fill="#31006F"/>
<g opacity="0.4">
<path opacity="0.4" d="M73.454 79.9349C67.225 66.4759 59.373 72.9 57.454 67.958C54.761 61.034 55.2719 53.2009 55.2539 50.8269L51.503 71.9519C51.503 71.9519 59.879 72.752 62.976 77.792L73.454 79.9349Z" fill="#1F3C88"/>
</g>
<path d="M55.4459 50.467C55.2119 52.274 54.937 54.0739 54.652 55.8719C54.367 57.6699 54.052 59.4629 53.752 61.2579C53.452 63.0529 53.111 64.8419 52.76 66.6279L52.224 69.306C52.03 70.196 51.849 71.088 51.641 71.976L51.369 71.928C51.478 71.028 51.6149 70.123 51.7369 69.22L52.152 66.52C52.436 64.72 52.7397 62.925 53.063 61.135C53.398 59.346 53.708 57.552 54.063 55.767C54.418 53.982 54.772 52.195 55.173 50.418L55.4459 50.467Z" fill="#1F3C88"/>
<path d="M91.8389 47.126C92.3389 49.473 92.798 51.826 93.249 54.183C93.7 56.54 94.121 58.8999 94.559 61.2579C94.977 63.6199 95.3853 65.9832 95.784 68.3479L96.3589 71.8999C96.5359 73.0859 96.726 74.27 96.89 75.459L96.6359 75.5039C96.3789 74.3319 96.148 73.155 95.905 71.981L95.217 68.449C94.7723 66.0923 94.3389 63.7336 93.9169 61.3729C93.5169 59.0089 93.085 56.6489 92.702 54.2809C92.319 51.9129 91.93 49.547 91.586 47.172L91.8389 47.126Z" fill="#1F3C88"/>
<g opacity="0.4">
<path opacity="0.4" d="M93.579 58.0199C94.018 62.3019 93.359 84.485 83.037 84.814L83.147 89.6459L99.3989 88.658L93.579 58.0199Z" fill="#1F3C88"/>
</g>
<path d="M72.358 84.2099C79.688 81.0799 81.089 81.1959 82.076 81.2449C85.453 81.4099 90.312 88.1629 90.312 88.1629L90.2289 89.398H71.6979L72.358 84.2099Z" fill="#E28B6D"/>
<path d="M100.553 88.1909H77.739V91.6499H100.553V88.1909Z" fill="#30242A" stroke="#F4B223"/>
<path d="M131.575 91.6519H91.932L100.832 56.226H140.474L131.575 91.6519Z" fill="#30242A" stroke="#F4B223"/>
<path d="M118.368 75.3063C118.324 75.3064 118.282 75.297 118.243 75.2789C118.203 75.2608 118.167 75.2339 118.139 75.2008C117.991 74.9748 117.599 74.3692 117.163 73.6012C117.241 73.5852 117.323 73.5676 117.411 73.5426C117.499 73.5176 117.587 73.4984 117.688 73.4674H117.709L117.758 73.4527C118.038 73.358 118.33 73.3056 118.625 73.2955C118.674 73.2955 118.726 73.2953 118.782 73.3033C118.809 73.3039 118.836 73.307 118.862 73.3131H118.877H118.887H118.907C118.934 73.3211 118.962 73.3295 118.991 73.3395C119.317 73.4649 119.615 73.6521 119.87 73.8912L119.905 73.9264L119.922 73.9391C119.943 73.9581 119.968 73.9757 119.991 73.9947C119.538 74.3947 119.071 74.8039 118.602 75.1949C118.574 75.2296 118.537 75.2578 118.497 75.277C118.456 75.2962 118.412 75.3063 118.368 75.3063ZM120.438 73.5943L120.426 73.5846C120.364 73.5366 120.302 73.4841 120.243 73.4361L120.194 73.3961L120.153 73.3639C119.864 73.0958 119.526 72.8847 119.159 72.7418L119.131 72.735H119.112H119.094C119.069 72.7269 119.042 72.7207 119.016 72.7154C118.968 72.7035 118.921 72.6957 118.872 72.693C118.809 72.6865 118.745 72.6833 118.682 72.6832C118.353 72.6941 118.028 72.7509 117.715 72.8522L117.666 72.8649L117.608 72.8834L117.573 72.8932C117.509 72.9122 117.439 72.9309 117.372 72.9459L117.352 72.9518L117.321 72.9606C117.255 72.9766 117.185 72.9935 117.12 73.0035L117.061 73.0143H117.04L117 73.0221C116.943 73.0281 116.893 73.0328 116.848 73.0358C116.6 72.5658 116.405 72.1643 116.248 71.8063C116.42 71.8233 116.592 71.831 116.764 71.8307H116.942C117.02 71.8307 117.091 71.8192 117.166 71.8102H117.176H117.194L117.243 71.8024H117.266L117.309 71.7945H117.319C117.395 71.7795 117.475 71.7601 117.6 71.7281C117.684 71.7081 117.764 71.6857 117.848 71.6627H117.854L117.879 71.6559H117.897L117.95 71.6383C118.229 71.5482 118.52 71.4964 118.813 71.485C118.864 71.485 118.913 71.4848 118.969 71.4928C118.993 71.4934 119.018 71.4969 119.041 71.5016H119.051H119.079C119.11 71.5106 119.141 71.5188 119.178 71.5318C119.503 71.6575 119.8 71.8457 120.053 72.0846L120.092 72.1188L120.106 72.1334C120.167 72.1804 120.247 72.2431 120.331 72.3141C120.415 72.3851 120.467 72.4145 120.532 72.4625L120.565 72.485L120.674 72.5553C120.739 72.5974 120.807 72.6361 120.875 72.6705L120.897 72.6793C120.911 72.6887 120.926 72.6953 120.942 72.6998C121.042 72.7488 121.147 72.7945 121.256 72.8365C120.981 73.0975 120.701 73.356 120.426 73.607L120.438 73.5943ZM121.766 72.3443C121.559 72.2785 121.356 72.2 121.159 72.11L121.141 72.1012L121.106 72.0797L121.092 72.0738C121.033 72.0435 120.976 72.0105 120.92 71.9742C120.914 71.9695 120.908 71.9655 120.901 71.9615L120.881 71.9479C120.86 71.9363 120.84 71.9225 120.821 71.9068C120.748 71.8593 120.677 71.8086 120.61 71.7535C120.52 71.6845 120.441 71.6191 120.379 71.5631L120.34 71.5328C120.072 71.288 119.768 71.0886 119.436 70.942C120.002 70.464 122.358 68.6861 123.536 68.6861C123.643 68.6774 123.749 68.695 123.848 68.7379C123.947 68.7808 124.035 68.8478 124.102 68.9322C124.418 69.3612 123.629 70.5074 121.762 72.3404L121.766 72.3443ZM116.987 71.2047H116.831C116.599 71.2043 116.368 71.1893 116.139 71.1598L116.075 71.151L115.991 71.1432C115.581 70.0022 115.583 69.2592 115.991 68.9352C116.185 68.7761 116.427 68.6891 116.678 68.6891C117.893 68.6891 119.224 70.6896 119.372 70.9176V70.9244L119.342 70.9127C119.328 70.9127 119.303 70.9012 119.274 70.8942L119.247 70.8883L119.202 70.8776C119.14 70.8636 119.082 70.8552 119.055 70.8512C118.994 70.8512 118.936 70.8434 118.881 70.8434C118.546 70.8552 118.216 70.9126 117.897 71.0143L117.846 71.0279L117.786 71.0465H117.768C117.7 71.0665 117.629 71.0861 117.559 71.1031L117.534 71.11C117.454 71.13 117.379 71.1478 117.299 71.1608C117.27 71.167 117.241 71.1723 117.211 71.1754H117.206H117.186C117.109 71.1964 117.047 71.2007 116.987 71.2057V71.2047Z" fill="#FFBE21"/>
<path d="M119.117 69.7374C119.405 68.8103 119.886 68.1356 120.189 68.2302C120.493 68.3247 120.504 69.1526 120.216 70.0796C119.927 71.0067 119.63 71.0085 119.33 70.9151C119.03 70.8217 118.828 70.6625 119.117 69.7374Z" fill="#FFBE21"/>
<path d="M120.007 73.9501C120.007 73.9501 119.905 73.8404 119.834 73.7803L119.817 73.7666L119.779 73.7328C119.524 73.4952 119.227 73.3076 118.903 73.1796C118.87 73.1681 118.837 73.1585 118.802 73.151C118.767 73.1436 118.731 73.1384 118.695 73.1353C118.348 73.1207 118 73.1713 117.672 73.2847L117.62 73.3004L117.602 73.3056C117.512 73.3304 117.418 73.3575 117.323 73.3822C117.214 73.4175 117.107 73.4594 117.004 73.5076L116.902 73.1792C116.934 73.162 116.968 73.1487 117.003 73.1395C117.091 73.1233 117.174 73.1043 117.261 73.0808C117.348 73.0574 117.457 73.0285 117.549 73.0019L117.599 72.9881C117.972 72.8622 118.365 72.8072 118.758 72.8256C118.784 72.8312 118.84 72.8431 118.901 72.856C118.961 72.8689 119.017 72.8808 119.044 72.8864C119.41 73.0298 119.747 73.24 120.036 73.5064L120.076 73.5395C120.132 73.5956 120.179 73.6604 120.214 73.7314L120.007 73.9501Z" fill="white"/>
<path d="M121.298 72.7299C121.236 72.7166 121.175 72.6945 121.113 72.6751C121.12 72.638 121.085 72.6099 120.843 72.4983L120.801 72.477L120.78 72.4663C120.713 72.4318 120.646 72.3939 120.574 72.351L120.463 72.2793L120.457 72.278C120.383 72.2275 120.307 72.1705 120.224 72.1048C120.141 72.039 120.073 71.9827 120.002 71.9226L119.985 71.9089L119.946 71.8751C119.692 71.6375 119.395 71.4498 119.071 71.3219C119.038 71.3103 119.004 71.3008 118.97 71.2932C118.935 71.2859 118.899 71.2806 118.863 71.2776C118.516 71.263 118.168 71.3136 117.84 71.427L117.788 71.4426L117.77 71.4479C117.68 71.4727 117.586 71.4998 117.491 71.5245C117.395 71.5492 117.296 71.571 117.208 71.5882L117.203 71.5871L117.07 71.6079C116.988 71.618 116.911 71.6261 116.834 71.6303L116.812 71.6306L116.763 71.6326C116.502 71.6372 116.699 71.6669 116.401 71.6301L116.335 71.6223C116.27 71.6146 116.206 71.6072 116.144 71.597L116.059 71.2537L116.064 71.2547L116.14 71.271C116.225 71.2891 116.313 71.2995 116.408 71.3105L116.477 71.3192C116.758 71.3534 116.544 71.3232 116.784 71.318L116.806 71.3175L116.847 71.3151C116.908 71.3127 116.973 71.306 117.055 71.297L117.173 71.279C117.26 71.2628 117.344 71.2438 117.431 71.2204C117.517 71.1969 117.627 71.168 117.718 71.1415L117.768 71.1276C118.141 71.0018 118.534 70.9467 118.927 70.9652C118.954 70.9708 119.01 70.9826 119.07 70.9955C119.131 71.0084 119.187 71.0203 119.213 71.0259C119.58 71.1693 119.916 71.3796 120.206 71.646L120.246 71.679C120.319 71.7405 120.397 71.8052 120.477 71.8682C120.556 71.9311 120.617 71.9768 120.688 72.0245L120.787 72.0887C120.858 72.1313 120.916 72.164 120.97 72.1909L121.007 72.21L121.026 72.214C121.248 72.3184 121.276 72.3694 121.246 72.3724C121.337 72.3998 121.422 72.4271 121.507 72.4452L121.583 72.4614L121.588 72.4624L121.298 72.7299Z" fill="white"/>
<g opacity="0.4">
<path opacity="0.4" d="M135.681 77.406C131.657 76.806 118.647 74.081 91.8369 90.5129L91.422 92.213L131.995 92.358L135.681 77.406Z" fill="#261B20"/>
</g>
<g opacity="0.07">
<path opacity="0.07" d="M134.793 93.0549C135.247 92.4059 135.639 91.4549 135.066 90.9039C134.466 90.3309 133.494 90.8339 132.866 91.3749C131.772 92.3233 130.758 93.3602 129.835 94.4749L106.754 98.7639L75.1279 106.45L80.5659 113.391C96.3789 114.544 105.385 114.84 115.281 113.091C120.325 112.201 124.834 111.284 128.197 108.542C128.997 107.886 129.756 106.786 129.235 105.893C129.026 105.617 128.747 105.402 128.428 105.27C128.109 105.137 127.76 105.092 127.417 105.139C129.106 104.741 130.746 104.156 132.306 103.396C133.006 103.06 133.775 102.533 133.758 101.762C133.731 101.486 133.625 101.225 133.453 101.008C133.28 100.792 133.048 100.63 132.786 100.543C132.259 100.377 131.703 100.329 131.156 100.402C129.044 100.561 126.965 101.02 124.982 101.766C128.59 99.2489 132.256 96.6429 134.793 93.0549ZM124.936 101.798C124.936 101.792 124.936 101.788 124.946 101.781C124.958 101.778 124.969 101.774 124.979 101.768C124.966 101.779 124.95 101.788 124.937 101.799L124.936 101.798Z" fill="#B35341"/>
</g>
<path d="M135.918 85.0339C135.671 86.7019 135.589 89.152 130.418 88.843L128.894 88.0609L130.335 86.4749L133.444 84.8889L135.918 85.0339Z" fill="#F9B384"/>
<path d="M136.405 80.532C136.405 80.532 139.234 84.232 136.392 85.364C134.463 86.1144 132.408 86.4917 130.338 86.476C131.656 82.77 135.938 83.017 135.938 83.017L136.405 80.532Z" fill="#F9B384"/>
<path d="M136.488 78.1429C136.488 78.1429 140.388 81.767 136.762 82.783C134.575 83.4802 132.334 83.9943 130.062 84.3199C129.788 81.6019 134.862 79.8459 134.862 79.8459L136.488 78.1429Z" fill="#F9B384"/>
<path d="M135.69 74.986C135.69 74.986 141.016 78.226 136.019 80.038C131.022 81.85 129.842 81.823 129.842 81.823C129.567 79.105 134.921 78.172 134.921 78.172L135.69 74.986Z" fill="#F9B384"/>
<path d="M129.867 81.985L129.821 81.659C129.879 81.651 135.602 80.8259 137.276 79.4709L137.484 79.727C135.739 81.139 130.106 81.951 129.867 81.985Z" fill="#E28B6D"/>
<path d="M130.087 84.483L130.041 84.157C130.101 84.148 136.063 83.296 137.904 82.016L138.092 82.287C136.187 83.607 130.335 84.448 130.087 84.483Z" fill="#E28B6D"/>
<path d="M130.758 86.646C130.514 86.646 130.358 86.646 130.333 86.64L130.344 86.311C130.38 86.311 133.909 86.421 135.866 85.463L136.011 85.763C134.334 86.3974 132.55 86.6973 130.758 86.646Z" fill="#E28B6D"/>
<path d="M74.088 138.403C74.688 138.073 106.711 122.829 120.629 107.254L95.7809 113.821L74.088 138.403Z" fill="#102048"/>
<path d="M82.367 93.4599C82.367 93.4599 87.867 97.8339 93.311 95.4869C103.226 91.2089 116.192 81.6439 122.679 82.0699C132.727 82.7289 132.398 95.2469 128.609 100.683C124.82 106.119 115.926 113.367 83.1469 111.225L82.367 93.4599Z" fill="#1E3977"/>
<path d="M97.2429 156.561C94.8461 157.099 92.3625 157.122 89.9559 156.63C89.9559 156.63 85.739 157.724 81.589 158.584C79.2893 159.136 76.9437 159.474 74.5819 159.596C74.4599 159.596 74.3379 159.586 74.2129 159.576C71.2099 159.328 68.3878 158.039 66.2339 155.932C66.2315 155.925 66.227 155.92 66.2209 155.916C65.737 155.395 65.3678 154.779 65.1369 154.107C64.1489 151.03 66.2369 147.298 77.5469 148.065C77.5469 148.065 81.2799 147.189 82.1589 144.442C83.0379 141.695 76.5589 128.52 76.5589 128.52L85.7829 122.261L90.4029 126.452C90.4029 126.452 96.2159 141.368 96.2159 144.333C96.2159 144.333 100.058 149.824 100.608 152.239C100.959 153.78 100.183 155.727 97.2429 156.561Z" fill="#D3DFFF"/>
<path d="M45.38 73.1259C46.436 72.7189 47.513 72.391 48.601 72.088C49.146 71.94 49.694 71.8 50.252 71.688C50.5306 71.6313 50.8127 71.5834 51.098 71.544C51.242 71.525 51.3839 71.51 51.5339 71.498C51.6876 71.4897 51.8418 71.4926 51.995 71.5069C53.1355 71.6619 54.2518 71.961 55.317 72.3969C56.377 72.7969 57.417 73.253 58.433 73.742C59.449 74.231 60.45 74.764 61.433 75.328C62.416 75.892 63.373 76.4859 64.308 77.1209C66.1902 78.3778 67.9288 79.8372 69.4929 81.473L69.293 81.6729C68.465 80.9236 67.6026 80.2169 66.7059 79.5529C65.8169 78.8809 64.896 78.2529 63.955 77.6529C62.0794 76.4452 60.1344 75.349 58.13 74.37C57.13 73.876 56.114 73.419 55.082 73.011C54.0725 72.5835 53.0191 72.2676 51.9409 72.0689C51.8157 72.0519 51.6894 72.0446 51.563 72.047C51.433 72.053 51.295 72.063 51.163 72.078C50.891 72.108 50.6179 72.1459 50.3459 72.1939C49.7999 72.2939 49.254 72.3999 48.71 72.5219C47.622 72.7689 46.538 73.0579 45.474 73.3869L45.38 73.1259Z" fill="#1F3C88"/>
<g opacity="0.07">
<path opacity="0.07" d="M50.862 116.248C54.569 116.001 58.2109 116.266 60.8549 115.342C63.6819 114.354 71.0679 115.012 71.0679 115.012L67.0049 109.165L50.5329 113.283L50.862 116.248Z" fill="#B35341"/>
</g>
<path d="M67.9379 20.4719C67.9379 20.4719 66.7299 16.4719 64.0729 17.4719C61.4159 18.4719 62.8309 23.6839 68.0729 25.1329L67.9379 20.4719Z" fill="#F9B384"/>
<path d="M65.108 42.5449C66.4041 43.4786 67.812 44.2462 69.2989 44.83C70.7671 45.4112 72.3329 45.7065 73.9119 45.7C75.4814 45.6786 77.0248 45.2953 78.4219 44.58L78.9479 44.3119C79.1199 44.2169 79.2779 44.0979 79.4479 43.9919C79.7851 43.785 80.106 43.5526 80.4079 43.2969L80.8699 42.9219L81.103 42.7339C81.178 42.6689 81.245 42.5949 81.317 42.5259C81.5983 42.2425 81.8836 41.9618 82.1729 41.6838L82.373 41.8499C82.1137 42.1632 81.8497 42.4746 81.581 42.7839C81.514 42.8609 81.4499 42.9419 81.3809 43.0149L81.1579 43.226L80.7099 43.6489C80.4083 43.9298 80.0858 44.1872 79.7449 44.4189C79.5769 44.5379 79.4159 44.6699 79.2449 44.7789L78.706 45.0869C77.247 45.9048 75.6045 46.3397 73.9319 46.351C72.2712 46.3473 70.6286 46.0046 69.1049 45.3439C67.598 44.6967 66.2008 43.8197 64.963 42.7439L65.108 42.5449Z" fill="#1F3C88"/>
<path d="M58.016 93.46L59.443 98.454C59.928 100.116 60.382 101.785 60.89 103.439C61.398 105.093 61.8809 106.752 62.4029 108.4C62.6629 109.223 62.921 110.049 63.203 110.864C63.343 111.273 63.4689 111.687 63.6159 112.093C63.7629 112.499 63.907 112.906 64.046 113.316L63.8089 113.416C63.4403 112.628 63.0943 111.83 62.771 111.023C62.448 110.216 62.152 109.399 61.854 108.583C61.27 106.947 60.7539 105.289 60.2619 103.624C59.7869 101.954 59.316 100.284 58.904 98.599C58.492 96.914 58.092 95.225 57.764 93.52L58.016 93.46Z" fill="#102048"/>
<g opacity="0.1">
<path opacity="0.1" d="M97.244 156.563C94.8471 157.101 92.3635 157.124 89.957 156.632C89.957 156.632 82.983 158.418 78.577 159.118C83.107 158.212 89.6949 152.612 88.9539 149.07C95.4619 151.209 97.231 154.463 97.244 156.563Z" fill="#1F3C88"/>
</g>
<g opacity="0.4">
<path opacity="0.4" d="M79.728 157.181C78.8369 158.214 77.6465 158.943 76.322 159.269C75.6331 159.452 74.9254 159.555 74.213 159.576C71.21 159.328 68.388 158.039 66.234 155.932C66.2316 155.925 66.2269 155.92 66.2209 155.916C66.0258 155.654 65.8475 155.38 65.687 155.095C66.6276 155.978 67.6917 156.719 68.8459 157.295C69.4107 157.576 69.9956 157.814 70.5959 158.007C70.8889 158.119 71.1959 158.184 71.4959 158.27C71.7996 158.35 72.1078 158.411 72.4189 158.454C74.9287 158.962 77.5378 158.508 79.728 157.181Z" fill="#1F3C88"/>
</g>
<path d="M66.7429 21.036C66.6693 20.677 66.5233 20.3368 66.314 20.036C66.1208 19.7333 65.875 19.4677 65.588 19.2519C65.4763 19.1498 65.3382 19.081 65.1893 19.0534C65.0405 19.0259 64.8869 19.0407 64.746 19.0961C64.4535 19.2936 64.2215 19.5684 64.0759 19.89L63.8929 19.827C63.9208 19.611 63.9911 19.4026 64.0997 19.2138C64.2084 19.0251 64.3532 18.8596 64.526 18.727C64.7376 18.5878 64.9947 18.5351 65.244 18.5799C65.4722 18.6235 65.6876 18.7183 65.874 18.857C66.2148 19.1139 66.4905 19.447 66.679 19.8299C66.8854 20.2001 66.9749 20.624 66.9359 21.046L66.7429 21.036Z" fill="#E28B6D"/>
<path d="M82.418 20.9389C82.302 21.5069 81.874 21.9 81.462 21.816C81.238 21.7257 81.0574 21.5526 80.9575 21.3327C80.8575 21.1129 80.8459 20.8631 80.925 20.635C81.041 20.066 81.469 19.6739 81.881 19.7579C82.105 19.8483 82.2856 20.0214 82.3856 20.2412C82.4855 20.461 82.4972 20.7108 82.418 20.9389Z" fill="#102048"/>
<path d="M75.9991 20.6899C76.0924 20.1176 75.8313 19.5987 75.416 19.531C75.0006 19.4632 74.5883 19.8723 74.4949 20.4446C74.4016 21.017 74.6627 21.5359 75.078 21.6036C75.4934 21.6713 75.9057 21.2622 75.9991 20.6899Z" fill="#102048"/>
<path d="M78.7279 21.4619C78.7669 21.9299 78.7859 22.395 78.7909 22.851C78.8168 23.0346 78.9035 23.2042 79.037 23.3329C79.2091 23.5054 79.369 23.6895 79.5159 23.8839C79.5974 24.0053 79.6551 24.141 79.6859 24.2839C79.7161 24.4218 79.7256 24.5634 79.714 24.704C79.6937 24.9837 79.589 25.2508 79.414 25.47C79.3207 25.5826 79.2054 25.6748 79.075 25.741C78.943 25.8014 78.7991 25.8315 78.654 25.829C78.3922 25.8128 78.1406 25.7218 77.929 25.5669L78.0209 25.397C78.2154 25.4757 78.4261 25.5059 78.6349 25.485C78.7235 25.4737 78.8084 25.4428 78.8835 25.3945C78.9585 25.3463 79.022 25.2818 79.069 25.2059C79.1714 25.0512 79.229 24.8711 79.2355 24.6857C79.242 24.5002 79.1973 24.3165 79.106 24.1549C79.006 23.9919 78.8359 23.8389 78.6769 23.6389C78.4876 23.4243 78.3812 23.1491 78.377 22.8629C78.412 22.3839 78.47 21.915 78.543 21.449L78.7279 21.4619Z" fill="#E28B6D"/>
<path d="M73.4129 18.704C73.6798 18.4376 73.9934 18.2224 74.338 18.069C74.6968 17.9049 75.0899 17.8298 75.4839 17.85C75.885 17.8756 76.2702 18.0166 76.593 18.256C76.8989 18.4853 77.1516 18.778 77.3339 19.1141L77.181 19.2321C76.9269 19.003 76.6516 18.7983 76.3589 18.621C76.0803 18.4608 75.7694 18.3648 75.4489 18.34C74.7729 18.3404 74.1091 18.5199 73.525 18.86L73.4129 18.704Z" fill="#102048"/>
<path d="M80.1159 19.2689C80.2424 18.9202 80.5016 18.6356 80.837 18.4769C81.1623 18.3124 81.5236 18.2317 81.888 18.242C82.253 18.2476 82.6105 18.3461 82.9269 18.528C83.2428 18.7063 83.4926 18.9821 83.639 19.314L83.477 19.419C83.0524 18.992 82.4789 18.7461 81.8769 18.7329C81.5826 18.7091 81.2868 18.7528 81.0118 18.8604C80.7368 18.968 80.49 19.1368 80.29 19.354L80.1159 19.2689Z" fill="#102048"/>
<path d="M75.6219 27.0039L79.9919 27.3159C79.9919 27.3159 77.5499 30.5489 75.6219 27.0039Z" fill="white"/>
<g opacity="0.4">
<path opacity="0.4" d="M84.0559 22.4369C83.7601 24.0774 83.285 25.6803 82.6389 27.2169C82.2068 27.0131 81.8416 26.6904 81.5861 26.2866C81.3305 25.8829 81.1952 25.4147 81.1959 24.9369C81.1967 24.2672 81.4633 23.6253 81.9371 23.152C82.411 22.6787 83.0532 22.413 83.7229 22.413C83.8344 22.4125 83.9457 22.4204 84.0559 22.4369Z" fill="#EE6F57"/>
</g>
<g opacity="0.4">
<path opacity="0.4" d="M73.913 26.6918C75.1993 26.1517 75.8041 24.6711 75.2639 23.3848C74.7238 22.0986 73.2432 21.4937 71.9569 22.0339C70.6707 22.5741 70.0658 24.0547 70.606 25.3409C71.1462 26.6272 72.6268 27.232 73.913 26.6918Z" fill="#EE6F57"/>
</g>
<path d="M58.016 93.46L59.443 98.454C59.928 100.116 60.382 101.785 60.89 103.439C61.398 105.093 61.8809 106.752 62.4029 108.4C62.6629 109.223 62.921 110.049 63.203 110.864C63.343 111.273 63.4689 111.687 63.6159 112.093C63.7629 112.499 63.907 112.906 64.046 113.316L63.8089 113.416C63.4403 112.628 63.0943 111.83 62.771 111.023C62.448 110.216 62.152 109.399 61.854 108.583C61.27 106.947 60.7539 105.289 60.2619 103.624C59.7869 101.954 59.316 100.284 58.904 98.599C58.492 96.914 58.092 95.225 57.764 93.52L58.016 93.46Z" fill="#102048"/>
<path d="M58.016 93.46L59.443 98.454C59.928 100.116 60.382 101.785 60.89 103.439C61.398 105.093 61.8809 106.752 62.4029 108.4C62.6629 109.223 62.921 110.049 63.203 110.864C63.343 111.273 63.4689 111.687 63.6159 112.093C63.7629 112.499 63.907 112.906 64.046 113.316L63.8089 113.416C63.4403 112.628 63.0943 111.83 62.771 111.023C62.448 110.216 62.152 109.399 61.854 108.583C61.27 106.947 60.7539 105.289 60.2619 103.624C59.7869 101.954 59.316 100.284 58.904 98.599C58.492 96.914 58.092 95.225 57.764 93.52L58.016 93.46Z" fill="#102048"/>
<path d="M129.079 85.3149L128.679 84.8239C127.724 83.6272 126.531 82.6406 125.177 81.9259C123.823 81.2112 122.336 80.7838 120.809 80.6704C119.281 80.557 117.747 80.7601 116.302 81.2669C114.857 81.7738 113.533 82.5735 112.411 83.616L108.919 86.88L102.88 97.088C101.434 99.5313 99.2317 101.437 96.6057 102.515C93.9796 103.594 91.0735 103.787 88.328 103.065L86.556 102.599C82.945 92.9169 78.5979 84.583 75.2369 80.586C69.1429 73.338 57.4709 75.6859 52.0119 81.9039C47.2349 87.3389 47.2349 99.3639 51.0229 105.459L54.4819 108.918L60.7419 103.976C63.0479 113.201 74.0839 138.403 74.0839 138.403C77.6384 134.019 82.2934 130.658 87.5729 128.664C91.202 127.308 94.4274 125.053 96.947 122.11C103.324 114.679 108.37 113.284 118.12 108.31C126.691 103.947 136.764 98.7919 129.079 85.3149Z" fill="#1F3C88"/>
<path d="M66.9509 17.913C66.9422 17.9124 66.9338 17.9101 66.926 17.9062C66.9182 17.9022 66.9114 17.8968 66.9057 17.8902C66.9001 17.8836 66.8957 17.876 66.893 17.8677C66.8903 17.8594 66.8893 17.8507 66.89 17.8421C67.117 14.7511 69.9899 11.435 71.6899 9.73404C71.797 9.62618 71.926 9.54241 72.0681 9.48843C72.2102 9.43445 72.3623 9.41151 72.514 9.42105C72.6657 9.43021 72.8137 9.47164 72.9482 9.54251C73.0827 9.61338 73.2006 9.71207 73.2939 9.83206C75.0343 12.1004 77.1531 14.0513 79.557 15.599C80.2055 15.9971 80.9289 16.2579 81.6822 16.3654C82.4356 16.4729 83.203 16.4248 83.937 16.224C86.968 15.354 88.845 11.972 88.864 11.938C88.8724 11.9226 88.8866 11.9112 88.9034 11.9062C88.9202 11.9011 88.9384 11.9028 88.9539 11.911C88.9616 11.9152 88.9683 11.9208 88.9737 11.9276C88.9792 11.9344 88.9833 11.9422 88.9857 11.9506C88.9881 11.959 88.9889 11.9677 88.9879 11.9763C88.9869 11.985 88.9842 11.9934 88.9799 12.001C88.9609 12.035 87.059 15.465 83.974 16.35C83.2231 16.5554 82.4382 16.6049 81.6676 16.4954C80.8969 16.3858 80.1568 16.1196 79.493 15.713C77.0751 14.1564 74.9437 12.1943 73.193 9.91299C73.1111 9.8077 73.0078 9.72109 72.8899 9.65884C72.7719 9.5966 72.6421 9.56018 72.509 9.55203C72.3759 9.54415 72.2426 9.56457 72.118 9.61197C71.9934 9.65937 71.8802 9.73271 71.786 9.82706C70.433 11.1861 67.2609 14.6891 67.0289 17.8521C67.0283 17.8614 67.0259 17.8705 67.0216 17.8788C67.0172 17.8871 67.0111 17.8944 67.0037 17.9002C66.9964 17.9059 66.9878 17.91 66.9787 17.9123C66.9696 17.9145 66.9601 17.9147 66.9509 17.913Z" fill="white"/>
<path d="M81.158 13.9209C80.3405 13.9127 79.538 13.701 78.8229 13.3049C76.3828 11.7901 74.2561 9.82111 72.558 7.50484C72.477 7.39961 72.3744 7.31296 72.2571 7.25069C72.1398 7.18842 72.0105 7.15202 71.8779 7.14388C71.7457 7.13609 71.6134 7.15664 71.4898 7.20406C71.3661 7.25148 71.254 7.32471 71.1609 7.41891L70.8309 7.75094C69.485 8.92893 68.433 10.4051 67.7589 12.0618C67.7523 12.078 67.7395 12.091 67.7234 12.0977C67.7073 12.1045 67.6892 12.1045 67.673 12.0979C67.6568 12.0912 67.644 12.0785 67.6372 12.0623C67.6305 12.0462 67.6304 12.0281 67.637 12.0119C68.3214 10.3413 69.3823 8.85131 70.7369 7.65792L71.0659 7.32589C71.1722 7.21819 71.3003 7.13444 71.4415 7.08028C71.5828 7.02613 71.7339 7.00285 71.8849 7.01192C72.0362 7.02119 72.1838 7.06268 72.3176 7.13375C72.4515 7.20482 72.5685 7.3038 72.6609 7.42391C74.3471 9.72608 76.4593 11.6834 78.8829 13.1899C82.4249 15.0749 85.0569 11.9129 85.0829 11.8809C85.0883 11.8742 85.095 11.8685 85.1027 11.8643C85.1103 11.8602 85.1187 11.8575 85.1273 11.8565C85.136 11.8556 85.1447 11.8564 85.1531 11.8588C85.1614 11.8613 85.1692 11.8655 85.1759 11.8709C85.1827 11.8764 85.1883 11.8831 85.1925 11.8907C85.1967 11.8983 85.1993 11.9067 85.2002 11.9154C85.2011 11.924 85.2005 11.9327 85.198 11.941C85.1955 11.9493 85.1914 11.9572 85.1859 11.9639C84.6797 12.5432 84.0624 13.0149 83.3705 13.351C82.6786 13.6872 81.9262 13.881 81.158 13.9209Z" fill="white"/>
<path d="M60.7489 103.977C60.7489 103.977 59.1019 103.377 56.7959 104.911C56.7959 104.911 38.7859 104.527 34.7779 108.59C30.7699 112.653 33.844 118.09 39.719 118.69C44.65 119.197 54.2189 115.372 57.1709 114.13C57.7696 113.877 58.4064 113.727 59.0549 113.684L63.933 113.365L60.7489 103.977Z" fill="#D3DFFF"/>
<path d="M57.9089 93.6489L59.3359 98.6439C59.8219 100.305 60.275 101.975 60.783 103.628C61.291 105.281 61.7749 106.941 62.2959 108.589C62.5559 109.413 62.8139 110.238 63.0959 111.054C63.2349 111.462 63.3609 111.877 63.5089 112.283C63.6569 112.689 63.7999 113.097 63.9399 113.507L63.7019 113.607C63.3339 112.82 62.9879 112.022 62.6639 111.214C62.3409 110.407 62.0459 109.59 61.7469 108.774C61.1619 107.138 60.6469 105.48 60.1539 103.815C59.6609 102.15 59.2089 100.475 58.7959 98.7899C58.3829 97.1049 57.9839 95.4169 57.6559 93.7109L57.9089 93.6489Z" fill="#102048"/>
<path d="M11.441 144.543C17.7597 144.543 22.882 139.421 22.882 133.102C22.882 126.783 17.7597 121.661 11.441 121.661C5.12231 121.661 0 126.783 0 133.102C0 139.421 5.12231 144.543 11.441 144.543Z" fill="#FE5244"/>
</svg>
