<svg width="194" height="217" viewBox="0 0 194 217" fill="none" xmlns="http://www.w3.org/2000/svg">
<path d="M183.734 142.636H57.4613C56.3331 142.637 55.2158 142.416 54.1732 141.984C53.1307 141.553 52.1834 140.92 51.3856 140.123C50.5879 139.325 49.9553 138.378 49.5241 137.335C49.0928 136.293 48.8713 135.175 48.8723 134.047V45.725C48.8713 44.5968 49.0928 43.4794 49.5241 42.4369C49.9553 41.3944 50.5879 40.4471 51.3856 39.6493C52.1834 38.8515 53.1307 38.2189 54.1732 37.7877C55.2158 37.3564 56.3331 37.1349 57.4613 37.136H183.734C184.863 37.1349 185.98 37.3564 187.022 37.7877C188.065 38.2189 189.012 38.8515 189.81 39.6493C190.608 40.4471 191.24 41.3944 191.672 42.4369C192.103 43.4794 192.324 44.5968 192.323 45.725V134.036C192.325 135.165 192.105 136.283 191.674 137.327C191.243 138.371 190.611 139.319 189.813 140.118C189.015 140.917 188.068 141.55 187.025 141.982C185.981 142.415 184.863 142.637 183.734 142.636Z" fill="white" stroke="#35D4D9" stroke-width="2" stroke-miterlimit="10" stroke-linecap="round"/>
<path d="M183.814 134.42H58.7584C57.8679 134.419 57.0141 134.065 56.3845 133.436C55.7548 132.806 55.4009 131.952 55.4003 131.062V46.5679C55.4009 45.6775 55.7548 44.8237 56.3845 44.194C57.0141 43.5644 57.8679 43.2105 58.7584 43.21H183.814C184.705 43.2105 185.559 43.5644 186.188 44.194C186.818 44.8237 187.172 45.6775 187.172 46.5679V131.049C187.175 131.491 187.089 131.929 186.922 132.339C186.754 132.748 186.507 133.12 186.195 133.433C185.882 133.746 185.511 133.995 185.103 134.164C184.694 134.334 184.256 134.42 183.814 134.42V134.42Z" stroke="#35D4D9" stroke-width="2" stroke-miterlimit="10" stroke-linejoin="round"/>
<path d="M63.2403 51.103H61.2603C60.9483 51.1024 60.6493 50.9782 60.4286 50.7576C60.208 50.537 60.0838 50.238 60.0833 49.926V47.9459C60.0838 47.6339 60.208 47.3349 60.4286 47.1143C60.6493 46.8936 60.9483 46.7694 61.2603 46.7689H63.2403C63.5523 46.7694 63.8513 46.8936 64.072 47.1143C64.2926 47.3349 64.4168 47.6339 64.4173 47.9459V49.926C64.4144 50.2372 64.2895 50.535 64.0694 50.7551C63.8493 50.9752 63.5516 51.1001 63.2403 51.103V51.103Z" stroke="white" stroke-width="2" stroke-miterlimit="10" stroke-linecap="round"/>
<path d="M72.2433 51.103H70.2632C69.9512 51.1024 69.6522 50.9782 69.4316 50.7576C69.211 50.537 69.0868 50.238 69.0862 49.926V47.9459C69.0868 47.6339 69.211 47.3349 69.4316 47.1143C69.6522 46.8936 69.9512 46.7694 70.2632 46.7689H72.2433C72.5553 46.7694 72.8544 46.8936 73.075 47.1143C73.2956 47.3349 73.4198 47.6339 73.4203 47.9459V49.926C73.4198 50.238 73.2956 50.537 73.075 50.7576C72.8544 50.9782 72.5553 51.1024 72.2433 51.103V51.103Z" stroke="white" stroke-width="2" stroke-miterlimit="10" stroke-linecap="round"/>
<path d="M81.2473 51.103H79.2673C78.9553 51.1024 78.6561 50.9782 78.4355 50.7576C78.2149 50.537 78.0908 50.238 78.0903 49.926V47.9459C78.0908 47.6339 78.2149 47.3349 78.4355 47.1143C78.6561 46.8936 78.9553 46.7694 79.2673 46.7689H81.2473C81.5593 46.7694 81.8584 46.8936 82.079 47.1143C82.2997 47.3349 82.4237 47.6339 82.4243 47.9459V49.926C82.4251 50.0808 82.3952 50.2342 82.3364 50.3773C82.2775 50.5205 82.1907 50.6506 82.0812 50.76C81.9718 50.8695 81.8418 50.9561 81.6987 51.015C81.5555 51.0738 81.402 51.1038 81.2473 51.103V51.103Z" stroke="white" stroke-width="2" stroke-miterlimit="10" stroke-linecap="round"/>
<path d="M147.252 172.747H98.2364L107.855 142.633H137.621L147.252 172.747Z" fill="white" stroke="#27B6BB" stroke-width="2" stroke-miterlimit="10" stroke-linecap="round"/>
<path d="M102.089 160.694L107.855 142.634H137.62L102.089 160.694Z" fill="#27B6BB"/>
<path d="M176.537 70.915H152.711C152.181 70.9155 151.655 70.8114 151.165 70.6085C150.674 70.4057 150.229 70.1081 149.854 69.7329C149.478 69.3576 149.181 68.912 148.978 68.4216C148.775 67.9312 148.671 67.4057 148.671 66.875V51.49C148.671 50.9593 148.775 50.4337 148.978 49.9433C149.181 49.4529 149.478 49.0073 149.854 48.6321C150.229 48.2568 150.674 47.9593 151.165 47.7564C151.655 47.5536 152.181 47.4494 152.711 47.45H176.537C177.068 47.4494 177.594 47.5536 178.084 47.7564C178.574 47.9593 179.02 48.2568 179.395 48.6321C179.771 49.0073 180.068 49.4529 180.271 49.9433C180.474 50.4337 180.578 50.9593 180.577 51.49V66.875C180.578 67.4057 180.474 67.9312 180.271 68.4216C180.068 68.912 179.771 69.3576 179.395 69.7329C179.02 70.1081 178.574 70.4057 178.084 70.6085C177.594 70.8114 177.068 70.9155 176.537 70.915Z" stroke="#FE5244" stroke-width="2" stroke-miterlimit="10" stroke-linecap="round"/>
<path d="M155.48 52.9349H173.66" stroke="#FE5244" stroke-width="2" stroke-miterlimit="10" stroke-linecap="round"/>
<path d="M155.48 57.0819H173.66" stroke="#FE5244" stroke-width="2" stroke-miterlimit="10" stroke-linecap="round"/>
<path d="M155.48 61.229H173.66" stroke="#FE5244" stroke-width="2" stroke-miterlimit="10" stroke-linecap="round"/>
<path d="M155.48 65.376H173.66" stroke="#FE5244" stroke-width="2" stroke-miterlimit="10" stroke-linecap="round"/>
<path d="M129.273 129.23H114.651C114.335 129.23 114.022 129.168 113.73 129.047C113.437 128.926 113.172 128.749 112.948 128.525C112.725 128.301 112.547 128.036 112.426 127.744C112.305 127.451 112.243 127.138 112.243 126.822V119.049C112.243 118.733 112.305 118.419 112.426 118.127C112.547 117.835 112.724 117.569 112.948 117.346C113.172 117.122 113.437 116.945 113.729 116.824C114.022 116.703 114.335 116.641 114.651 116.641H129.273C129.59 116.641 129.903 116.703 130.195 116.824C130.487 116.945 130.753 117.122 130.976 117.346C131.2 117.57 131.377 117.835 131.498 118.127C131.619 118.42 131.681 118.733 131.681 119.049V126.822C131.682 127.138 131.619 127.452 131.498 127.744C131.378 128.036 131.2 128.302 130.977 128.525C130.753 128.749 130.487 128.926 130.195 129.047C129.903 129.168 129.59 129.23 129.273 129.23V129.23Z" stroke="#3A9EFD" stroke-width="2" stroke-miterlimit="10" stroke-linejoin="round"/>
<path d="M122.33 126.099H117.38C117.001 126.098 116.638 125.948 116.37 125.68C116.102 125.413 115.951 125.05 115.949 124.671V121.206C115.95 120.827 116.101 120.463 116.369 120.195C116.637 119.926 117.001 119.776 117.38 119.775H122.33C122.71 119.775 123.074 119.926 123.342 120.194C123.611 120.463 123.762 120.827 123.762 121.206V124.671C123.761 125.05 123.61 125.413 123.341 125.681C123.073 125.948 122.709 126.099 122.33 126.099Z" fill="#3A9EFD"/>
<path d="M127.146 126.005L125.621 124.988C125.414 124.845 125.244 124.653 125.128 124.429C125.011 124.205 124.951 123.956 124.952 123.704V122.179C124.951 121.927 125.011 121.678 125.128 121.454C125.244 121.23 125.414 121.038 125.621 120.895L127.146 119.878C127.23 119.824 127.326 119.794 127.426 119.792C127.525 119.789 127.623 119.814 127.709 119.864C127.795 119.914 127.866 119.987 127.913 120.074C127.96 120.162 127.982 120.261 127.976 120.36V125.537C127.98 125.636 127.957 125.733 127.909 125.819C127.861 125.905 127.79 125.977 127.705 126.025C127.619 126.073 127.521 126.097 127.423 126.094C127.324 126.09 127.228 126.059 127.146 126.005Z" fill="#3A9EFD"/>
<path d="M108.742 63.62L132.154 65.767L124.842 49.801L118.842 48.593C118.842 48.593 115.081 50.17 114.98 50.27C114.879 50.37 110.855 55.805 110.855 55.805L108.171 63.453L108.742 63.62Z" fill="#46395E"/>
<path fill-rule="evenodd" clip-rule="evenodd" d="M58.7542 104.774C58.7542 104.774 49.2482 117.765 52.4542 118.534C55.6602 119.303 53.7542 117.534 53.7542 117.534C53.7542 117.534 58.9952 108.185 58.7542 104.774Z" fill="#373454"/>
<path d="M107.264 122.747C106.283 129.281 105.688 135.834 105.289 142.401C108.632 142.555 111.951 142.801 115.304 142.832L115.349 142.869C115.628 142.518 115.994 142.248 116.411 142.086C117.089 141.893 117.809 141.904 118.481 142.118C119.153 142.331 119.747 142.737 120.189 143.286C123.664 143.475 127.825 143.632 131.28 143.472C131.633 130.83 130.94 114.293 135.26 102.529C132.003 105.53 128.527 108.284 124.86 110.768C123.081 112.092 121.156 113.209 119.123 114.097C116.176 115.158 112.786 114.524 110.009 113.286C109.543 113.078 109.082 112.843 108.629 112.586C107.757 115.863 107.764 119.417 107.264 122.747Z" fill="white"/>
<path d="M113.037 65.8739C112.448 65.8739 111.97 66.652 111.97 67.61C111.97 68.568 112.448 69.348 113.037 69.348C113.626 69.348 114.105 68.569 114.105 67.61C114.105 66.651 113.626 65.8739 113.037 65.8739Z" fill="#46395E"/>
<path d="M116.973 162.913C117 163.783 117.09 164.649 117.242 165.506C118.006 165.528 120.062 165.557 120.716 165.552L120.736 165.541C119.992 159.275 119.2 152.982 118.807 146.672H118.793C118.76 146.546 118.699 146.43 118.614 146.331C118.529 146.233 118.423 146.155 118.303 146.104C118.062 146.004 117.797 145.976 117.54 146.023C117.426 146.035 117.319 146.083 117.235 146.161C117.137 147.266 117.104 148.375 117.135 149.484C117.088 152.01 117.035 154.538 117.035 157.064C117.039 158.944 116.896 160.955 116.973 162.913Z" fill="#3FB1B5"/>
<path d="M117.205 146.201C117.172 146.031 117.084 145.876 116.955 145.76C116.826 145.644 116.663 145.573 116.49 145.558C116.34 145.552 116.19 145.588 116.059 145.663C115.928 145.737 115.82 145.847 115.748 145.98C114.935 151.836 114.894 157.769 113.825 163.607C113.652 164.924 113.413 166.232 113.107 167.525C114.183 167.596 115.262 167.598 116.337 167.532C116.487 166.782 116.844 163.757 116.973 162.913C116.895 160.955 117.038 158.944 117.038 157.066C117.038 154.54 117.09 152.012 117.138 149.486C117.107 148.377 117.14 147.268 117.238 146.163C117.226 146.174 117.215 146.187 117.205 146.201Z" fill="#3FB1B5"/>
<path d="M144.551 94.7511C144.598 94.6998 144.632 94.6377 144.649 94.5704C144.666 94.5032 144.667 94.4327 144.651 94.3651C144.637 94.2969 144.608 94.2327 144.566 94.1769C144.524 94.1211 144.471 94.0751 144.409 94.0421C143.341 93.3861 141.924 93.236 140.95 92.495C140.365 92.052 140.75 91.4011 140.264 90.8951C139.29 90.1213 138.24 89.4478 137.13 88.8851C137.143 87.6671 137.997 86.235 138.458 85.149C139.275 83.225 139.944 81.2269 140.605 79.2489C142.627 73.1769 144.291 64.8621 141.987 58.6151C141.116 56.5332 139.909 54.6076 138.416 52.9149C133.236 47.2489 124.451 46.826 121.357 46.735V46.746C110.445 46.719 106.905 59.04 107.773 68.141C107.921 67.633 108.079 67.1239 108.191 66.6229C108.602 64.3147 109.196 62.0429 109.967 59.829C110.684 58.1948 111.551 56.6314 112.559 55.1591C113.435 53.7804 114.474 52.5124 115.653 51.3829C116.056 50.9968 116.482 50.6351 116.928 50.2999C117.122 50.1268 117.339 49.983 117.574 49.8729C117.772 49.8067 117.985 49.7941 118.189 49.8361L118.2 49.8121C118.71 50.0631 119.2 50.3519 119.7 50.6549C120.367 51.0656 121.007 51.5172 121.617 52.007C122.844 52.9955 123.967 54.1074 124.967 55.3251C125.97 56.539 126.873 57.8318 127.667 59.191C127.867 59.532 128.067 59.877 128.251 60.224C130 63.1667 131.07 66.4624 131.383 69.871C131.592 71.789 131.542 73.7262 131.235 75.631C130.61 76.8148 129.908 77.9568 129.135 79.0499L129.16 79.067C127.264 81.8183 124.451 83.8051 121.224 84.672C119.611 85.2929 117.832 85.3335 116.192 84.787C115.005 84.2362 113.913 83.4988 112.959 82.6029C111.891 81.6943 110.945 80.6526 110.142 79.5031L110.059 79.5609C110.352 80.662 110.516 81.7932 110.549 82.932C110.288 83.9698 109.864 84.9599 109.293 85.8651C106.272 84.4191 104.967 88.258 102.661 89.537C102.337 89.2813 101.976 89.0758 101.59 88.9271C98.3612 87.7911 97.5533 91.9139 95.4143 93.3209C95.0284 93.5392 94.6039 93.6807 94.1643 93.7379C93.815 93.7926 93.4693 93.8684 93.1293 93.965C92.7058 94.1026 92.3196 94.3355 92.0001 94.6456C91.6806 94.9557 91.4364 95.3349 91.2862 95.754C91.0772 96.5562 91.159 97.4064 91.5172 98.1539C91.6792 97.9959 91.8433 97.8399 92.0073 97.6849L92.1073 97.559C93.6613 98.9957 95.099 100.553 96.4072 102.217C98.5799 104.55 100.901 106.741 103.357 108.774C104.074 109.374 104.818 109.985 105.59 110.568C106.555 111.312 107.571 111.988 108.629 112.592C109.082 112.844 109.543 113.079 110.01 113.292C112.786 114.53 116.177 115.164 119.124 114.103C121.157 113.215 123.082 112.098 124.861 110.774C128.528 108.29 132.004 105.536 135.261 102.535C136.325 101.6 137.383 100.667 138.44 99.756C140.304 97.9434 142.321 96.2952 144.469 94.83C144.501 94.8082 144.528 94.7817 144.551 94.7511Z" fill="#F4B223"/>
<path d="M115.748 145.981C115.82 145.848 115.928 145.739 116.059 145.664C116.19 145.589 116.34 145.553 116.49 145.559C116.663 145.574 116.826 145.645 116.955 145.761C117.084 145.877 117.172 146.032 117.205 146.202C117.213 146.188 117.223 146.175 117.234 146.163C117.318 146.085 117.425 146.037 117.539 146.025C117.796 145.978 118.061 146.006 118.302 146.106C118.422 146.157 118.528 146.235 118.613 146.333C118.698 146.432 118.759 146.548 118.792 146.674H118.806C119.199 152.983 119.991 159.274 120.735 165.543L120.715 165.554C120.061 165.56 118.006 165.53 117.242 165.508C117.09 164.651 117 163.785 116.973 162.915C116.844 163.76 116.487 166.785 116.337 167.534C115.262 167.6 114.183 167.597 113.107 167.527C113.413 166.234 113.652 164.926 113.825 163.609C114.894 157.769 114.934 151.837 115.748 145.981ZM120.212 216.006H150.929C150.814 212.819 150.629 209.43 150.405 205.892L128.797 205.992C128.629 199.369 129.576 192.57 129.884 185.978C130.512 172.506 130.672 158.991 131.209 145.509C131.236 144.842 131.259 144.163 131.277 143.47C127.822 143.63 123.661 143.47 120.186 143.284C119.744 142.735 119.15 142.329 118.478 142.116C117.806 141.902 117.086 141.891 116.408 142.084C115.991 142.246 115.624 142.516 115.346 142.867L115.301 142.83C111.948 142.795 108.629 142.553 105.286 142.399C104.839 149.785 104.64 157.187 104.426 164.599C104.108 175.626 103.593 186.541 103.801 197.585C103.853 200.349 103.738 203.139 103.901 205.904L90.8353 205.967C90.2572 209.288 89.8527 212.637 89.6234 216L120.212 216.006Z" fill="#3FB1B5"/>
<path d="M123.785 66.576C123.196 66.576 122.718 67.3541 122.718 68.3121C122.718 69.2701 123.196 70.049 123.785 70.049C124.374 70.049 124.852 69.2711 124.852 68.3121C124.852 67.3531 124.373 66.576 123.785 66.576Z" fill="#46395E"/>
<path d="M146.437 156.933C146.237 156.848 146.037 156.767 145.828 156.693C144.473 156.243 143.063 155.979 141.636 155.911C140.281 155.762 138.91 155.864 137.592 156.211C137.151 156.36 136.373 156.911 136.955 157.372C137.636 157.743 138.41 157.909 139.183 157.85C140.025 157.899 140.862 157.997 141.697 158.118C142.463 158.262 143.208 158.495 143.919 158.813C142.712 158.555 141.482 158.421 140.247 158.413C139.356 158.356 138.461 158.402 137.58 158.55C136.855 158.644 136.169 158.93 135.59 159.377C135.136 159.823 135.29 160.334 135.901 160.505C136.099 160.555 136.299 160.593 136.501 160.62C136.801 160.67 137.105 160.699 137.409 160.705L137.438 160.765C137.236 160.858 137.051 160.985 136.892 161.142C136.741 161.297 136.558 161.595 136.755 161.783C137.34 162.34 138.549 162.226 139.283 162.248C140.829 162.263 142.362 162.533 143.819 163.048C143.968 163.117 144.112 163.195 144.251 163.281C142.525 163.061 140.772 163.176 139.089 163.62C138.953 163.66 138.817 163.702 138.683 163.755C138.351 163.886 137.254 164.5 137.851 164.973C138.301 165.331 139.187 165.173 139.72 165.181C140.951 165.12 142.184 165.125 143.414 165.196C144.504 165.373 145.546 165.773 146.474 166.371C146.541 166.41 146.606 166.45 146.674 166.491C147.748 167.307 148.999 167.859 150.325 168.102C152.205 168.277 154.151 167.402 155.814 166.655C157.129 166.064 158.41 165.403 159.653 164.675C160.671 164.082 161.671 163.444 162.64 162.775C161.277 160.735 159.685 158.859 157.894 157.182C157.19 156.383 156.403 155.662 155.545 155.031L155.405 154.899C154.71 155.672 153.947 156.383 153.127 157.023C152.652 157.399 152.157 157.75 151.645 158.074C151.443 158.231 151.222 158.363 150.988 158.469C150.787 158.536 150.575 158.564 150.363 158.55C149.015 158.114 147.702 157.573 146.437 156.933Z" fill="#F6B2A1"/>
<path d="M52.3753 100.136C52.3753 99.916 52.3683 99.6992 52.3563 99.4832C52.235 98.0601 51.9203 96.66 51.4205 95.3221C51.0222 94.0169 50.3866 92.7966 49.5455 91.7222C49.2345 91.3752 48.4194 90.878 48.2264 91.594C48.1548 92.3658 48.3076 93.142 48.6663 93.8291C48.9533 94.6211 49.1934 95.4292 49.4124 96.2452C49.5823 97.0052 49.6625 97.7824 49.6514 98.5611C49.4102 97.3506 49.0462 96.1678 48.5652 95.031C48.2655 94.1885 47.87 93.3833 47.3863 92.6311C47.0135 92.0029 46.4803 91.4852 45.8414 91.1311C45.2524 90.8901 44.8413 91.2311 44.9283 91.8621C44.9598 92.0645 45.0034 92.2649 45.0584 92.4622C45.1305 92.7581 45.2245 93.0481 45.3394 93.3301L45.2964 93.3802C45.1308 93.2306 44.9403 93.1111 44.7335 93.0271C44.5335 92.9491 44.1854 92.8991 44.0904 93.1541C43.8094 93.9111 44.3905 94.9772 44.6605 95.6602C45.2578 97.0857 45.6155 98.6 45.7193 100.142C45.7144 100.306 45.6998 100.469 45.6754 100.631C45.196 98.958 44.3983 97.393 43.3262 96.022C43.2352 95.913 43.1433 95.8042 43.0423 95.7032C42.7913 95.4502 41.7943 94.6832 41.5943 95.4192C41.4423 95.9742 41.9354 96.727 42.1404 97.219C42.6816 98.326 43.1634 99.4611 43.5843 100.619C43.8511 101.691 43.8949 102.805 43.7125 103.894C43.7035 103.971 43.6925 104.046 43.6815 104.123C43.3557 105.432 43.3422 106.799 43.6424 108.114C44.2244 109.914 45.7984 111.352 47.1424 112.586C48.2038 113.561 49.3171 114.477 50.4774 115.332C51.4244 116.032 54.7084 118.157 55.7044 118.784C57.0512 116.593 58.1551 114.261 58.9964 111.83C59.3664 110.848 58.8454 109.623 58.9964 108.575V108.242C57.604 107.683 56.2469 107.04 54.9324 106.317C54.3994 106.029 53.8817 105.713 53.3814 105.371C53.1571 105.247 52.9482 105.097 52.7593 104.923C52.6184 104.765 52.5094 104.581 52.4383 104.381C52.3069 102.97 52.2859 101.551 52.3753 100.136Z" fill="#F6B2A1"/>
<path d="M176.178 118.992L176.199 118.942C171.329 115.713 165.43 109.285 160.74 104.842C158.747 102.953 156.85 100.766 154.54 99.26C153.033 98.3013 151.425 97.5099 149.746 96.8999C148.946 96.5999 148.213 96.167 147.431 95.814C146.607 95.4429 145.76 95.123 144.896 94.856C144.783 94.821 144.669 94.7871 144.556 94.7561C144.532 94.7844 144.503 94.8084 144.471 94.8279C142.323 96.2932 140.306 97.9413 138.442 99.7539C137.385 100.665 136.327 101.598 135.263 102.533C130.942 114.297 131.635 130.833 131.283 143.476C131.264 144.168 131.241 144.848 131.215 145.515C130.678 158.997 130.515 172.515 129.89 185.984C129.582 192.577 128.635 199.375 128.803 205.998L150.411 205.898L152.301 205.89C151.49 192.63 149.609 179.457 146.678 166.5C146.611 166.46 146.546 166.42 146.478 166.381C145.55 165.784 144.508 165.384 143.418 165.206C142.188 165.136 140.955 165.131 139.724 165.191C139.191 165.185 138.304 165.341 137.855 164.983C137.255 164.51 138.355 163.896 138.687 163.765C138.82 163.712 138.956 163.67 139.093 163.63C140.776 163.186 142.529 163.071 144.255 163.291C144.116 163.205 143.972 163.127 143.823 163.058C142.366 162.544 140.833 162.273 139.287 162.258C138.554 162.236 137.344 162.35 136.759 161.793C136.559 161.605 136.745 161.307 136.896 161.152C137.055 160.995 137.24 160.867 137.442 160.774L137.413 160.714C137.109 160.708 136.806 160.68 136.505 160.63C136.303 160.603 136.103 160.565 135.905 160.515C135.294 160.344 135.14 159.833 135.594 159.387C136.173 158.94 136.859 158.655 137.584 158.561C138.465 158.413 139.36 158.367 140.251 158.423C141.486 158.431 142.716 158.565 143.923 158.823C143.212 158.505 142.467 158.272 141.701 158.128C140.866 158.008 140.029 157.909 139.187 157.86C138.414 157.919 137.64 157.753 136.959 157.382C136.377 156.922 137.159 156.37 137.597 156.221C138.915 155.873 140.286 155.771 141.641 155.921C143.067 155.99 144.477 156.253 145.832 156.703C146.032 156.778 146.238 156.859 146.441 156.943C145.709 153.327 146.102 149.438 146.113 145.813C146.137 138.241 146.13 130.47 147.306 122.966C152.211 125.654 157.456 128.766 162.119 131.845C164.958 133.72 167.583 135.916 170.419 137.784L170.572 137.935C166.179 142.403 163.272 146.343 159.328 150.416C157.953 151.837 156.75 153.449 155.404 154.916L155.544 155.048C156.402 155.679 157.19 156.4 157.893 157.199C159.684 158.876 161.276 160.752 162.639 162.792C163.002 163.345 163.346 163.915 163.673 164.51C164.368 165.762 164.816 167.135 164.995 168.556C165.081 168.933 165.024 169.329 164.834 169.666C167.47 167.951 169.926 165.974 172.165 163.766C174.038 162.061 175.807 160.247 177.465 158.333C178.822 156.733 180.176 155.133 181.465 153.478C184.636 149.387 187.888 145.709 189.585 140.73C190.403 138.33 190.9 135.598 189.92 133.159L189.9 133.15C188.655 130.828 186.328 128.806 184.947 127.125C183.221 125.025 181.617 122.559 179.456 120.864C178.454 120.094 177.351 119.464 176.178 118.992Z" fill="#31006F"/>
<path d="M164.833 169.651C165.023 169.314 165.08 168.918 164.994 168.541C164.815 167.12 164.366 165.747 163.672 164.495C163.344 163.9 163 163.33 162.637 162.777C161.668 163.445 160.668 164.083 159.65 164.677C159.975 165.156 160.31 165.628 160.66 166.088C161.395 167.111 162.197 168.084 163.06 169.001C163.416 169.359 163.86 169.837 164.411 169.83C164.49 169.833 164.569 169.818 164.642 169.787C164.715 169.756 164.78 169.71 164.833 169.651Z" fill="#373454"/>
<path d="M107.374 69.8689C107.462 69.2816 107.595 68.7022 107.774 68.136C107.923 67.628 108.08 67.1189 108.192 66.6179C108.571 64.6187 109.057 62.6411 109.647 60.6939C111.197 58.3339 113.092 56.1019 115.747 55.2779C118.125 54.6613 120.648 54.9671 122.81 56.1338C124.689 57.1354 126.435 58.3665 128.01 59.7989C128.088 59.9389 128.166 60.079 128.242 60.219C129.99 63.1618 131.06 66.4575 131.373 69.866C131.582 71.784 131.532 73.7213 131.225 75.626C130.6 76.8099 129.898 77.9519 129.125 79.0449L129.15 79.0618C127.254 81.8134 124.441 83.8008 121.214 84.668C119.601 85.2887 117.822 85.3293 116.182 84.783C114.995 84.2318 113.904 83.4941 112.949 82.5979C111.882 81.6892 110.935 80.6473 110.132 79.4978C109.06 77.9639 108.263 76.2557 107.775 74.449C107.667 74.049 107.563 73.6538 107.475 73.2488C107.242 72.137 107.207 70.9927 107.374 69.8689ZM123.782 70.0498C124.371 70.0498 124.849 69.272 124.849 68.313C124.849 67.354 124.371 66.5769 123.782 66.5769C123.193 66.5769 122.715 67.355 122.715 68.313C122.715 69.271 123.196 70.0498 123.785 70.0498H123.782ZM122.773 63.8499C123.186 64.1859 124.065 63.9599 124.537 63.9219C125.23 63.8622 125.928 63.9078 126.607 64.0569C127.039 64.2464 127.497 64.3671 127.965 64.4148C128.218 64.3898 128.242 64.0148 128.148 63.8408C128.016 63.5908 128.012 63.495 127.781 63.334C126.607 62.6471 125.218 62.4245 123.888 62.71C123.671 62.7355 123.461 62.8045 123.27 62.9129C123.08 63.0213 122.913 63.1668 122.78 63.3408C122.682 63.5068 122.6 63.7079 122.774 63.8509L122.773 63.8499ZM113.033 69.3499C113.622 69.3499 114.101 68.5698 114.101 67.6118C114.101 66.6538 113.622 65.876 113.033 65.876C112.444 65.876 111.966 66.6538 111.966 67.6118C111.966 68.5698 112.447 69.3489 113.036 69.3489L113.033 69.3499ZM111.284 63.1438C111.697 63.4798 112.576 63.2538 113.049 63.2158C113.742 63.157 114.439 63.2025 115.117 63.3509C115.548 63.5409 116.007 63.6619 116.475 63.709C116.728 63.685 116.751 63.3088 116.658 63.1348C116.581 62.9373 116.455 62.7629 116.291 62.628C115.117 61.9415 113.728 61.7192 112.398 62.0049C112.181 62.03 111.97 62.0988 111.78 62.2068C111.589 62.3149 111.423 62.46 111.289 62.6338C111.195 62.7988 111.113 63.0018 111.288 63.1428L111.284 63.1438Z" fill="#F6B2A1"/>
<path d="M110.668 73.145C111.813 73.145 112.74 72.3418 112.74 71.351C112.74 70.3602 111.813 69.557 110.668 69.557C109.524 69.557 108.596 70.3602 108.596 71.351C108.596 72.3418 109.524 73.145 110.668 73.145Z" fill="#F68B7B"/>
<path d="M127.069 73.8931C128.214 73.8931 129.141 73.0899 129.141 72.0991C129.141 71.1083 128.214 70.3051 127.069 70.3051C125.925 70.3051 124.997 71.1083 124.997 72.0991C124.997 73.0899 125.925 73.8931 127.069 73.8931Z" fill="#F68B7B"/>
<path d="M92.7873 122.986C90.9833 124.645 89.1892 126.314 87.4052 127.992C89.4052 120.159 95.3322 113.284 95.3322 113.284C93.9972 117.303 92.8063 120.399 92.7873 122.986Z" fill="#373454"/>
<path d="M65.8373 126.238C66.5373 125.367 70.3593 120.373 71.0673 119.657C71.4239 119.329 71.8832 119.133 72.3673 119.105C72.8264 118.981 73.2604 118.777 73.6503 118.505C75.8283 116.161 78.0133 113.825 80.1583 111.463C83.9273 107.315 87.4773 102.776 91.5173 98.8719C91.6793 98.7139 91.8433 98.558 92.0073 98.402L92.1073 98.276C93.6613 99.7128 95.0991 101.27 96.4073 102.934C98.5797 105.267 100.901 107.458 103.356 109.491C104.073 110.091 104.817 110.702 105.589 111.285C106.555 112.029 107.57 112.705 108.628 113.309C107.762 116.582 107.767 120.138 107.267 123.467C106.287 130.001 105.691 136.554 105.292 143.12C104.845 150.506 104.646 157.908 104.432 165.32C104.114 176.348 103.599 187.262 103.807 198.306C103.859 201.07 103.744 203.86 103.907 206.625L90.8413 206.688L89.3223 206.695C89.7793 192.409 95.4943 155.895 95.5553 155.079C95.9023 150.302 96.2163 145.379 95.4553 140.619C94.5723 135.069 92.4763 129.358 92.7843 123.703C92.8043 121.116 93.9953 118.02 95.3303 114.003C95.3303 114.003 89.4003 120.879 87.4033 128.711C85.2561 130.916 83.2697 133.273 81.4594 135.762C80.3882 137.118 78.8724 138.053 77.1794 138.4C75.4865 138.748 73.7252 138.486 72.2063 137.662C67.6403 135.184 65.8373 126.238 65.8373 126.238Z" fill="#31006F"/>
<path fill-rule="evenodd" clip-rule="evenodd" d="M68.7453 135.055L52.4563 118.534C52.4373 118.514 52.4403 118.498 52.4563 118.485C53.7779 117.775 54.8008 116.615 55.3383 115.214L58.7483 104.774C59.8746 106.05 61.0768 107.257 62.3484 108.388L80.8952 125.488C88.3172 133.191 77.8373 144.26 68.7453 135.055Z" fill="#31006F"/>
<path fill-rule="evenodd" clip-rule="evenodd" d="M73.8433 119.245C73.7433 119.21 73.7812 119.111 73.8162 119.014C73.9502 118.952 74.0843 118.889 74.1463 119.023L81.4273 125.568C81.4893 125.702 81.5523 125.836 81.4183 125.898C81.3823 125.998 81.2843 125.961 81.1863 125.925L73.8433 119.245Z" fill="#29075E"/>
<path d="M131.404 75.4189C131.43 75.4188 131.456 75.4115 131.478 75.3977C131.5 75.3839 131.518 75.3642 131.529 75.3408C132.01 74.3588 132.384 73.3279 132.644 72.2659C134.634 64.3449 133.523 59.0059 132.244 55.9229C132.237 55.906 132.227 55.8906 132.214 55.8777C132.201 55.8648 132.186 55.8546 132.169 55.8477C132.152 55.8407 132.134 55.8371 132.115 55.8372C132.097 55.8372 132.079 55.8408 132.062 55.8479C132.028 55.8621 132.001 55.8892 131.987 55.9231C131.973 55.957 131.973 55.9951 131.987 56.0291C133.253 59.0741 134.349 64.351 132.378 72.198C132.121 73.2415 131.752 74.2544 131.278 75.219C131.27 75.2354 131.266 75.2533 131.264 75.2715C131.263 75.2897 131.266 75.3079 131.272 75.3252C131.278 75.3425 131.287 75.3584 131.299 75.3721C131.311 75.3858 131.326 75.397 131.342 75.405C131.362 75.4144 131.383 75.4191 131.404 75.4189Z" fill="#D89C23"/>
<path d="M132.373 68.3899C132.408 68.3898 132.441 68.3771 132.466 68.354C132.492 68.3309 132.508 68.2991 132.511 68.2649C132.565 67.0966 132.43 65.9273 132.111 64.802C132.07 64.622 132.03 64.4431 131.991 64.2671C131.199 60.5998 129.592 57.1574 127.291 54.1941C127.28 54.179 127.266 54.1662 127.249 54.1568C127.233 54.1473 127.215 54.1414 127.196 54.1392C127.178 54.1369 127.159 54.1385 127.141 54.1438C127.123 54.1491 127.106 54.1579 127.091 54.1699C127.076 54.1813 127.064 54.1956 127.054 54.2119C127.045 54.2283 127.039 54.2465 127.037 54.2652C127.035 54.2839 127.036 54.3028 127.042 54.3208C127.047 54.3389 127.056 54.3554 127.068 54.3699C129.342 57.3006 130.929 60.7049 131.711 64.3311C131.75 64.5091 131.791 64.6869 131.831 64.8679C132.144 65.964 132.279 67.1031 132.231 68.242C132.229 68.2601 132.231 68.2784 132.236 68.2959C132.241 68.3134 132.25 68.3296 132.262 68.3438C132.273 68.3579 132.287 68.3698 132.303 68.3784C132.319 68.387 132.337 68.3923 132.355 68.3941L132.373 68.3899Z" fill="#D89C23"/>
<path d="M121.518 98.6021C121.535 98.6021 121.551 98.5994 121.566 98.5941C122.724 98.088 123.791 97.3965 124.726 96.547C124.949 96.366 125.169 96.1881 125.385 96.0191C128.636 93.2932 131.509 90.1477 133.931 86.6651C134.192 86.3141 134.467 85.9569 134.731 85.6099C135.887 84.2232 136.875 82.7051 137.674 81.087C137.689 81.0533 137.69 81.0151 137.677 80.9808C137.663 80.9465 137.637 80.919 137.603 80.9041C137.57 80.8893 137.531 80.8884 137.497 80.9017C137.463 80.915 137.435 80.9413 137.42 80.9749C136.629 82.5724 135.652 84.0714 134.51 85.441C134.243 85.788 133.968 86.1471 133.71 86.4991C131.303 89.9613 128.447 93.0886 125.216 95.7992C124.999 95.9692 124.778 96.1482 124.553 96.3302C123.641 97.1586 122.601 97.834 121.473 98.3302C121.439 98.3428 121.411 98.3686 121.395 98.4019C121.379 98.4353 121.378 98.4735 121.39 98.5081C121.399 98.535 121.417 98.5582 121.44 98.575C121.463 98.5918 121.49 98.6014 121.518 98.6021Z" fill="#D89C23"/>
<path d="M122.115 89.864C122.148 89.8639 122.18 89.8522 122.205 89.831C122.23 89.8098 122.247 89.7804 122.252 89.748C122.258 89.7117 122.25 89.6745 122.228 89.6445C122.207 89.6145 122.175 89.5942 122.138 89.5881C119.038 89.0691 116.279 86.4611 114.261 84.5571C114.248 84.544 114.232 84.5338 114.215 84.527C114.197 84.5203 114.179 84.517 114.16 84.5175C114.141 84.5181 114.123 84.5224 114.106 84.5302C114.089 84.538 114.074 84.5491 114.061 84.5629C114.048 84.5762 114.038 84.5922 114.031 84.6096C114.024 84.6269 114.021 84.6453 114.021 84.664C114.022 84.6827 114.026 84.7012 114.034 84.7182C114.041 84.7352 114.053 84.7505 114.066 84.7631C116.11 86.6921 118.91 89.334 122.088 89.863L122.115 89.864Z" fill="#D89C23"/>
<path d="M115.059 105.734H115.078C120.353 105.034 125.451 101.97 131.122 96.0891C131.844 95.3401 132.532 94.533 133.198 93.752C134.01 92.8 134.849 91.8151 135.753 90.9341C135.767 90.9211 135.777 90.9056 135.785 90.8884C135.792 90.8712 135.796 90.8526 135.796 90.834C135.796 90.8153 135.792 90.797 135.785 90.7798C135.777 90.7626 135.767 90.7471 135.753 90.7341C135.74 90.7206 135.725 90.7098 135.708 90.7024C135.69 90.695 135.672 90.6912 135.653 90.6912C135.634 90.6912 135.616 90.695 135.599 90.7024C135.582 90.7098 135.566 90.7206 135.553 90.7341C134.64 91.6241 133.796 92.614 132.98 93.571C132.317 94.348 131.632 95.153 130.916 95.895C125.291 101.727 120.245 104.766 115.035 105.457C114.999 105.462 114.966 105.481 114.943 105.51C114.921 105.54 114.911 105.577 114.916 105.613C114.92 105.647 114.938 105.679 114.964 105.701C114.991 105.724 115.025 105.736 115.059 105.734Z" fill="#D89C23"/>
<path d="M119.881 102.268C121.679 102.262 123.464 101.971 125.17 101.405C125.188 101.399 125.204 101.39 125.218 101.378C125.232 101.366 125.243 101.352 125.251 101.335C125.26 101.319 125.265 101.301 125.266 101.283C125.267 101.265 125.265 101.246 125.259 101.229C125.254 101.212 125.245 101.195 125.233 101.181C125.221 101.168 125.207 101.156 125.19 101.148C125.174 101.14 125.156 101.135 125.138 101.133C125.12 101.132 125.102 101.134 125.084 101.14C122.295 102.064 119.309 102.226 116.436 101.607C113.563 100.988 110.908 99.6123 108.746 97.6219C107.063 96.0574 105.562 94.3085 104.27 92.408L103.993 92.032C103.972 92.0024 103.939 91.9825 103.903 91.9768C103.866 91.9712 103.829 91.9803 103.799 92.002C103.77 92.0238 103.75 92.0564 103.744 92.0928C103.739 92.1292 103.748 92.1661 103.769 92.1958L104.046 92.5721C105.35 94.4895 106.866 96.2535 108.565 97.8309C111.673 100.636 115.695 102.213 119.881 102.268Z" fill="#D89C23"/>
<path d="M120.069 98.8601C120.101 98.8602 120.132 98.8494 120.156 98.8296C120.181 98.8098 120.198 98.7819 120.205 98.751C120.209 98.7331 120.21 98.7148 120.206 98.6968C120.203 98.6788 120.197 98.6614 120.187 98.646C120.177 98.6306 120.164 98.6174 120.149 98.6069C120.134 98.5965 120.117 98.5889 120.099 98.585C115.136 97.493 111.837 92.4251 109.265 87.6111C109.257 87.5949 109.245 87.5805 109.231 87.5688C109.217 87.5572 109.201 87.5485 109.183 87.5432C109.166 87.5379 109.147 87.5362 109.129 87.5381C109.111 87.5399 109.093 87.5452 109.077 87.554C109.061 87.5625 109.047 87.5743 109.035 87.5884C109.023 87.6025 109.015 87.6187 109.009 87.6362C109.004 87.6537 109.002 87.672 109.004 87.6902C109.006 87.7084 109.012 87.7259 109.02 87.7419C111.62 92.6119 114.966 97.7419 120.039 98.8569C120.049 98.859 120.059 98.8602 120.069 98.8601Z" fill="#D89C23"/>
<path d="M104.446 99.0802C104.469 99.0802 104.492 99.0744 104.512 99.0636C104.532 99.0528 104.55 99.0373 104.562 99.0182C104.582 98.9874 104.589 98.9499 104.582 98.9139C104.574 98.8779 104.553 98.8463 104.522 98.826C103.806 98.354 103.101 97.8261 102.354 97.2601C99.8543 95.3761 97.2743 93.4281 94.0543 93.6041C94.036 93.605 94.0182 93.6095 94.0018 93.6173C93.9853 93.6251 93.9705 93.6362 93.9583 93.6498C93.9461 93.6633 93.9367 93.6792 93.9307 93.6964C93.9247 93.7136 93.9222 93.7319 93.9233 93.7501C93.9253 93.7868 93.9418 93.8213 93.9692 93.8458C93.9965 93.8704 94.0326 93.8829 94.0693 93.881C97.1883 93.712 99.7293 95.6281 102.188 97.4811C102.938 98.0471 103.647 98.581 104.371 99.057C104.394 99.0718 104.42 99.0799 104.446 99.0802Z" fill="#D89C23"/>
<path d="M143.885 160.971C143.915 160.971 143.944 160.961 143.968 160.943C143.992 160.925 144.01 160.9 144.018 160.871C144.029 160.836 144.024 160.798 144.007 160.766C143.989 160.733 143.96 160.709 143.924 160.699C142.134 160.101 140.219 159.971 138.364 160.322C138.083 160.382 137.807 160.465 137.539 160.572C137.522 160.579 137.507 160.589 137.494 160.602C137.481 160.615 137.471 160.63 137.464 160.647C137.457 160.664 137.453 160.682 137.453 160.701C137.454 160.719 137.457 160.737 137.464 160.754C137.471 160.771 137.482 160.786 137.495 160.799C137.507 160.812 137.523 160.822 137.54 160.829C137.557 160.836 137.575 160.84 137.593 160.84C137.611 160.84 137.629 160.836 137.646 160.829C137.899 160.728 138.159 160.649 138.425 160.593C140.235 160.253 142.101 160.381 143.846 160.966C143.859 160.97 143.872 160.971 143.885 160.971Z" fill="#DB6F5E"/>
<path d="M176.243 119.157C176.271 119.157 176.297 119.149 176.32 119.134C176.343 119.119 176.361 119.097 176.371 119.072C176.386 119.038 176.386 119 176.372 118.966C176.358 118.932 176.331 118.904 176.297 118.89C174.147 118.063 171.932 117.419 169.673 116.965L168.931 116.795C168.896 116.786 168.859 116.792 168.827 116.811C168.796 116.83 168.774 116.86 168.764 116.895C168.756 116.93 168.761 116.968 168.78 116.999C168.799 117.03 168.829 117.053 168.864 117.062L169.606 117.233C171.849 117.684 174.05 118.323 176.185 119.143C176.203 119.152 176.223 119.157 176.243 119.157Z" fill="#29075E"/>
<path d="M166.578 116.784C166.615 116.784 166.649 116.77 166.675 116.745C166.701 116.719 166.716 116.685 166.717 116.649C166.718 116.631 166.715 116.613 166.708 116.596C166.702 116.578 166.692 116.563 166.679 116.549C166.667 116.536 166.652 116.526 166.635 116.518C166.619 116.511 166.601 116.506 166.582 116.506C163.952 116.419 161.328 116.176 158.726 115.778C158.69 115.773 158.653 115.782 158.624 115.804C158.594 115.826 158.575 115.859 158.569 115.895C158.567 115.913 158.568 115.931 158.572 115.949C158.576 115.967 158.584 115.983 158.595 115.998C158.606 116.013 158.62 116.025 158.635 116.035C158.651 116.044 158.668 116.05 158.686 116.053C161.299 116.453 163.933 116.696 166.575 116.783L166.578 116.784Z" fill="#29075E"/>
<path d="M147.351 118.569C147.385 118.569 147.418 118.556 147.444 118.534C147.469 118.511 147.485 118.48 147.489 118.446C148.069 114.068 149.04 109.751 150.389 105.546C150.395 105.528 150.397 105.51 150.395 105.492C150.393 105.474 150.388 105.456 150.379 105.44C150.371 105.424 150.359 105.409 150.345 105.398C150.331 105.386 150.315 105.377 150.297 105.372C150.262 105.361 150.224 105.365 150.192 105.382C150.159 105.4 150.135 105.429 150.124 105.464C148.771 109.686 147.799 114.021 147.219 118.417C147.215 118.454 147.225 118.49 147.248 118.519C147.271 118.548 147.305 118.567 147.341 118.571L147.351 118.569Z" fill="#29075E"/>
<path d="M142.04 154.51C142.068 154.51 142.096 154.502 142.119 154.486C142.134 154.476 142.147 154.462 142.157 154.447C142.167 154.432 142.174 154.415 142.177 154.397C142.18 154.379 142.18 154.36 142.176 154.343C142.172 154.325 142.165 154.308 142.154 154.293C141.139 152.734 140.321 151.054 139.72 149.293C139.707 149.259 139.681 149.231 139.648 149.215C139.615 149.2 139.577 149.198 139.542 149.211C139.525 149.217 139.509 149.227 139.496 149.239C139.483 149.251 139.472 149.266 139.464 149.283C139.457 149.299 139.452 149.317 139.452 149.336C139.451 149.354 139.454 149.372 139.46 149.389C140.07 151.172 140.898 152.872 141.927 154.45C141.94 154.468 141.957 154.483 141.976 154.494C141.996 154.504 142.018 154.51 142.04 154.51Z" fill="#29075E"/>
<path d="M138.475 168.212C138.501 168.212 138.526 168.205 138.548 168.191C139.464 167.651 140.473 167.287 141.523 167.118C141.559 167.11 141.591 167.089 141.611 167.058C141.631 167.028 141.639 166.99 141.631 166.954C141.628 166.936 141.621 166.919 141.61 166.904C141.6 166.889 141.587 166.876 141.572 166.866C141.557 166.856 141.54 166.849 141.522 166.845C141.504 166.842 141.485 166.842 141.467 166.846C140.385 167.02 139.345 167.397 138.402 167.956C138.387 167.965 138.373 167.978 138.362 167.993C138.352 168.007 138.344 168.024 138.34 168.042C138.336 168.06 138.335 168.078 138.338 168.096C138.341 168.114 138.348 168.131 138.357 168.147C138.37 168.167 138.387 168.183 138.408 168.194C138.428 168.206 138.452 168.212 138.475 168.212Z" fill="#29075E"/>
<path d="M92.7943 122.968C92.8296 122.968 92.8636 122.955 92.8895 122.93C92.9153 122.906 92.931 122.873 92.9333 122.838C93.2354 120.072 93.9429 117.365 95.0333 114.805C95.6797 113.159 96.2263 111.475 96.6702 109.763C96.6787 109.728 96.6731 109.69 96.6544 109.659C96.6357 109.628 96.6055 109.605 96.5703 109.596C96.5349 109.588 96.4976 109.593 96.4664 109.612C96.4351 109.631 96.4125 109.661 96.4033 109.696C95.962 111.397 95.4187 113.07 94.7763 114.706C93.6757 117.291 92.9623 120.025 92.6592 122.818C92.6571 122.855 92.6695 122.891 92.6939 122.918C92.7183 122.946 92.7525 122.963 92.7892 122.965L92.7943 122.968Z" fill="#29075E"/>
<path d="M125.31 142.568C125.344 142.568 125.378 142.556 125.403 142.533C126.73 141.349 127.451 139.25 128.03 137.562C128.122 137.292 128.212 137.031 128.301 136.782C128.314 136.747 128.311 136.709 128.296 136.676C128.28 136.643 128.252 136.617 128.217 136.605C128.2 136.599 128.182 136.596 128.164 136.597C128.146 136.598 128.128 136.602 128.111 136.61C128.095 136.618 128.08 136.629 128.068 136.642C128.056 136.656 128.046 136.672 128.04 136.689C127.951 136.939 127.861 137.201 127.768 137.472C127.168 139.215 126.491 141.191 125.219 142.326C125.205 142.338 125.193 142.353 125.185 142.37C125.177 142.387 125.172 142.405 125.171 142.424C125.17 142.442 125.173 142.461 125.179 142.478C125.186 142.496 125.196 142.512 125.208 142.526C125.222 142.539 125.237 142.55 125.255 142.558C125.272 142.565 125.291 142.568 125.31 142.568Z" fill="#C1E6DD"/>
<path d="M112 141.156C112.023 141.156 112.045 141.151 112.065 141.14C112.098 141.123 112.122 141.093 112.133 141.058C112.144 141.023 112.14 140.986 112.123 140.953C111.823 140.392 111.501 139.837 111.186 139.3C110.821 138.675 110.443 138.03 110.108 137.376C110.091 137.343 110.062 137.319 110.027 137.307C109.992 137.296 109.954 137.299 109.921 137.316C109.905 137.324 109.89 137.336 109.878 137.349C109.866 137.363 109.857 137.379 109.852 137.397C109.846 137.414 109.844 137.433 109.845 137.451C109.847 137.469 109.852 137.487 109.86 137.503C110.199 138.165 110.579 138.814 110.946 139.441C111.259 139.976 111.582 140.528 111.876 141.084C111.888 141.106 111.906 141.125 111.928 141.137C111.95 141.15 111.975 141.157 112 141.156Z" fill="#C1E6DD"/>
<path d="M109.069 140.848C109.09 140.848 109.111 140.844 109.13 140.835C109.149 140.826 109.165 140.812 109.178 140.796C109.19 140.782 109.199 140.765 109.205 140.747C109.21 140.729 109.212 140.71 109.21 140.691C109.207 140.672 109.202 140.654 109.192 140.638C109.183 140.622 109.17 140.607 109.155 140.596C108.531 140.115 107.961 139.567 107.455 138.962C107.444 138.947 107.429 138.935 107.413 138.925C107.397 138.916 107.379 138.91 107.36 138.908C107.341 138.906 107.322 138.908 107.304 138.913C107.286 138.919 107.27 138.928 107.255 138.94C107.24 138.951 107.228 138.966 107.219 138.982C107.209 138.999 107.203 139.017 107.201 139.035C107.199 139.054 107.201 139.073 107.207 139.091C107.212 139.109 107.221 139.126 107.233 139.14C107.751 139.761 108.335 140.324 108.975 140.819C109.002 140.84 109.035 140.85 109.069 140.848Z" fill="#C1E6DD"/>
<path d="M115.458 148.184C115.482 148.184 115.505 148.178 115.526 148.166C115.547 148.155 115.565 148.138 115.577 148.118C115.597 148.087 115.603 148.049 115.594 148.013C115.586 147.977 115.564 147.946 115.532 147.927C115.205 147.727 113.643 146.568 115.041 143.612C115.137 143.41 115.254 143.218 115.39 143.041C115.401 143.027 115.41 143.01 115.414 142.992C115.419 142.975 115.42 142.957 115.418 142.938C115.416 142.92 115.41 142.903 115.401 142.887C115.392 142.871 115.38 142.857 115.365 142.846C115.351 142.834 115.334 142.825 115.316 142.82C115.298 142.815 115.279 142.813 115.26 142.816C115.241 142.818 115.223 142.824 115.207 142.834C115.191 142.843 115.177 142.856 115.165 142.871C115.017 143.065 114.89 143.274 114.785 143.494C114.412 144.258 114.212 145.095 114.2 145.945C114.186 146.386 114.288 146.823 114.495 147.213C114.702 147.602 115.008 147.931 115.382 148.165C115.405 148.179 115.432 148.185 115.458 148.184Z" fill="#349393"/>
<path d="M119.702 148.2C119.721 148.199 119.74 148.195 119.757 148.186C119.774 148.178 119.79 148.167 119.802 148.152C121.121 146.632 121.365 144.952 120.472 143.531C120.463 143.515 120.45 143.502 120.435 143.491C120.42 143.481 120.403 143.473 120.385 143.469C120.368 143.465 120.349 143.465 120.331 143.468C120.313 143.471 120.296 143.477 120.28 143.487C120.265 143.497 120.251 143.51 120.241 143.525C120.23 143.54 120.223 143.556 120.219 143.574C120.215 143.592 120.215 143.61 120.218 143.628C120.221 143.646 120.227 143.664 120.237 143.679C120.72 144.447 121.279 146.025 119.592 147.97C119.58 147.984 119.57 148 119.564 148.018C119.558 148.036 119.556 148.054 119.557 148.073C119.558 148.092 119.563 148.11 119.572 148.126C119.58 148.143 119.592 148.158 119.606 148.17C119.633 148.192 119.668 148.202 119.702 148.2Z" fill="#349393"/>
<path d="M117.325 166.066C117.335 166.067 117.345 166.067 117.355 166.066C117.373 166.062 117.39 166.055 117.405 166.044C117.42 166.034 117.433 166.021 117.443 166.005C117.453 165.99 117.459 165.972 117.463 165.954C117.466 165.936 117.465 165.918 117.461 165.9C117.088 163.726 116.978 161.514 117.132 159.313C117.153 158.569 117.176 157.801 117.176 157.068C117.176 154.751 117.22 152.394 117.263 150.114L117.274 149.49C117.274 149.415 117.274 149.339 117.274 149.263C117.274 149.01 117.274 148.757 117.274 148.504C117.274 148.176 117.274 147.836 117.274 147.504C117.274 147.44 117.274 147.375 117.274 147.304C117.243 147.105 117.253 146.901 117.305 146.705C117.356 146.51 117.448 146.328 117.574 146.17C117.646 146.137 117.727 146.126 117.805 146.141H117.844C117.982 146.144 118.118 146.174 118.244 146.229C118.391 146.301 118.514 146.414 118.596 146.555C118.679 146.696 118.718 146.858 118.709 147.021C118.703 147.212 118.709 147.404 118.726 147.594L118.732 147.682C118.811 148.823 118.907 150.029 119.017 151.267C119.117 152.408 119.232 153.579 119.364 154.847C119.479 155.947 119.607 157.121 119.755 158.422C119.889 159.612 120.028 160.802 120.172 161.992L120.597 165.555C120.602 165.592 120.621 165.625 120.65 165.648C120.679 165.671 120.716 165.681 120.752 165.677C120.789 165.672 120.822 165.654 120.844 165.625C120.867 165.596 120.878 165.56 120.873 165.523L120.448 161.96C120.307 160.772 120.168 159.582 120.031 158.392C119.883 157.092 119.755 155.923 119.64 154.82C119.508 153.554 119.395 152.384 119.293 151.244C119.183 150.008 119.087 148.804 119.009 147.665L119.003 147.576C118.986 147.397 118.98 147.218 118.986 147.038C118.998 146.819 118.944 146.602 118.833 146.414C118.721 146.225 118.557 146.073 118.359 145.978C118.202 145.908 118.032 145.87 117.859 145.865H117.822C117.672 145.841 117.518 145.877 117.394 145.965C117.238 146.148 117.122 146.363 117.055 146.594C116.988 146.826 116.97 147.069 117.004 147.307C117.004 147.372 117.004 147.436 117.004 147.498C116.997 147.835 117.004 148.176 117.004 148.506C117.004 148.758 117.004 149.006 117.004 149.261C117.004 149.336 117.004 149.411 117.004 149.485L116.992 150.109C116.95 152.39 116.905 154.749 116.905 157.068C116.905 157.797 116.884 158.529 116.861 159.305C116.706 161.529 116.818 163.762 117.196 165.959C117.203 165.988 117.22 166.015 117.243 166.034C117.266 166.053 117.295 166.065 117.325 166.066Z" fill="#349393"/>
<path d="M115.217 167.724C115.61 167.733 116.003 167.713 116.392 167.665C116.41 167.662 116.428 167.655 116.443 167.645C116.458 167.636 116.472 167.623 116.482 167.608C116.493 167.593 116.5 167.576 116.504 167.558C116.508 167.54 116.508 167.522 116.505 167.504C116.502 167.486 116.495 167.469 116.486 167.453C116.476 167.438 116.463 167.425 116.448 167.414C116.433 167.404 116.416 167.396 116.398 167.392C116.381 167.388 116.362 167.388 116.344 167.391C115.189 167.455 114.03 167.45 112.875 167.374C112.857 167.373 112.839 167.375 112.822 167.381C112.804 167.387 112.789 167.397 112.775 167.409C112.761 167.421 112.75 167.436 112.742 167.452C112.735 167.469 112.73 167.487 112.729 167.505C112.728 167.523 112.731 167.541 112.737 167.559C112.743 167.576 112.752 167.592 112.764 167.605C112.777 167.619 112.791 167.63 112.808 167.638C112.824 167.646 112.842 167.65 112.86 167.651C112.936 167.656 114.182 167.724 115.217 167.724Z" fill="#349393"/>
<path d="M116.311 167.785C116.341 167.785 116.371 167.776 116.395 167.758C116.419 167.74 116.437 167.714 116.445 167.685C116.531 167.372 116.721 165.895 116.889 164.592C117 163.727 117.097 162.981 117.136 162.777C117.14 162.759 117.14 162.741 117.136 162.723C117.132 162.705 117.125 162.688 117.115 162.673C117.105 162.658 117.092 162.645 117.077 162.635C117.061 162.624 117.044 162.617 117.026 162.614C117.008 162.61 116.99 162.61 116.972 162.614C116.954 162.617 116.937 162.624 116.922 162.635C116.907 162.645 116.894 162.658 116.884 162.673C116.874 162.688 116.867 162.705 116.863 162.723C116.821 162.936 116.725 163.687 116.613 164.556C116.454 165.786 116.257 167.317 116.176 167.61C116.171 167.628 116.17 167.647 116.173 167.665C116.175 167.683 116.181 167.701 116.191 167.717C116.2 167.732 116.212 167.746 116.227 167.757C116.242 167.768 116.258 167.776 116.276 167.781C116.288 167.784 116.3 167.785 116.311 167.785Z" fill="#349393"/>
<path d="M120.511 165.692H120.711C120.73 165.692 120.748 165.688 120.764 165.681C120.781 165.674 120.797 165.664 120.809 165.651C120.822 165.638 120.832 165.622 120.839 165.605C120.846 165.588 120.849 165.57 120.849 165.552C120.848 165.515 120.833 165.481 120.807 165.455C120.781 165.429 120.746 165.415 120.709 165.414C120.044 165.42 117.839 165.388 117.153 165.366C117.135 165.365 117.117 165.367 117.099 165.374C117.082 165.38 117.066 165.39 117.053 165.402C117.04 165.415 117.029 165.43 117.022 165.447C117.014 165.463 117.01 165.482 117.01 165.5C117.009 165.518 117.012 165.536 117.019 165.554C117.025 165.571 117.035 165.587 117.047 165.6C117.06 165.613 117.075 165.624 117.091 165.632C117.108 165.639 117.126 165.643 117.144 165.644C117.778 165.663 119.679 165.692 120.511 165.692Z" fill="#349393"/>
<path d="M121.833 145.792C121.843 145.793 121.852 145.793 121.861 145.792C123.375 145.499 124.904 145.289 126.44 145.161C126.477 145.157 126.511 145.14 126.534 145.111C126.558 145.083 126.569 145.047 126.566 145.01C126.565 144.992 126.56 144.974 126.551 144.958C126.543 144.942 126.531 144.928 126.517 144.916C126.503 144.904 126.487 144.895 126.469 144.89C126.452 144.884 126.434 144.882 126.415 144.884C124.869 145.013 123.331 145.225 121.807 145.52C121.789 145.524 121.772 145.531 121.757 145.541C121.742 145.551 121.729 145.564 121.719 145.579C121.709 145.594 121.702 145.611 121.698 145.629C121.695 145.647 121.695 145.665 121.698 145.683C121.705 145.714 121.722 145.742 121.747 145.761C121.771 145.781 121.802 145.792 121.833 145.792Z" fill="#349393"/>
<path d="M129.485 148.591C129.521 148.591 129.556 148.577 129.582 148.552C129.608 148.527 129.623 148.492 129.624 148.456C129.625 148.438 129.622 148.42 129.615 148.403C129.609 148.386 129.599 148.37 129.586 148.356C129.574 148.343 129.559 148.333 129.542 148.325C129.526 148.318 129.507 148.314 129.489 148.313C128.865 148.297 128.232 148.254 127.618 148.213C126.962 148.169 126.283 148.123 125.611 148.113C125.142 148.104 124.658 148.113 124.189 148.113C123.211 148.146 122.232 148.113 121.258 148.013C121.24 148.011 121.222 148.012 121.204 148.017C121.187 148.022 121.17 148.03 121.156 148.042C121.141 148.053 121.129 148.067 121.12 148.083C121.111 148.098 121.105 148.116 121.103 148.134C121.099 148.171 121.109 148.207 121.131 148.236C121.154 148.265 121.187 148.284 121.223 148.289C122.209 148.39 123.201 148.423 124.192 148.389C124.659 148.383 125.141 148.377 125.606 148.389C126.27 148.402 126.946 148.448 127.6 148.489C128.216 148.531 128.853 148.573 129.482 148.589L129.485 148.591Z" fill="#349393"/>
<path d="M114.295 147.956C114.331 147.956 114.366 147.942 114.392 147.917C114.418 147.892 114.433 147.858 114.434 147.822C114.435 147.804 114.432 147.786 114.426 147.768C114.419 147.751 114.41 147.736 114.397 147.722C114.385 147.709 114.37 147.698 114.353 147.691C114.337 147.683 114.319 147.679 114.3 147.678L113.463 147.647C111.444 147.57 109.155 147.483 106.869 147.547C106.851 147.548 106.833 147.552 106.816 147.559C106.8 147.566 106.785 147.577 106.772 147.59C106.76 147.604 106.75 147.619 106.743 147.636C106.737 147.653 106.734 147.672 106.734 147.69C106.735 147.708 106.739 147.726 106.746 147.743C106.754 147.759 106.765 147.774 106.778 147.787C106.791 147.8 106.807 147.81 106.824 147.816C106.841 147.823 106.859 147.826 106.877 147.825C109.155 147.757 111.438 147.844 113.453 147.925L114.29 147.956H114.295Z" fill="#349393"/>
<path d="M120.211 216.157H120.221C120.258 216.154 120.292 216.137 120.316 216.11C120.341 216.082 120.353 216.046 120.35 216.009C120.25 214.496 120.122 212.248 119.976 209.645C119.24 196.517 118.008 174.545 115.953 172.14C115.941 172.125 115.927 172.113 115.91 172.105C115.893 172.096 115.875 172.091 115.857 172.09C115.838 172.088 115.819 172.091 115.801 172.097C115.784 172.103 115.767 172.112 115.753 172.125C115.739 172.137 115.727 172.151 115.718 172.168C115.71 172.185 115.705 172.203 115.703 172.222C115.702 172.24 115.704 172.259 115.71 172.277C115.716 172.294 115.726 172.311 115.738 172.325C117.732 174.659 119.009 197.431 119.695 209.665C119.841 212.265 119.967 214.518 120.069 216.032C120.073 216.067 120.089 216.099 120.116 216.122C120.142 216.145 120.176 216.158 120.211 216.157Z" fill="#349393"/>
<path d="M68.5461 131.523C68.5367 131.53 68.5281 131.537 68.5202 131.546C68.5079 131.56 68.4984 131.576 68.4924 131.594C68.4864 131.612 68.4842 131.63 68.4856 131.649C68.487 131.668 68.4919 131.686 68.5005 131.703C68.509 131.719 68.5208 131.734 68.5351 131.746C70.4811 133.424 73.8543 134.131 76.1643 134.076C76.1825 134.075 76.2005 134.071 76.2173 134.064C76.234 134.057 76.2491 134.046 76.2617 134.033C76.2743 134.02 76.2841 134.004 76.2907 133.987C76.2974 133.97 76.3007 133.952 76.3003 133.934C76.2992 133.897 76.2837 133.862 76.2571 133.837C76.2304 133.812 76.1949 133.798 76.1582 133.799C73.9002 133.852 70.6083 133.167 68.7173 131.536C68.6943 131.515 68.665 131.502 68.634 131.5C68.603 131.498 68.572 131.506 68.5461 131.523Z" fill="#29075E"/>
<path d="M76.9412 118.533C79.6794 118.453 82.3942 118.002 85.0113 117.193C85.0464 117.183 85.0762 117.159 85.0938 117.127C85.1114 117.095 85.1155 117.057 85.1053 117.022C85.1009 117.004 85.093 116.987 85.0818 116.972C85.0707 116.957 85.0566 116.945 85.0406 116.935C85.0245 116.926 85.0068 116.92 84.9883 116.918C84.9699 116.915 84.9513 116.917 84.9334 116.922C82.091 117.825 79.1222 118.266 76.1402 118.229C76.1221 118.228 76.1039 118.23 76.0867 118.236C76.0696 118.242 76.0539 118.252 76.0403 118.264C76.0268 118.276 76.0158 118.291 76.0079 118.307C76 118.323 75.9952 118.341 75.9942 118.359C75.9931 118.377 75.9958 118.396 76.0018 118.413C76.0078 118.43 76.0172 118.446 76.0294 118.46C76.0415 118.473 76.0561 118.485 76.0726 118.492C76.089 118.5 76.107 118.505 76.1253 118.506C76.3863 118.528 76.6592 118.533 76.9412 118.533Z" fill="#29075E"/>
<path d="M117.048 73.6078C117.078 73.6077 117.107 73.598 117.131 73.58C117.161 73.5579 117.18 73.525 117.185 73.4887C117.191 73.4523 117.181 73.4154 117.159 73.3859C117.059 73.2449 116.937 73.1018 116.814 72.9508C116.29 72.4478 115.945 71.7869 115.832 71.069C115.832 70.487 116.399 70.0069 116.946 69.5419C117.247 69.3089 117.518 69.0402 117.753 68.7419C118.3 67.9579 117.872 66.3419 117.663 65.6779C117.652 65.6429 117.627 65.6139 117.595 65.5968C117.562 65.5798 117.524 65.5761 117.489 65.5868C117.454 65.5981 117.425 65.6229 117.408 65.6557C117.391 65.6885 117.387 65.7266 117.398 65.7619C117.552 66.2469 118.015 67.8809 117.525 68.5829C117.302 68.8602 117.047 69.1104 116.765 69.328C116.198 69.81 115.555 70.3559 115.553 71.0649C115.659 71.8494 116.028 72.5751 116.598 73.1239C116.719 73.2729 116.835 73.413 116.935 73.549C116.948 73.5671 116.965 73.5819 116.985 73.5922C117.004 73.6025 117.026 73.6077 117.048 73.6078Z" fill="#DB6F5E"/>
<path d="M117.953 76.2671C118.48 76.2419 119 76.1326 119.492 75.9431C119.607 75.9051 119.724 75.8681 119.841 75.8311C120.381 75.6997 120.886 75.4508 121.318 75.1021C121.332 75.0897 121.344 75.0745 121.352 75.0576C121.36 75.0407 121.364 75.0224 121.365 75.0037C121.366 74.985 121.363 74.9665 121.356 74.949C121.349 74.9315 121.339 74.9155 121.326 74.9021C121.314 74.8882 121.299 74.8767 121.282 74.8687C121.265 74.8607 121.247 74.8562 121.228 74.8555C121.209 74.8547 121.191 74.8579 121.173 74.8645C121.156 74.8711 121.14 74.8811 121.126 74.8941C120.724 75.2148 120.256 75.4428 119.755 75.562C119.636 75.599 119.518 75.6371 119.401 75.6751C118.893 75.8787 118.349 75.9825 117.801 75.981C116.668 75.913 115.744 74.9731 114.894 74.0171C114.882 74.0027 114.867 73.9909 114.851 73.9824C114.834 73.974 114.816 73.9692 114.797 73.968C114.778 73.9669 114.759 73.9695 114.742 73.9758C114.724 73.9822 114.708 73.9923 114.694 74.0051C114.68 74.0173 114.669 74.0323 114.66 74.0491C114.652 74.0659 114.647 74.0841 114.646 74.1028C114.645 74.1215 114.648 74.1401 114.654 74.1577C114.661 74.1753 114.671 74.1914 114.683 74.2051C115.571 75.2051 116.542 76.187 117.783 76.261C117.847 76.265 117.9 76.2671 117.953 76.2671Z" fill="#DB6F5E"/>
<path d="M121.66 142.234C121.682 142.234 121.703 142.229 121.722 142.219C121.742 142.209 121.758 142.195 121.771 142.178C122.359 141.391 122.751 140.476 122.915 139.508C122.921 139.472 122.913 139.434 122.891 139.404C122.87 139.374 122.837 139.354 122.801 139.348C122.765 139.342 122.728 139.35 122.698 139.372C122.668 139.393 122.647 139.426 122.641 139.462C122.485 140.386 122.11 141.261 121.549 142.012C121.538 142.027 121.53 142.043 121.526 142.061C121.521 142.079 121.52 142.097 121.523 142.115C121.525 142.133 121.531 142.151 121.541 142.166C121.55 142.182 121.562 142.196 121.577 142.207C121.601 142.225 121.63 142.234 121.66 142.234Z" fill="#C1E6DD"/>
<path d="M113.013 167.964C113.043 167.964 113.072 167.954 113.096 167.936C113.12 167.918 113.137 167.893 113.145 167.864C113.431 166.904 113.634 165.921 113.752 164.926C113.815 164.498 113.882 164.054 113.96 163.626L113.995 163.433C114.195 162.339 114.362 161.187 114.518 159.913C114.645 158.865 114.762 157.743 114.884 156.382C114.968 155.437 115.047 154.476 115.123 153.546L115.18 152.846C115.288 151.533 115.38 150.431 115.493 149.318C115.556 148.69 115.618 148.118 115.683 147.559C115.694 147.467 115.703 147.374 115.713 147.279C115.727 146.846 115.829 146.419 116.013 146.027C116.067 145.921 116.136 145.824 116.219 145.739C116.3 145.693 116.394 145.675 116.486 145.688C116.63 145.701 116.766 145.761 116.873 145.859C116.979 145.957 117.051 146.087 117.076 146.23C117.082 146.266 117.102 146.299 117.131 146.321C117.161 146.342 117.198 146.351 117.234 146.346C117.271 146.34 117.303 146.321 117.325 146.291C117.347 146.261 117.356 146.224 117.35 146.188C117.314 145.984 117.211 145.798 117.058 145.657C116.905 145.517 116.711 145.431 116.504 145.412C116.34 145.395 116.176 145.436 116.039 145.528C115.931 145.633 115.841 145.756 115.772 145.891C115.568 146.317 115.456 146.781 115.442 147.253C115.433 147.346 115.423 147.438 115.413 147.528C115.348 148.085 115.286 148.662 115.223 149.292C115.112 150.406 115.017 151.51 114.909 152.824L114.852 153.524C114.776 154.453 114.697 155.414 114.613 156.358C114.491 157.715 114.375 158.835 114.248 159.88C114.093 161.149 113.923 162.295 113.728 163.38L113.693 163.572C113.614 164.002 113.548 164.448 113.484 164.879C113.366 165.858 113.166 166.825 112.884 167.77C112.873 167.805 112.876 167.843 112.892 167.876C112.909 167.908 112.938 167.933 112.972 167.945C112.985 167.954 112.999 167.96 113.013 167.964Z" fill="#349393"/>
<path d="M113.687 145.39C113.721 145.39 113.753 145.378 113.778 145.356C113.804 145.334 113.82 145.303 113.824 145.27C113.829 145.234 113.819 145.197 113.797 145.167C113.775 145.138 113.742 145.119 113.705 145.114L107.322 144.247C107.286 144.242 107.249 144.252 107.22 144.274C107.19 144.297 107.171 144.33 107.166 144.366C107.161 144.402 107.171 144.439 107.193 144.468C107.216 144.498 107.249 144.517 107.285 144.522L113.667 145.389L113.687 145.39Z" fill="#349393"/>
<path d="M127.322 163.249H127.345C127.381 163.243 127.413 163.223 127.434 163.194C127.456 163.165 127.465 163.129 127.46 163.093L125.714 150.071C125.709 150.035 125.69 150.002 125.661 149.979C125.632 149.957 125.595 149.947 125.558 149.952C125.522 149.957 125.489 149.976 125.467 150.005C125.444 150.035 125.434 150.071 125.439 150.108L127.152 162.884C127.148 162.905 127.148 162.926 127.152 162.947L127.188 163.138C127.195 163.169 127.211 163.197 127.236 163.217C127.26 163.237 127.291 163.249 127.322 163.249Z" fill="#349393"/>
<path d="M108.769 163.669C108.803 163.669 108.836 163.657 108.861 163.634C108.886 163.612 108.903 163.581 108.907 163.548L110.707 149.876C110.712 149.84 110.702 149.803 110.68 149.773C110.658 149.744 110.625 149.725 110.588 149.72C110.552 149.715 110.515 149.725 110.486 149.747C110.456 149.769 110.437 149.803 110.432 149.839L108.632 163.512C108.627 163.549 108.637 163.585 108.659 163.615C108.682 163.644 108.715 163.663 108.751 163.668L108.769 163.669Z" fill="#349393"/>
<path d="M98.1323 155.946C98.1525 155.946 98.1724 155.942 98.1907 155.933C98.2091 155.925 98.2252 155.912 98.2382 155.897C99.3013 154.638 100.011 153.12 100.293 151.497C100.299 151.461 100.291 151.423 100.27 151.393C100.249 151.363 100.216 151.343 100.18 151.336C100.144 151.33 100.107 151.338 100.077 151.359C100.046 151.381 100.026 151.413 100.019 151.449C99.7446 153.022 99.0568 154.493 98.0263 155.713C98.0139 155.727 98.0045 155.744 97.9986 155.761C97.9927 155.779 97.9906 155.798 97.9921 155.817C97.9937 155.835 97.9991 155.853 98.0079 155.87C98.0167 155.887 98.0287 155.901 98.0433 155.913C98.0681 155.934 98.0996 155.946 98.1323 155.946Z" fill="#29075E"/>
<path d="M100.261 170.814C100.289 170.814 100.316 170.805 100.339 170.79C100.37 170.769 100.391 170.737 100.397 170.701C100.404 170.665 100.396 170.627 100.375 170.597C99.7949 169.752 99.0459 169.037 98.1753 168.497C98.1441 168.477 98.1065 168.471 98.0707 168.48C98.0349 168.488 98.0039 168.51 97.9843 168.541C97.965 168.572 97.9589 168.61 97.9673 168.646C97.9758 168.682 97.9981 168.713 98.0293 168.732C98.8654 169.252 99.5844 169.94 100.141 170.752C100.154 170.772 100.172 170.788 100.193 170.799C100.214 170.809 100.238 170.815 100.261 170.814Z" fill="#29075E"/>
<path d="M101.784 165.893C101.81 165.893 101.836 165.885 101.858 165.871C101.88 165.857 101.898 165.837 101.909 165.814C101.925 165.781 101.927 165.743 101.915 165.708C101.903 165.673 101.877 165.645 101.844 165.629L100.144 164.811C100.128 164.803 100.11 164.798 100.092 164.797C100.074 164.796 100.055 164.799 100.038 164.805C100.021 164.811 100.005 164.82 99.9916 164.832C99.978 164.845 99.9671 164.859 99.9592 164.876C99.9434 164.909 99.9414 164.947 99.9536 164.982C99.9658 165.016 99.9912 165.045 100.024 165.061L101.724 165.879C101.743 165.888 101.763 165.893 101.784 165.893Z" fill="#29075E"/>
<path d="M115.536 126.459C115.554 126.459 115.571 126.455 115.587 126.449C118.003 125.488 120.233 124.115 122.178 122.391C122.192 122.379 122.204 122.364 122.213 122.347C122.221 122.331 122.226 122.312 122.227 122.294C122.228 122.275 122.225 122.256 122.219 122.238C122.213 122.221 122.203 122.205 122.19 122.191C122.178 122.177 122.163 122.165 122.146 122.157C122.13 122.149 122.111 122.144 122.093 122.142C122.074 122.141 122.055 122.144 122.038 122.15C122.02 122.157 122.004 122.166 121.99 122.179C120.069 123.882 117.866 125.238 115.48 126.187C115.446 126.2 115.419 126.227 115.404 126.261C115.389 126.295 115.389 126.333 115.402 126.367C115.412 126.394 115.431 126.418 115.455 126.434C115.479 126.451 115.507 126.459 115.536 126.459Z" fill="#C1E6DD"/>
<path d="M72.0814 134.856L72.0623 134.872C72.0488 134.885 72.038 134.9 72.0306 134.918C72.0232 134.935 72.0193 134.953 72.0193 134.972C72.0193 134.991 72.0232 135.009 72.0306 135.026C72.038 135.043 72.0488 135.059 72.0623 135.072C73.3636 136.348 75.0886 137.101 76.9092 137.188C76.9275 137.189 76.946 137.186 76.9632 137.18C76.9804 137.174 76.9961 137.164 77.0096 137.152C77.0231 137.139 77.0339 137.124 77.0416 137.108C77.0492 137.091 77.0536 137.073 77.0543 137.055C77.0551 137.037 77.0522 137.018 77.046 137.001C77.0397 136.984 77.0302 136.968 77.0179 136.955C77.0055 136.941 76.9905 136.93 76.9739 136.923C76.9574 136.915 76.9395 136.911 76.9212 136.91C75.1693 136.826 73.5095 136.101 72.2574 134.873C72.2345 134.85 72.2042 134.836 72.1722 134.833C72.1401 134.83 72.1082 134.838 72.0814 134.856Z" fill="#29075E"/>
<path d="M53.8002 118.193H53.7812C53.7678 118.196 53.7551 118.201 53.7438 118.208C53.7325 118.216 53.7229 118.226 53.7155 118.237C53.7081 118.248 53.7031 118.261 53.7009 118.275C53.6986 118.288 53.6991 118.302 53.7023 118.315C53.9891 119.634 54.751 120.802 55.8432 121.596C55.854 121.604 55.8663 121.61 55.8796 121.614C55.8928 121.617 55.9066 121.618 55.9201 121.616C55.9336 121.614 55.9467 121.609 55.9582 121.601C55.9697 121.594 55.9796 121.584 55.9872 121.573C55.9956 121.562 56.0017 121.55 56.0051 121.537C56.0084 121.523 56.0092 121.51 56.007 121.496C56.0049 121.483 55.9999 121.469 55.9926 121.458C55.9853 121.446 55.9756 121.437 55.9643 121.429C54.9139 120.665 54.1808 119.541 53.9042 118.272C53.8992 118.248 53.886 118.228 53.8669 118.213C53.8478 118.199 53.8241 118.192 53.8002 118.193Z" fill="#29075E"/>
<path d="M47.5043 99.6671C47.5203 99.666 47.5354 99.6588 47.546 99.6468C47.5567 99.6348 47.5622 99.6191 47.5614 99.6031C47.2492 97.383 46.5116 95.2439 45.3893 93.3031C45.3854 93.2961 45.3803 93.2901 45.3739 93.2852C45.3676 93.2803 45.3602 93.2768 45.3524 93.2747C45.3447 93.2727 45.3367 93.2722 45.3288 93.2733C45.3208 93.2744 45.3132 93.277 45.3063 93.2811C45.2993 93.285 45.2934 93.2904 45.2885 93.2967C45.2836 93.303 45.28 93.3102 45.278 93.318C45.2759 93.3257 45.2754 93.3337 45.2765 93.3416C45.2776 93.3496 45.2802 93.3572 45.2843 93.3641C46.3976 95.289 47.1296 97.4103 47.4403 99.6121C47.4416 99.6279 47.4491 99.6424 47.4611 99.6527C47.4731 99.663 47.4885 99.6682 47.5043 99.6671Z" fill="#DB6F5E"/>
<path d="M49.6144 101.943C49.6222 101.945 49.6304 101.945 49.6383 101.944C49.6463 101.942 49.6539 101.939 49.6605 101.935C49.6672 101.93 49.6729 101.924 49.6771 101.918C49.6814 101.911 49.6843 101.903 49.6854 101.895C49.8484 100.544 49.8272 99.1767 49.6225 97.8311C49.6203 97.8235 49.6164 97.8164 49.6115 97.8101C49.6065 97.8039 49.6004 97.7986 49.5934 97.7948C49.5864 97.7909 49.5789 97.7888 49.5709 97.7879C49.563 97.7871 49.5549 97.7878 49.5473 97.7901C49.5396 97.7923 49.5325 97.7959 49.5263 97.8009C49.5201 97.8058 49.5149 97.812 49.5111 97.8189C49.5073 97.8259 49.5049 97.8337 49.5041 97.8416C49.5032 97.8495 49.504 97.8575 49.5062 97.8651C49.7268 99.1905 49.7471 100.542 49.5663 101.873C49.5641 101.889 49.5679 101.904 49.5768 101.917C49.5857 101.93 49.5991 101.939 49.6144 101.943Z" fill="#DB6F5E"/>
<path d="M53.2463 108.108C53.3869 108.108 53.5259 108.079 53.6553 108.024C53.8488 107.945 54.0133 107.809 54.1262 107.633C54.2392 107.457 54.2952 107.251 54.2864 107.042C54.2798 106.523 54.2335 106.005 54.1482 105.493C53.8826 104.473 53.4327 103.509 52.8203 102.651C52.6273 102.34 52.4452 102.051 52.2822 101.751C52.1422 101.501 52.0083 101.233 51.8823 100.973C51.5712 100.229 51.1227 99.5506 50.5603 98.9729C50.4478 98.8497 50.2999 98.7643 50.137 98.7285C49.974 98.6927 49.8042 98.7083 49.6504 98.773C49.486 98.8709 49.3545 99.0159 49.2734 99.1892C49.1923 99.3625 49.1652 99.5559 49.1953 99.7449C49.2712 100.351 49.4534 100.94 49.7334 101.483C49.9616 101.85 50.1119 102.26 50.175 102.688C50.2382 103.116 50.2128 103.552 50.1003 103.97C50.0673 104.07 50.0272 104.17 49.9812 104.275C49.9019 104.461 49.8797 104.667 49.9172 104.866C49.9548 105.065 50.0506 105.248 50.1924 105.393L52.5163 107.784C52.6098 107.885 52.7227 107.965 52.8481 108.021C52.9736 108.076 53.1091 108.106 53.2463 108.108ZM49.9414 98.8321C50.1434 98.8423 50.3342 98.9272 50.4773 99.0701C51.0278 99.637 51.4669 100.302 51.7722 101.031C51.9022 101.292 52.0362 101.562 52.1782 101.814C52.3432 102.108 52.5252 102.402 52.7192 102.714C53.3226 103.56 53.7669 104.509 54.0303 105.514C54.1143 106.02 54.1598 106.532 54.1662 107.045C54.1733 107.229 54.1235 107.411 54.0237 107.566C53.9239 107.721 53.779 107.842 53.6084 107.912C53.4403 107.986 53.2534 108.007 53.0732 107.971C52.8931 107.935 52.7283 107.845 52.6013 107.712L50.2773 105.32C50.1518 105.193 50.067 105.031 50.0337 104.855C50.0004 104.68 50.0201 104.498 50.0903 104.334C50.1383 104.223 50.1774 104.121 50.2124 104.021C50.3312 103.589 50.3595 103.137 50.2956 102.694C50.2318 102.25 50.0771 101.825 49.8413 101.444C49.5668 100.913 49.388 100.337 49.3132 99.7439C49.2852 99.5791 49.307 99.4097 49.376 99.2573C49.4449 99.105 49.5578 98.9767 49.7002 98.8889C49.7748 98.8506 49.8575 98.83 49.9414 98.8289V98.8321Z" fill="#DB6F5E"/>
<path d="M54.4482 109.624C54.2032 108.265 54.4023 106.856 54.1543 105.5C53.7342 104.17 53.1066 102.915 52.2952 101.781C51.8763 100.775 51.2983 99.8431 50.5833 99.0209C49.9473 98.4479 49.2593 98.9119 49.3193 99.7419C49.4323 101.291 50.7832 102.402 50.2192 103.992C50.1832 104.092 50.1424 104.199 50.0994 104.301C50.0252 104.476 50.0045 104.67 50.04 104.857C50.0756 105.045 50.1659 105.217 50.2993 105.353L54.4482 109.624Z" fill="#F6B2A1"/>
<path d="M10.7485 54.2479C10.6622 54.2107 10.5918 54.1443 10.5496 54.0604C10.5074 53.9765 10.496 53.8805 10.5175 53.789C10.5389 53.6976 10.5919 53.6167 10.667 53.5603C10.7421 53.504 10.8346 53.4758 10.9284 53.4808L12.2595 53.5665C12.357 53.5826 12.4451 53.6343 12.5068 53.7114C12.5685 53.7886 12.5994 53.8859 12.5937 53.9845C12.588 54.0832 12.546 54.1762 12.4758 54.2458C12.4056 54.3153 12.3121 54.3564 12.2135 54.3611L10.8824 54.2754C10.8368 54.2715 10.7919 54.2623 10.7485 54.2479ZM14.0861 54.4692C13.9999 54.432 13.9296 54.3656 13.8873 54.2817C13.8451 54.1979 13.8337 54.1018 13.8551 54.0103C13.8766 53.9189 13.9295 53.8379 14.0047 53.7816C14.0798 53.7252 14.1724 53.6971 14.2662 53.7021L15.5972 53.7878C15.6947 53.804 15.7828 53.8556 15.8445 53.9327C15.9062 54.0099 15.9371 54.1072 15.9314 54.2058C15.9257 54.3045 15.8837 54.3975 15.8135 54.467C15.7433 54.5365 15.6499 54.5777 15.5512 54.5824L14.2201 54.4967C14.1731 54.495 14.1267 54.4862 14.0822 54.4708L14.0861 54.4692ZM17.4277 54.6813C17.3415 54.644 17.2712 54.5777 17.2289 54.4938C17.1867 54.4099 17.1753 54.3139 17.1968 54.2224C17.2182 54.131 17.2711 54.05 17.3463 53.9936C17.4214 53.9373 17.514 53.9092 17.6078 53.9142L18.9388 53.9999C19.0363 54.016 19.1243 54.0677 19.186 54.1448C19.2478 54.222 19.2788 54.3192 19.2731 54.4179C19.2674 54.5165 19.2253 54.6096 19.1551 54.6791C19.0849 54.7486 18.9915 54.7897 18.8928 54.7945L17.5617 54.7088C17.5152 54.7138 17.4683 54.7052 17.4266 54.684L17.4277 54.6813ZM20.7655 54.9026C20.6792 54.8654 20.6088 54.799 20.5666 54.7151C20.5244 54.6312 20.513 54.5351 20.5345 54.4437C20.5559 54.3522 20.6089 54.2713 20.684 54.215C20.7591 54.1586 20.8517 54.1305 20.9454 54.1355L22.2765 54.2212C22.3326 54.2185 22.3886 54.2276 22.4409 54.248C22.4932 54.2683 22.5406 54.2994 22.5801 54.3393C22.6196 54.3792 22.6503 54.427 22.6702 54.4795C22.69 54.532 22.6986 54.588 22.6954 54.6441C22.6921 54.7001 22.6771 54.7548 22.6513 54.8047C22.6256 54.8546 22.5896 54.8985 22.5458 54.9335C22.5019 54.9686 22.4511 54.994 22.3968 55.0082C22.3425 55.0224 22.2858 55.025 22.2305 55.0158L20.8994 54.9301C20.8528 54.9375 20.805 54.9299 20.7631 54.9081L20.7655 54.9026ZM24.1032 55.1238C24.0169 55.0866 23.9465 55.0203 23.9043 54.9364C23.8621 54.8525 23.8507 54.7564 23.8722 54.665C23.8936 54.5736 23.9466 54.4926 24.0217 54.4362C24.0968 54.3799 24.1894 54.3517 24.2832 54.3568L25.6142 54.4425C25.6703 54.4398 25.7263 54.4489 25.7786 54.4692C25.8309 54.4896 25.8783 54.5207 25.9178 54.5606C25.9573 54.6005 25.988 54.6482 26.0079 54.7007C26.0277 54.7532 26.0363 54.8093 26.0331 54.8654C26.0298 54.9214 26.0148 54.9761 25.989 55.026C25.9632 55.0759 25.9273 55.1198 25.8834 55.1548C25.8396 55.1899 25.7889 55.2153 25.7346 55.2295C25.6803 55.2437 25.6236 55.2462 25.5682 55.2371L24.2371 55.1514C24.1904 55.16 24.1422 55.1532 24.0996 55.1322L24.1032 55.1238ZM27.4538 55.3506C27.3675 55.3134 27.2971 55.247 27.2549 55.1631C27.2127 55.0792 27.2013 54.9832 27.2228 54.8917C27.2442 54.8003 27.2972 54.7194 27.3723 54.663C27.4474 54.6067 27.5399 54.5785 27.6337 54.5835L28.9648 54.6692C29.0209 54.6665 29.0768 54.6756 29.1292 54.696C29.1815 54.7163 29.2289 54.7475 29.2684 54.7874C29.3079 54.8272 29.3386 54.875 29.3585 54.9275C29.3783 54.98 29.3869 55.0361 29.3837 55.0922C29.3804 55.1482 29.3654 55.2029 29.3396 55.2527C29.3139 55.3026 29.2779 55.3466 29.234 55.3816C29.1902 55.4167 29.1394 55.4421 29.0851 55.4563C29.0308 55.4704 28.9741 55.473 28.9188 55.4638L27.5877 55.3781C27.5409 55.3851 27.493 55.3794 27.4491 55.3616L27.4538 55.3506ZM30.7915 55.5719C30.7052 55.5346 30.6348 55.4683 30.5926 55.3844C30.5504 55.3005 30.539 55.2045 30.5605 55.113C30.5819 55.0216 30.6348 54.9406 30.71 54.8843C30.7851 54.8279 30.8777 54.7998 30.9715 54.8048L32.3025 54.8905C32.4 54.9067 32.4881 54.9583 32.5498 55.0354C32.6115 55.1126 32.6424 55.2099 32.6367 55.3085C32.631 55.4072 32.589 55.5002 32.5188 55.5698C32.4486 55.6393 32.3551 55.6804 32.2564 55.6851L30.9254 55.5994C30.8777 55.6004 30.8302 55.5955 30.7837 55.5849L30.7915 55.5719ZM34.1291 55.7932C34.0429 55.7559 33.9726 55.6896 33.9303 55.6057C33.8881 55.5218 33.8767 55.4258 33.8981 55.3343C33.9196 55.2429 33.9725 55.1619 34.0477 55.1056C34.1228 55.0492 34.2154 55.0211 34.3092 55.0261L35.6402 55.1118C35.7377 55.128 35.8257 55.1796 35.8874 55.2567C35.9491 55.3339 35.9801 55.4311 35.9744 55.5298C35.9687 55.6284 35.9267 55.7215 35.8565 55.791C35.7863 55.8606 35.6929 55.9017 35.5942 55.9064L34.2631 55.8207C34.2158 55.8228 34.1685 55.8191 34.1221 55.8098L34.1291 55.7932ZM37.4668 56.0145C37.3806 55.9773 37.3102 55.9109 37.268 55.827C37.2258 55.7431 37.2144 55.647 37.2359 55.5556C37.2573 55.4642 37.3102 55.3832 37.3853 55.3269C37.4605 55.2705 37.553 55.2424 37.6468 55.2474L38.9779 55.3331C39.0754 55.3492 39.1634 55.4008 39.2251 55.478C39.2868 55.5552 39.3178 55.6525 39.3121 55.7511C39.3064 55.8498 39.2644 55.9428 39.1942 56.0123C39.124 56.0819 39.0305 56.123 38.9318 56.1277L37.6008 56.042C37.5536 56.0464 37.506 56.0439 37.4595 56.0342L37.4668 56.0145ZM40.8045 56.2357C40.7183 56.1985 40.6479 56.1322 40.6057 56.0483C40.5635 55.9644 40.5521 55.8683 40.5735 55.7769C40.595 55.6855 40.6479 55.6045 40.7231 55.5481C40.7982 55.4918 40.8907 55.4636 40.9845 55.4686L42.3156 55.5544C42.3716 55.5517 42.4277 55.5608 42.48 55.5811C42.5323 55.6015 42.5797 55.6326 42.6192 55.6725C42.6587 55.7124 42.6894 55.7601 42.7093 55.8126C42.7291 55.8651 42.7377 55.9213 42.7344 55.9773C42.7312 56.0333 42.7162 56.0881 42.6904 56.1379C42.6646 56.1878 42.6287 56.2317 42.5848 56.2667C42.541 56.3018 42.4903 56.3272 42.436 56.3414C42.3816 56.3556 42.3249 56.3581 42.2695 56.349L40.9381 56.2642C40.8907 56.2693 40.8428 56.2673 40.7961 56.2582L40.8045 56.2357ZM44.1422 56.4571C44.056 56.4198 43.9856 56.3534 43.9434 56.2695C43.9011 56.1856 43.8898 56.0896 43.9112 55.9981C43.9327 55.9067 43.9856 55.8258 44.0607 55.7694C44.1359 55.7131 44.2285 55.685 44.3222 55.69L45.6533 55.7757C45.7094 55.7729 45.7654 55.7821 45.8177 55.8024C45.87 55.8228 45.9175 55.8539 45.957 55.8938C45.9965 55.9337 46.0271 55.9814 46.047 56.0339C46.0668 56.0864 46.0754 56.1426 46.0721 56.1986C46.0689 56.2546 46.0539 56.3093 46.0281 56.3592C46.0023 56.409 45.9663 56.453 45.9225 56.488C45.8787 56.5231 45.8279 56.5485 45.7736 56.5627C45.7193 56.5769 45.6627 56.5795 45.6073 56.5703L44.2767 56.4859C44.2288 56.492 44.1802 56.4908 44.1326 56.4823L44.1422 56.4571ZM47.4838 56.6691C47.3976 56.6318 47.3272 56.5655 47.285 56.4816C47.2428 56.3978 47.2314 56.3017 47.2529 56.2103C47.2743 56.1188 47.3272 56.0378 47.4024 55.9815C47.4775 55.9251 47.57 55.897 47.6638 55.9021L48.9949 55.9877C49.0924 56.0039 49.1804 56.0555 49.2421 56.1326C49.3038 56.2098 49.3349 56.3071 49.3291 56.4058C49.3234 56.5044 49.2814 56.5975 49.2112 56.667C49.141 56.7365 49.0475 56.7776 48.9489 56.7824L47.6178 56.6966C47.5711 56.7116 47.5207 56.7104 47.4746 56.6934L47.4838 56.6691ZM50.8216 56.8904C50.7353 56.8532 50.6649 56.7868 50.6227 56.7029C50.5805 56.6191 50.5691 56.523 50.5906 56.4316C50.612 56.3401 50.6649 56.2591 50.7401 56.2028C50.8152 56.1464 50.9077 56.1183 51.0015 56.1233L52.3326 56.209C52.3886 56.2063 52.4446 56.2154 52.497 56.2358C52.5493 56.2561 52.5967 56.2873 52.6362 56.3271C52.6757 56.367 52.7064 56.4148 52.7263 56.4673C52.7461 56.5198 52.7547 56.5759 52.7514 56.6319C52.7482 56.688 52.7332 56.7427 52.7074 56.7926C52.6816 56.8424 52.6457 56.8863 52.6018 56.9214C52.558 56.9564 52.5072 56.9819 52.4529 56.996C52.3986 57.0102 52.3419 57.0128 52.2865 57.0036L50.9551 56.9188C50.9083 56.9345 50.8576 56.9341 50.8111 56.9175L50.8216 56.8904ZM54.1721 57.1172C54.0859 57.0799 54.0155 57.0136 53.9733 56.9297C53.9311 56.8458 53.9197 56.7497 53.9411 56.6583C53.9626 56.5668 54.0155 56.4859 54.0906 56.4296C54.1658 56.3732 54.2583 56.3451 54.3521 56.3501L55.6823 56.4354C55.7384 56.4327 55.7943 56.4418 55.8467 56.4622C55.899 56.4825 55.9464 56.5136 55.9859 56.5535C56.0254 56.5934 56.0561 56.6412 56.0759 56.6937C56.0958 56.7462 56.1043 56.8023 56.1011 56.8583C56.0978 56.9144 56.0828 56.969 56.0571 57.0189C56.0313 57.0688 55.9953 57.1127 55.9515 57.1478C55.9076 57.1828 55.8569 57.2083 55.8026 57.2224C55.7483 57.2366 55.6916 57.2392 55.6362 57.23L54.3052 57.1443C54.2581 57.1586 54.2081 57.1596 54.1605 57.147L54.1721 57.1172ZM57.5098 57.3384C57.4236 57.3012 57.3532 57.2349 57.311 57.151C57.2688 57.0671 57.2574 56.971 57.2788 56.8796C57.3003 56.7882 57.3532 56.7072 57.4284 56.6508C57.5035 56.5945 57.596 56.5663 57.6898 56.5713L59.02 56.6567C59.076 56.654 59.132 56.6631 59.1844 56.6834C59.2367 56.7038 59.2841 56.7349 59.3236 56.7748C59.3631 56.8147 59.3938 56.8625 59.4136 56.915C59.4334 56.9675 59.442 57.0235 59.4388 57.0796C59.4355 57.1356 59.4206 57.1904 59.3948 57.2402C59.369 57.2901 59.333 57.334 59.2892 57.369C59.2453 57.4041 59.1946 57.4295 59.1403 57.4437C59.086 57.4579 59.0293 57.4605 58.9739 57.4513L57.6429 57.3656C57.5957 57.381 57.5452 57.3829 57.497 57.3711L57.5098 57.3384ZM60.8475 57.5597C60.7613 57.5225 60.6909 57.4561 60.6487 57.3722C60.6064 57.2883 60.5951 57.1923 60.6165 57.1009C60.638 57.0095 60.6909 56.9285 60.766 56.8721C60.8412 56.8158 60.9337 56.7876 61.0275 56.7926L62.3576 56.878C62.4551 56.8941 62.5432 56.9457 62.6049 57.0229C62.6666 57.1001 62.6976 57.1973 62.6919 57.296C62.6862 57.3946 62.6442 57.4877 62.574 57.5572C62.5038 57.6267 62.4103 57.6678 62.3116 57.6726L60.9806 57.5869C60.9333 57.6039 60.8822 57.6071 60.8332 57.596L60.8475 57.5597ZM64.1852 57.781C64.099 57.7438 64.0286 57.6774 63.9864 57.5936C63.9442 57.5097 63.9328 57.4136 63.9542 57.3221C63.9757 57.2307 64.0286 57.1497 64.1037 57.0934C64.1789 57.037 64.2714 57.009 64.3652 57.014L65.6963 57.0996C65.7525 57.0968 65.8087 57.1058 65.8611 57.1261C65.9136 57.1464 65.9612 57.1776 66.0008 57.2175C66.0404 57.2575 66.0712 57.3053 66.091 57.3579C66.1109 57.4106 66.1195 57.4668 66.1162 57.523C66.1129 57.5792 66.0977 57.634 66.0717 57.6839C66.0458 57.7338 66.0096 57.7777 65.9656 57.8127C65.9215 57.8477 65.8706 57.873 65.8161 57.887C65.7616 57.901 65.7047 57.9033 65.6493 57.8939L64.3192 57.8086C64.2703 57.8203 64.2198 57.8242 64.1697 57.8201L64.1852 57.781ZM67.5229 58.0023C67.4367 57.9651 67.3663 57.8987 67.3241 57.8149C67.2818 57.731 67.2705 57.6349 67.2919 57.5435C67.3134 57.452 67.3663 57.371 67.4414 57.3147C67.5166 57.2583 67.6091 57.2302 67.7029 57.2352L69.0339 57.3209C69.09 57.3182 69.146 57.3273 69.1983 57.3477C69.2507 57.368 69.2981 57.3992 69.3376 57.4391C69.3771 57.4789 69.4078 57.5267 69.4276 57.5792C69.4475 57.6317 69.456 57.6878 69.4528 57.7438C69.4495 57.7999 69.4346 57.8546 69.4088 57.9045C69.383 57.9544 69.347 57.9982 69.3032 58.0333C69.2593 58.0683 69.2086 58.0938 69.1543 58.1079C69.1 58.1221 69.0433 58.1247 68.9879 58.1155L67.6569 58.0299C67.6077 58.0426 67.5569 58.0474 67.5063 58.0441L67.5229 58.0023Z" fill="#FFCF2D"/>
<path d="M23.8567 59.8139C23.8078 59.794 23.7634 59.7645 23.7261 59.7271C23.6888 59.6898 23.6594 59.6453 23.6397 59.5964C23.6199 59.5474 23.6102 59.495 23.611 59.4422C23.6119 59.3894 23.6234 59.3373 23.6447 59.2891C25.0621 55.9504 25.0575 53.0832 23.6069 50.7803C22.956 49.7426 22.0548 48.885 20.9862 48.2862C20.9388 48.2626 20.8965 48.2299 20.8619 48.1898C20.8272 48.1498 20.8009 48.1033 20.7843 48.053C20.7677 48.0027 20.7613 47.9496 20.7654 47.8968C20.7695 47.844 20.784 47.7925 20.8082 47.7454C20.8304 47.6982 20.8619 47.656 20.9007 47.6212C20.9395 47.5863 20.9848 47.5596 21.0341 47.5426C21.0834 47.5255 21.1356 47.5184 21.1876 47.5218C21.2396 47.5252 21.2904 47.539 21.3371 47.5623C22.5362 48.2119 23.5461 49.1617 24.2681 50.3187C26.2769 53.4987 25.4352 57.1252 24.3838 59.6018C24.3632 59.6504 24.3332 59.6945 24.2956 59.7316C24.258 59.7686 24.2134 59.7978 24.1644 59.8175C24.1154 59.8372 24.063 59.8471 24.0102 59.8465C23.9574 59.8459 23.9052 59.8348 23.8567 59.8139Z" fill="#3FB1B5"/>
<path d="M82.7274 84.8057L10.7485 54.2479C10.6786 54.219 10.6184 54.1707 10.5752 54.1086C10.532 54.0465 10.5075 53.9732 10.5048 53.8976C10.4999 53.824 10.516 53.7504 10.5513 53.6855C10.5865 53.6206 10.6394 53.567 10.7039 53.531L56.5093 26.9527C56.5574 26.9246 56.6108 26.9066 56.6662 26.9C56.7215 26.8934 56.7777 26.8983 56.8311 26.9143C56.885 26.9307 56.9347 26.9589 56.9765 26.9967C57.0183 27.0346 57.0512 27.0813 57.0729 27.1333L83.2593 84.2749C83.292 84.3486 83.3025 84.4303 83.2894 84.51C83.2762 84.5896 83.2401 84.6636 83.1854 84.7229C83.1251 84.7793 83.0498 84.8171 82.9686 84.8317C82.8874 84.8464 82.8036 84.8374 82.7274 84.8057ZM11.8 53.8246L82.0916 83.6661L56.5264 27.8622L11.8 53.8246Z" fill="#3FB1B5" stroke="#3FB1B5" stroke-width="1.00056"/>
<path d="M3.19132 54.0645C2.56015 53.7965 2.02259 53.3475 1.64666 52.774C1.27073 52.2006 1.07325 51.5285 1.07927 50.8428C1.08529 50.1571 1.29454 49.4886 1.68049 48.9219C2.06643 48.3551 2.61177 47.9155 3.24755 47.6587C3.88333 47.4019 4.58097 47.3393 5.25229 47.479C5.92361 47.6186 6.53848 47.9542 7.01906 48.4433C7.49965 48.9324 7.82439 49.5531 7.95225 50.2268C8.08012 50.9005 8.00531 51.5969 7.73735 52.2281C7.37782 53.0743 6.69701 53.7431 5.84453 54.0874C4.99205 54.4318 4.03772 54.4235 3.19132 54.0645ZM5.59206 48.4095C5.10716 48.2037 4.57208 48.1463 4.05453 48.2445C3.53698 48.3427 3.06016 48.5922 2.68441 48.9614C2.30866 49.3306 2.05083 49.8029 1.94352 50.3187C1.83622 50.8344 1.88431 51.3704 2.08162 51.8589C2.27893 52.3473 2.61662 52.7663 3.05205 53.0628C3.48747 53.3593 4.00103 53.52 4.5278 53.5247C5.05457 53.5293 5.57086 53.3776 6.01143 53.0887C6.45199 52.7999 6.79703 52.387 7.00289 51.9021C7.13987 51.5802 7.21203 51.2343 7.21526 50.8845C7.2185 50.5346 7.15275 50.1874 7.02176 49.863C6.89076 49.5385 6.69708 49.2431 6.45183 48.9936C6.20657 48.744 5.91457 48.5453 5.59245 48.4086L5.59206 48.4095Z" fill="#FFCF2D"/>
<path d="M7.73737 52.228L6.9978 51.9141L5.79978 54.736L6.53934 55.05L7.73737 52.228Z" fill="#FFCF2D"/>
<path d="M60.016 25.5772C59.3849 25.3092 58.8473 24.8601 58.4714 24.2867C58.0955 23.7132 57.8981 23.0412 57.9041 22.3555C57.9101 21.6698 58.1194 21.0013 58.5053 20.4346C58.8912 19.8678 59.4365 19.4282 60.0723 19.1714C60.7081 18.9145 61.4058 18.852 62.0771 18.9917C62.7484 19.1313 63.3632 19.4669 63.8438 19.956C64.3244 20.4451 64.6492 21.0658 64.777 21.7394C64.9049 22.4131 64.8301 23.1096 64.5622 23.7408C64.2027 24.587 63.5218 25.2558 62.6694 25.6001C61.8169 25.9445 60.8624 25.9362 60.016 25.5772ZM62.4168 19.9222C61.9311 19.7145 61.3949 19.6556 60.8758 19.7527C60.3566 19.8498 59.8778 20.0987 59.5001 20.4679C59.1224 20.8371 58.8627 21.31 58.7538 21.8268C58.6448 22.3437 58.6915 22.8811 58.8881 23.3714C59.0846 23.8616 59.4221 24.2826 59.8579 24.581C60.2937 24.8794 60.8082 25.0419 61.3363 25.048C61.8645 25.054 62.3826 24.9033 62.8251 24.6149C63.2675 24.3264 63.6146 23.9133 63.8223 23.4277C63.9614 23.1054 64.0353 22.7587 64.04 22.4076C64.0446 22.0566 63.9797 21.7081 63.8491 21.3822C63.7186 21.0563 63.5248 20.7594 63.2791 20.5087C63.0333 20.258 62.7404 20.0584 62.4172 19.9213L62.4168 19.9222Z" fill="#FFCF2D"/>
<path d="M60.9921 16.3934L60.2525 16.0795L56.9622 23.8297L57.7018 24.1437L60.9921 16.3934Z" fill="#FFCF2D"/>
<path d="M87.4244 89.7367C86.578 89.3774 85.9091 88.6966 85.5647 87.844C85.2203 86.9915 85.2287 86.037 85.588 85.1906C85.9473 84.3442 86.6282 83.6753 87.4807 83.3309C88.3333 82.9865 89.2877 82.9949 90.134 83.3542L89.8212 84.091C89.171 83.8149 88.4378 83.8085 87.7828 84.0731C87.1278 84.3376 86.6048 84.8516 86.3287 85.5018C86.0527 86.1521 86.0462 86.8853 86.3108 87.5403C86.5754 88.1953 87.0893 88.7183 87.7396 88.9944L87.4244 89.7367Z" fill="#FFCF2D"/>
</svg>
