<svg width="64" height="106" viewBox="0 0 64 106" fill="none" xmlns="http://www.w3.org/2000/svg">
<path d="M63.9965 28.6376C63.5068 28.6376 63.0154 28.6376 62.4938 28.6197L61.6387 28.6089C58.6877 28.6044 55.7398 28.4118 52.8126 28.0324C49.3849 27.4438 46.033 26.469 42.8192 25.1264C39.897 23.9015 36.852 23.0018 33.7377 22.4431C32.582 22.3286 31.418 22.3286 30.2623 22.4431C27.1528 23.0008 24.1125 23.8993 21.195 25.1228C17.9763 26.4672 14.6198 27.4443 11.1874 28.036C8.26153 28.4168 5.31473 28.6094 2.36481 28.6125L1.51329 28.6233C1.02187 28.6376 0.569481 28.6412 0.122412 28.6412H0V12.6386L0.0106116 12.5902V6.55548C0.0106116 6.43163 0.0592435 6.31288 0.145747 6.2253C0.23225 6.13773 0.349556 6.08855 0.47189 6.08855H7.20098C7.32332 6.08855 7.44062 6.13773 7.52713 6.2253C7.61363 6.31288 7.66226 6.43163 7.66226 6.55548V11.0977C7.65329 11.9173 7.9644 12.7074 8.52797 13.296C8.804 13.5775 9.13237 13.8008 9.49411 13.9531C9.85586 14.1054 10.2438 14.1836 10.6356 14.1832C10.7367 14.1832 10.8396 14.1832 10.9372 14.1689C15.8862 13.4114 20.6549 11.7364 25.0039 9.22798C25.5947 8.91906 26.0595 8.67483 26.3859 8.52756C26.9065 8.28827 27.3485 7.9029 27.6595 7.41715C27.9704 6.93141 28.1374 6.36565 28.1405 5.78682V0.466984C28.1405 0.343137 28.1891 0.224325 28.2756 0.136752C28.3621 0.0491786 28.4794 0 28.6017 0H35.3947C35.517 0 35.6343 0.0491786 35.7208 0.136752C35.8074 0.224325 35.856 0.343137 35.856 0.466984V5.78501C35.8587 6.36394 36.0254 6.92991 36.3364 7.41573C36.6474 7.90155 37.0896 8.28682 37.6105 8.52575C37.937 8.67661 38.4053 8.92085 38.9943 9.22617C43.3435 11.7355 48.1129 13.4105 53.0628 14.167C53.1618 14.1771 53.2613 14.1819 53.3609 14.1814C54.1496 14.1809 54.906 13.8638 55.4641 13.2995C56.0221 12.7352 56.3363 11.9698 56.3377 11.1713V6.55548C56.3377 6.43163 56.3864 6.31288 56.4729 6.2253C56.5594 6.13773 56.6767 6.08855 56.799 6.08855H63.5281C63.6504 6.08855 63.7677 6.13773 63.8543 6.2253C63.9408 6.31288 63.9894 6.43163 63.9894 6.55548V12.592L64 12.6404V28.6394L63.9965 28.6376Z" fill="#F4B223"/>
<path d="M59.3303 40.5832C58.7768 40.5634 58.2233 40.5239 57.6645 40.4843L57.0985 40.4431C54.7125 40.2976 52.336 40.0224 49.9791 39.6187L49.5817 39.5433L49.3848 39.5055C48.7604 39.378 48.1217 39.2272 47.4333 39.0494C47.0945 38.956 46.7414 38.8536 46.3689 38.744L46.3174 38.7296C45.6078 38.5069 44.8609 38.2483 44.0431 37.9466C43.2891 37.6646 42.5528 37.3736 41.8414 37.0881L41.6782 37.0234L41.2879 36.8618C38.626 35.6707 35.8049 34.884 32.916 34.527C32.5612 34.4964 32.2916 34.4821 32.0059 34.4821C31.7203 34.4821 31.4151 34.4964 31.0763 34.527C28.1899 34.8852 25.3714 35.6719 22.7115 36.8618L22.3034 37.0306L22.158 37.0899C21.4483 37.3719 20.7015 37.6664 19.9457 37.9519C19.1314 38.2537 18.3881 38.5123 17.6749 38.735L17.6305 38.7494C17.2438 38.8625 16.8943 38.9667 16.5483 39.0583C15.8724 39.2379 15.2355 39.3888 14.5968 39.5181L14.4106 39.5522L14.0061 39.6277C11.654 40.0301 9.28211 40.3041 6.90088 40.4484L6.32786 40.4898C5.7708 40.5275 5.21906 40.5652 4.6691 40.5867L2.99609 36.5439H3.04401C3.25867 36.5546 3.47865 36.5618 3.71638 36.5618C4.46682 36.5618 5.2297 36.5062 6.044 36.4523L6.64539 36.411C8.87546 36.2741 11.0968 36.0175 13.3 35.6423L13.4774 35.6081C13.5963 35.5848 13.7151 35.5633 13.8322 35.5399C14.3378 35.4411 14.8771 35.3136 15.5318 35.1412C15.8635 35.0478 16.1793 34.9616 16.4916 34.8664C17.2012 34.6437 17.8736 34.4102 18.5654 34.148C19.3425 33.8588 20.1231 33.5499 20.8487 33.25L21.2461 33.0919C24.2674 31.761 27.4653 30.886 30.7375 30.4949C30.9681 30.4751 31.463 30.4644 32.0006 30.4644C32.5381 30.4644 33.026 30.4787 33.2602 30.4949C36.532 30.888 39.7295 31.7629 42.7515 33.0919L43.1489 33.25C43.8745 33.5427 44.6516 33.8517 45.4322 34.148C46.1418 34.412 46.8107 34.6455 47.4919 34.8664C47.8183 34.9634 48.1323 35.046 48.4517 35.1412C49.1205 35.3208 49.6633 35.4429 50.1689 35.5435L50.5114 35.6118L50.6781 35.6423C52.8871 36.0194 55.1144 36.2772 57.3504 36.4146L57.9536 36.4559C58.7644 36.5116 59.5308 36.5655 60.2777 36.5655C60.5154 36.5655 60.739 36.5654 60.9536 36.5475H61.0015L59.3303 40.5832Z" fill="#D5D5D5"/>
<path d="M7.9707 48.5788C8.85774 48.5411 9.79269 48.4136 10.7542 48.2807L10.9139 48.261C12.821 47.997 14.7104 47.636 16.5466 47.1834L16.5803 47.1726L16.9742 47.0595C17.4053 46.9391 17.8772 46.7954 18.4502 46.605L18.5921 46.5566C18.6933 46.5224 18.7962 46.4883 18.8973 46.4577L19.2734 46.3266C19.8198 46.1201 20.3999 45.8866 21.0049 45.637C21.5371 45.4071 22.0427 45.1862 22.5359 44.9671L23.3094 44.6312C25.9726 43.372 28.8591 42.669 31.7966 42.564H32.194C35.1293 42.6682 38.0137 43.3714 40.6741 44.6312L41.4476 44.9707C41.9391 45.1862 42.4447 45.4107 42.968 45.6334C43.5783 45.8884 44.1584 46.1219 44.7048 46.3266L45.081 46.4577C45.1821 46.4883 45.285 46.5224 45.3861 46.5566L45.5245 46.605C46.1011 46.7972 46.573 46.9427 47.0147 47.0612L47.4157 47.178H47.4334C49.2696 47.6252 51.159 47.9844 53.0555 48.2556L53.2329 48.2789C54.1838 48.4136 55.1205 48.5394 56.0057 48.5771L54.3807 52.5068C53.8272 52.4457 53.2914 52.3721 52.7681 52.3002L52.5037 52.2625C50.4676 51.9825 48.4472 51.5958 46.4506 51.1041L45.9041 50.9532C45.3613 50.7988 44.8486 50.6371 44.3075 50.4557H44.2897C44.1229 50.4036 43.9633 50.3533 43.8143 50.2976L43.3317 50.136C42.6327 49.8684 42.0047 49.617 41.4175 49.3691C40.8853 49.1392 40.353 48.9094 39.8421 48.6849L39.0846 48.3543C36.9015 47.3091 34.534 46.7167 32.1213 46.6122H31.8498C29.4331 46.7119 27.0611 47.3044 24.8759 48.3543L24.1184 48.6849C23.6063 48.9076 23.0794 49.1368 22.5377 49.3727C21.954 49.6206 21.326 49.8702 20.627 50.1396L20.1445 50.3013C19.999 50.3569 19.8393 50.4073 19.6726 50.4593H19.6548C19.1048 50.6389 18.5904 50.8023 18.0404 50.9568L17.5082 51.1041C15.5117 51.5965 13.4912 51.9832 11.455 52.2625L11.2013 52.2966C10.6691 52.3685 10.1368 52.4439 9.57976 52.5068L7.9707 48.5788Z" fill="#D5D5D5"/>
<path d="M49.4817 64.425C48.9317 64.3118 48.4066 64.1915 47.9098 64.0658C46.2174 63.6534 44.5469 63.1535 42.9051 62.5679L42.4226 62.3757L41.9986 62.1961C41.8868 62.1476 41.7751 62.1027 41.6633 62.0578L40.9874 61.7723L40.7639 61.6789C40.6787 61.6448 40.597 61.6106 40.5119 61.5801L40.3558 61.5154C39.8094 61.2604 39.3038 61.0179 38.8124 60.7701L38.344 60.5366L37.9891 60.357C37.6201 60.1774 37.2671 59.9978 36.9247 59.8182C35.4482 59.0733 33.8266 58.6696 32.1773 58.6364H31.8508C30.2014 58.6696 28.5799 59.0733 27.1034 59.8182C26.7486 59.987 26.4044 60.1648 26.0389 60.357L25.6717 60.5366L25.214 60.7629C24.719 61.0107 24.2134 61.255 23.667 61.5083L23.5002 61.5765L23.259 61.6734L23.0319 61.7668L22.3471 62.056C22.2424 62.0973 22.1306 62.1458 22.0153 62.1943C21.9 62.2428 21.7368 62.3111 21.5913 62.3739L21.1088 62.5661C19.4671 63.1522 17.7966 63.6522 16.1041 64.064C15.6393 64.1771 15.1071 64.301 14.5323 64.4232L12.9551 60.6031C13.7321 60.4719 14.5021 60.2942 15.178 60.1325C16.7217 59.7594 18.2453 59.3055 19.7427 58.7729L20.0975 58.6364L20.3956 58.5125L20.8373 58.3329L21.5026 58.0581L22.0455 57.8354L22.065 57.8246C22.5298 57.6055 23.0088 57.381 23.4594 57.1511L23.4967 57.1331C23.761 57.002 24.02 56.8763 24.2666 56.7452L24.6214 56.5656L25.3684 56.1938C27.3827 55.1864 29.5936 54.6464 31.8402 54.6133H32.195C34.4416 54.646 36.6526 55.186 38.6669 56.1938C38.9117 56.3141 39.1548 56.4345 39.4102 56.5656L39.7792 56.7452C39.9868 56.8511 40.2103 56.9607 40.441 57.0793L40.5829 57.1511C41.037 57.381 41.516 57.6037 41.9737 57.821L41.9933 57.8318L42.5397 58.0545L43.2085 58.3329L43.6396 58.5125L43.9554 58.6436L44.2872 58.7747C45.784 59.3095 47.3077 59.7639 48.8519 60.1361C49.5278 60.2977 50.3013 60.4755 51.0784 60.6066L49.4817 64.425Z" fill="#D5D5D5"/>
<path d="M17.8867 72.5755C19.589 71.998 21.2406 71.277 22.824 70.4203L22.8435 70.4095L22.863 70.3951C23.2764 70.1437 23.7146 69.8761 24.1191 69.6605C24.3497 69.533 24.5236 69.4378 24.685 69.3588L24.7152 69.3444L24.8712 69.2475L25.1693 69.0679L25.1924 69.0535C25.4 68.9224 25.6058 68.7967 25.8027 68.6781C26.4041 68.3063 26.9097 68.0082 27.3532 67.7549C28.7677 66.9426 30.3662 66.5156 31.9924 66.5156C33.6187 66.5156 35.2172 66.9426 36.6317 67.7549C37.0805 68.0118 37.5719 68.3046 38.1716 68.6727C38.3791 68.7967 38.5814 68.9206 38.7925 69.0535L38.8156 69.0679C38.9167 69.1271 39.016 69.1882 39.1207 69.2475L39.2733 69.3409L39.3034 69.3552C39.4666 69.4343 39.6388 69.5348 39.8658 69.6534C40.2739 69.8761 40.7316 70.1509 41.1254 70.3915L41.1449 70.4059L41.1645 70.4167C42.7482 71.2728 44.3997 71.9937 46.1018 72.5719L32.4165 105.714C32.3815 105.799 32.3226 105.871 32.2472 105.922C32.1717 105.973 32.0831 106 31.9924 106C31.9018 106 31.8131 105.973 31.7377 105.922C31.6622 105.871 31.6034 105.799 31.5685 105.714L17.8867 72.5755Z" fill="#F4B223"/>
</svg>
