<svg width="205" height="158" viewBox="0 0 205 158" fill="none" xmlns="http://www.w3.org/2000/svg">
<path d="M27.4882 88.0789L24.0712 91.0718C23.508 90.4024 23.016 89.6761 22.6032 88.9048L1.2982 49.2048C1.09378 48.8258 0.991217 48.4003 1.00059 47.9697C1.00996 47.5392 1.13095 47.1183 1.35166 46.7485C1.57238 46.3788 1.8853 46.0727 2.25981 45.8601C2.63431 45.6475 3.05757 45.5359 3.4882 45.5359H6.46916C7.63693 45.5348 8.78306 45.851 9.78495 46.4509C10.7868 47.0509 11.6069 47.9119 12.1572 48.9419L28.9102 80.1548C29.6113 81.44 29.8524 82.9262 29.5939 84.3672C29.3353 85.8082 28.5924 87.1176 27.4882 88.0789Z" fill="#FFCF2D"/>
<path d="M85.4872 88.9496L35.9162 99.1318V98.0998C35.9167 95.7032 36.7441 93.3801 38.2589 91.5229C39.7736 89.6657 41.8826 88.3881 44.2302 87.9057L76.1652 81.3466C77.2933 81.1156 78.4587 81.1384 79.5768 81.4133C80.695 81.6882 81.738 82.2084 82.6303 82.9362C83.5226 83.664 84.2419 84.5812 84.736 85.6213C85.2301 86.6614 85.4868 87.7982 85.4872 88.9496Z" fill="#FFCF2D"/>
<path d="M79.8682 152.315V102.652C79.8678 101.687 79.6528 100.735 79.2387 99.8642C78.8247 98.9932 78.2221 98.2254 77.4745 97.6162C76.7269 97.0069 75.8531 96.5715 74.9165 96.3418C73.9798 96.1121 73.0038 96.0936 72.0592 96.2878L40.9272 102.675C39.1061 103.047 37.4084 103.873 35.9912 105.075C34.5741 106.278 33.4834 107.819 32.8202 109.555L16.3882 152.315" stroke="#9A3B82" stroke-width="2" stroke-miterlimit="10" stroke-linecap="round"/>
<path d="M1.1712 48.9888L25.3772 94.0889C26.3866 95.9704 27.9766 97.4757 29.9105 98.3806C31.8445 99.2855 34.019 99.5416 36.1102 99.1108L85.6012 88.9519" stroke="#9A3B82" stroke-width="2" stroke-miterlimit="10" stroke-linecap="round"/>
<path d="M150.464 55.0322L150.708 53.4948C150.814 52.6265 151.01 51.7717 151.293 50.944L166.255 3.38223C166.862 1.59424 165.541 1.27501 166.824 2.65069L167.477 1.59168C170.423 3.7853 170.273 6.53381 169.505 8.78668L153.557 53.0091C153.218 53.5494 152.766 54.0098 152.232 54.359C151.698 54.7082 151.095 54.9379 150.464 55.0322H150.464Z" fill="#3A9EFD"/>
<path d="M166.708 1.33257L152.415 50.4753C151.82 52.5254 150.578 54.3283 148.874 55.6156C147.171 56.9028 145.098 57.6055 142.963 57.6193L92.7296 57.6255" stroke="#35D4D9" stroke-width="1.99975" stroke-miterlimit="10" stroke-linecap="round"/>
<path d="M108.127 39.1189H66.2392V44.7149H108.127V39.1189Z" fill="#8021C8"/>
<path d="M73.8762 33.0407C73.4897 33.4427 73.2273 33.9477 73.1205 34.495C73.0136 35.0424 73.0668 35.609 73.2738 36.1268C73.4808 36.6447 73.8326 37.092 74.2872 37.4149C74.7419 37.7379 75.28 37.9227 75.8372 37.9476H114.045C114.045 38.2659 113.919 38.5712 113.694 38.7963C113.469 39.0213 113.163 39.1478 112.845 39.1478H66.7372C65.5664 39.1583 64.4352 38.724 63.5721 37.9327C63.1615 37.5617 62.833 37.1088 62.6079 36.6032C62.3828 36.0975 62.2661 35.5502 62.2651 34.9967C62.3104 33.8552 62.8067 32.7783 63.6451 32.0023C64.4835 31.2264 65.5956 30.8148 66.7372 30.8578H112.845C113.163 30.8578 113.469 30.9841 113.694 31.2091C113.919 31.4342 114.045 31.7395 114.045 32.0577V32.2758H75.8372C75.112 32.2828 74.4146 32.5548 73.8762 33.0407Z" fill="#3A9EFD"/>
<path d="M111.281 32.2968V37.8468H114.033V38.3058H75.7002C75.2893 38.3068 74.8819 38.2291 74.5002 38.0768C74.0957 37.9166 73.7287 37.6746 73.4222 37.3658C72.9685 36.914 72.6591 36.3376 72.5333 35.7098C72.4074 35.0821 72.4707 34.4311 72.715 33.8392C72.9594 33.2474 73.3738 32.7415 73.9059 32.3854C74.4381 32.0293 75.0639 31.8389 75.7042 31.8387H114.037V32.2977L111.281 32.2968Z" fill="#3A9EFD"/>
<path d="M112.347 32.2968V37.8468H75.8372C75.1012 37.8468 74.3954 37.5545 73.8749 37.0341C73.3545 36.5136 73.0622 35.8079 73.0622 35.0719C73.0622 34.3359 73.3545 33.6299 73.8749 33.1095C74.3954 32.5891 75.1012 32.2968 75.8372 32.2968H112.347Z" fill="white"/>
<path d="M112.347 32.2959V37.8459" stroke="#3A9EFD" stroke-width="2" stroke-miterlimit="10"/>
<path d="M80.9392 36.2299V40.8629H77.7391V36.8268C77.7393 36.5979 77.6944 36.3713 77.6068 36.1598C77.5193 35.9483 77.3909 35.756 77.229 35.5941C77.0671 35.4322 76.8749 35.3037 76.6633 35.2162C76.4518 35.1286 76.2251 35.0837 75.9962 35.0839H74.5752V34.484H79.2081C79.6685 34.4882 80.1087 34.6739 80.4329 35.0009C80.757 35.3278 80.939 35.7695 80.9392 36.2299Z" fill="#FFCF2D"/>
<path d="M112.065 52.1189H70.1772V57.7149H112.065V52.1189Z" fill="#66B0F0"/>
<path d="M104.428 46.0407C104.815 46.4427 105.077 46.9477 105.184 47.495C105.291 48.0424 105.237 48.609 105.031 49.1268C104.824 49.6447 104.472 50.092 104.017 50.4149C103.562 50.7379 103.024 50.9227 102.467 50.9476H64.2601C64.2601 51.2659 64.3867 51.5712 64.6117 51.7963C64.8367 52.0213 65.1419 52.1478 65.4602 52.1478H111.568C112.739 52.1583 113.87 51.724 114.733 50.9327C115.144 50.5617 115.472 50.1088 115.697 49.6032C115.922 49.0975 116.039 48.5502 116.04 47.9967C115.995 46.8552 115.499 45.7783 114.66 45.0023C113.822 44.2264 112.71 43.8148 111.568 43.8578H65.4602C65.1419 43.8578 64.8367 43.9841 64.6117 44.2091C64.3867 44.4342 64.2601 44.7395 64.2601 45.0577V45.2758H102.467C103.192 45.2828 103.89 45.5548 104.428 46.0407Z" fill="#FE5244"/>
<path d="M67.0232 45.2968V50.8468H64.2712V51.3058H102.604C103.015 51.3068 103.422 51.2291 103.804 51.0768C104.209 50.9166 104.576 50.6746 104.882 50.3658C105.336 49.914 105.645 49.3376 105.771 48.7098C105.897 48.0821 105.834 47.4311 105.589 46.8392C105.345 46.2474 104.931 45.7415 104.398 45.3854C103.866 45.0293 103.241 44.8389 102.6 44.8387H64.2712V45.2977L67.0232 45.2968Z" fill="#FE5244"/>
<path d="M65.9572 45.2968V50.8468H102.467C103.203 50.8468 103.909 50.5545 104.429 50.0341C104.95 49.5136 105.242 48.8079 105.242 48.0719C105.242 47.3359 104.95 46.6299 104.429 46.1095C103.909 45.5891 103.203 45.2968 102.467 45.2968H65.9572Z" fill="white"/>
<path d="M65.9572 45.2959V50.8459" stroke="#FE5244" stroke-width="2" stroke-miterlimit="10"/>
<path d="M97.3652 49.2299V53.8619H100.565V49.8258C100.565 49.5969 100.61 49.3703 100.698 49.1588C100.785 48.9473 100.914 48.755 101.075 48.5931C101.237 48.4313 101.429 48.3028 101.641 48.2152C101.852 48.1277 102.079 48.0828 102.308 48.0829H103.73V47.4828H99.0971C98.6364 47.4867 98.1959 47.6727 97.8716 47.9999C97.5472 48.3271 97.3652 48.7691 97.3652 49.2299Z" fill="#FFCF2D"/>
<path d="M45.6591 62.5068C45.6591 60.0648 48.0591 58.0808 51.0241 58.0808H156.501C159.461 58.0808 161.865 60.0648 161.865 62.5068" stroke="#25272B" stroke-width="2" stroke-miterlimit="10" stroke-linecap="round"/>
<path d="M161.933 152.316L132.16 66.7278C130.84 62.9438 126.297 60.3059 121.101 60.3059H86.4091C81.2091 60.3059 76.6702 62.9428 75.3502 66.7278L45.5902 152.316" stroke="#25272B" stroke-width="2" stroke-miterlimit="10" stroke-linecap="round"/>
<path d="M188.911 147.536C188.912 149.406 188.573 151.261 187.909 153.009C187.442 154.222 186.617 155.264 185.544 155.997C184.471 156.731 183.201 157.121 181.901 157.116H161.684C160.386 157.12 159.117 156.73 158.046 155.996C156.975 155.263 156.152 154.221 155.687 153.009C155.023 151.261 154.683 149.406 154.684 147.536C154.705 144.869 155.395 142.249 156.689 139.917C157.984 137.584 159.842 135.614 162.095 134.185V130.957C162.095 132.37 166.44 133.516 171.789 133.516C177.138 133.516 181.482 132.37 181.482 130.957V134.194C183.741 135.616 185.605 137.584 186.903 139.915C188.201 142.247 188.891 144.868 188.911 147.536Z" fill="#FE5244"/>
<path d="M181.5 133.306V134.165C179.962 135.388 175.78 136.036 171.807 136.036C167.834 136.036 163.651 135.386 162.113 134.165V133.306C162.294 133.717 163.068 134.252 164.787 134.701C169.411 135.719 174.201 135.719 178.825 134.701C180.546 134.243 181.31 133.707 181.5 133.306Z" fill="white"/>
<path d="M181.5 130.957C181.5 132.37 177.155 133.517 171.807 133.517C166.459 133.517 162.113 132.37 162.113 130.957C162.118 130.764 162.189 130.579 162.314 130.432C163.233 129.276 167.127 128.397 171.807 128.397C176.486 128.397 180.383 129.267 181.3 130.432C181.421 130.581 181.491 130.765 181.5 130.957Z" fill="#66B0F0"/>
<path d="M158.829 143.477C159.505 143.477 160.052 142.929 160.052 142.254C160.052 141.579 159.505 141.031 158.829 141.031C158.154 141.031 157.607 141.579 157.607 142.254C157.607 142.929 158.154 143.477 158.829 143.477Z" stroke="white" stroke-width="0.5" stroke-miterlimit="10"/>
<path d="M162.973 146.486C163.648 146.486 164.196 145.938 164.196 145.263C164.196 144.588 163.648 144.04 162.973 144.04C162.298 144.04 161.75 144.588 161.75 145.263C161.75 145.938 162.298 146.486 162.973 146.486Z" stroke="white" stroke-width="0.5" stroke-miterlimit="10"/>
<path d="M168.13 142.913C168.806 142.913 169.353 142.366 169.353 141.691C169.353 141.015 168.806 140.468 168.13 140.468C167.455 140.468 166.908 141.015 166.908 141.691C166.908 142.366 167.455 142.913 168.13 142.913Z" stroke="white" stroke-width="0.5" stroke-miterlimit="10"/>
<path d="M167.404 151.031C168.079 151.031 168.627 150.484 168.627 149.809C168.627 149.133 168.079 148.586 167.404 148.586C166.729 148.586 166.181 149.133 166.181 149.809C166.181 150.484 166.729 151.031 167.404 151.031Z" stroke="white" stroke-width="0.5" stroke-miterlimit="10"/>
<path d="M162.82 154.593C163.495 154.593 164.042 154.045 164.042 153.37C164.042 152.695 163.495 152.147 162.82 152.147C162.144 152.147 161.597 152.695 161.597 153.37C161.597 154.045 162.144 154.593 162.82 154.593Z" stroke="white" stroke-width="0.5" stroke-miterlimit="10"/>
<path d="M158.198 151.031C158.873 151.031 159.421 150.484 159.421 149.809C159.421 149.133 158.873 148.586 158.198 148.586C157.523 148.586 156.975 149.133 156.975 149.809C156.975 150.484 157.523 151.031 158.198 151.031Z" stroke="white" stroke-width="0.5" stroke-miterlimit="10"/>
<path d="M163.643 138.941C164.318 138.941 164.866 138.393 164.866 137.718C164.866 137.043 164.318 136.495 163.643 136.495C162.968 136.495 162.42 137.043 162.42 137.718C162.42 138.393 162.968 138.941 163.643 138.941Z" stroke="white" stroke-width="0.5" stroke-miterlimit="10"/>
<path d="M173.374 139.866C174.049 139.866 174.597 139.319 174.597 138.644C174.597 137.968 174.049 137.421 173.374 137.421C172.699 137.421 172.151 137.968 172.151 138.644C172.151 139.319 172.699 139.866 173.374 139.866Z" stroke="white" stroke-width="0.5" stroke-miterlimit="10"/>
<path d="M172.35 147.277C173.025 147.277 173.572 146.73 173.572 146.055C173.572 145.379 173.025 144.832 172.35 144.832C171.674 144.832 171.127 145.379 171.127 146.055C171.127 146.73 171.674 147.277 172.35 147.277Z" stroke="white" stroke-width="0.5" stroke-miterlimit="10"/>
<path d="M175.886 152.149C176.561 152.149 177.109 151.601 177.109 150.926C177.109 150.251 176.561 149.703 175.886 149.703C175.211 149.703 174.663 150.251 174.663 150.926C174.663 151.601 175.211 152.149 175.886 152.149Z" stroke="white" stroke-width="0.5" stroke-miterlimit="10"/>
<path d="M171.301 155.816C171.977 155.816 172.524 155.268 172.524 154.593C172.524 153.918 171.977 153.37 171.301 153.37C170.626 153.37 170.079 153.918 170.079 154.593C170.079 155.268 170.626 155.816 171.301 155.816Z" stroke="white" stroke-width="0.5" stroke-miterlimit="10"/>
<path d="M177.194 144.355C177.869 144.355 178.416 143.808 178.416 143.133C178.416 142.457 177.869 141.91 177.194 141.91C176.518 141.91 175.971 142.457 175.971 143.133C175.971 143.808 176.518 144.355 177.194 144.355Z" stroke="white" stroke-width="0.5" stroke-miterlimit="10"/>
<path d="M180.736 139.341C181.412 139.341 181.959 138.794 181.959 138.118C181.959 137.443 181.412 136.896 180.736 136.896C180.061 136.896 179.514 137.443 179.514 138.118C179.514 138.794 180.061 139.341 180.736 139.341Z" stroke="white" stroke-width="0.5" stroke-miterlimit="10"/>
<path d="M184.768 143.401C185.443 143.401 185.99 142.853 185.99 142.178C185.99 141.503 185.443 140.955 184.768 140.955C184.092 140.955 183.545 141.503 183.545 142.178C183.545 142.853 184.092 143.401 184.768 143.401Z" stroke="white" stroke-width="0.5" stroke-miterlimit="10"/>
<path d="M180.153 147.402C180.828 147.402 181.375 146.855 181.375 146.18C181.375 145.504 180.828 144.957 180.153 144.957C179.477 144.957 178.93 145.504 178.93 146.18C178.93 146.855 179.477 147.402 180.153 147.402Z" stroke="white" stroke-width="0.5" stroke-miterlimit="10"/>
<path d="M185.673 149.961C186.349 149.961 186.896 149.413 186.896 148.738C186.896 148.063 186.349 147.515 185.673 147.515C184.998 147.515 184.451 148.063 184.451 148.738C184.451 149.413 184.998 149.961 185.673 149.961Z" stroke="white" stroke-width="0.5" stroke-miterlimit="10"/>
<path d="M181.96 154.66C182.635 154.66 183.182 154.112 183.182 153.437C183.182 152.762 182.635 152.214 181.96 152.214C181.284 152.214 180.737 152.762 180.737 153.437C180.737 154.112 181.284 154.66 181.96 154.66Z" stroke="white" stroke-width="0.5" stroke-miterlimit="10"/>
<path d="M193.218 116.078C193.218 116.078 202.291 111.179 203.791 119.736C205.528 129.62 193.724 138.319 193.724 138.319C191.574 133.732 188.37 129.717 184.374 126.602C178.484 121.913 183.372 109.479 193.218 116.078Z" fill="white" stroke="#FFCF2D" stroke-miterlimit="10"/>
<path d="M175.405 105.183C179.713 105.221 185.9 96.4727 180.056 86.8749C172.998 75.2809 171.782 68.5685 171.782 68.5685C171.782 68.5685 161.407 82.302 163.168 92.8349C163.539 95.9631 164.944 98.8774 167.162 101.115C169.379 103.352 172.281 104.784 175.405 105.183Z" fill="#FFCF2D"/>
<path d="M176.151 99.3557C182.445 101.017 188.423 97.1887 188.547 88.455C188.766 73.0234 191.688 68 191.688 68C191.688 68 172.083 75.0578 169.112 86.0201C166.282 96.4729 176.151 99.3557 176.151 99.3557Z" fill="white" stroke="#FFCF2D" stroke-miterlimit="10"/>
<path d="M149.845 109.518C149.615 109.537 149.378 109.556 149.119 109.575C135.577 110.587 131.68 122.983 131.68 122.983C131.68 122.983 130.85 122.084 131.024 118.981C131.348 110.978 138.712 102.707 147.115 107.961C148.056 108.553 148.973 109.06 149.845 109.518Z" fill="#FFCF2D"/>
<path d="M165.209 112.563C159.899 113.13 154.543 112.067 149.852 109.517C148.974 109.068 148.057 108.553 147.12 107.96C138.715 102.707 131.544 110.981 131.22 118.98C131.202 119.374 131.296 119.768 131.316 120.145C130.528 113.192 130.542 95.8882 151.581 96.4713C166.04 96.8916 165.209 112.563 165.209 112.563Z" fill="white" stroke="#FFCF2D" stroke-miterlimit="10"/>
<path d="M168.647 130.45C168.647 130.45 171.142 95.7163 137.456 100.253" stroke="#FFCF2D" stroke-miterlimit="10"/>
<path d="M191.689 68.0038C170.469 89.6816 174.422 130.451 174.422 130.451C172.19 114.856 185.9 99.3568 193.203 115.668C195.38 120.52 193.709 138.311 193.709 138.311" stroke="#FFCF2D" stroke-miterlimit="10"/>
</svg>
