<svg width="285" height="183" viewBox="0 0 285 183" fill="none" xmlns="http://www.w3.org/2000/svg">
<path opacity="0.21" d="M171.075 31.2659L235.18 181.711H0.425903L62.8209 31.2659H171.075Z" fill="#FFCF2D"/>
<path d="M161.702 31.2659L214.528 181.711H21.0789L72.4949 31.2659H161.702Z" fill="#FFCF2D"/>
<path d="M117.913 13.344C117.913 11.8539 118.206 10.3785 118.777 9.00189C119.347 7.62531 120.183 6.37461 121.237 5.32117C122.291 4.26773 123.542 3.43222 124.918 2.86237C126.295 2.29251 127.771 1.99948 129.261 2H256.413C259.421 2 262.307 3.19516 264.434 5.32257C266.562 7.44998 267.757 10.3354 267.757 13.344V160.144" stroke="#3A9EFD" stroke-width="3" stroke-miterlimit="10"/>
<path d="M172.621 31.8919H61.935V28.4239C61.9358 24.4424 63.5176 20.6243 66.3329 17.809C69.1483 14.9936 72.9665 13.4117 76.9479 13.4109H157.608C161.589 13.4117 165.408 14.9936 168.223 17.809C171.038 20.6243 172.62 24.4424 172.621 28.4239V31.8919Z" fill="#FE5244"/>
<path d="M172.621 29.1179H61.9349" stroke="white" stroke-width="5" stroke-miterlimit="10" stroke-linecap="round"/>
<path d="M161.053 31.8921C161.053 35.8521 158.592 39.0741 155.527 39.0741H78.067C75.024 39.0741 72.5409 35.8521 72.5409 31.8921H161.053Z" fill="white"/>
<path d="M282.993 176.923V181.465H235.157V176.923C235.162 172.474 236.932 168.209 240.078 165.063C243.224 161.917 247.489 160.147 251.938 160.142H266.19C266.414 160.142 266.66 160.142 266.884 160.164C271.214 160.334 275.311 162.175 278.314 165.299C281.317 168.423 282.994 172.589 282.993 176.923Z" fill="white" stroke="#FE5244" stroke-width="3" stroke-miterlimit="10"/>
<path d="M267.757 164.527C267.757 171.709 261.201 177.549 253.124 177.549C245.853 177.549 239.811 172.828 238.692 166.63C240.26 164.611 242.268 162.977 244.564 161.853C246.86 160.728 249.382 160.143 251.938 160.141H266.192C266.416 160.141 266.662 160.141 266.886 160.163C267.468 161.544 267.764 163.029 267.757 164.527Z" fill="white" stroke="#FE5244" stroke-width="3" stroke-miterlimit="10"/>
<path d="M253.526 157.077V164.103C253.438 164.819 253.092 165.477 252.552 165.955C252.012 166.433 251.316 166.696 250.595 166.696C249.874 166.696 249.178 166.433 248.638 165.955C248.098 165.477 247.752 164.819 247.664 164.103V157.077H247.709C247.885 157.702 248.259 158.252 248.776 158.643C249.293 159.035 249.924 159.247 250.573 159.247C251.222 159.247 251.853 159.035 252.37 158.643C252.887 158.252 253.261 157.702 253.437 157.077H253.526Z" fill="#FE5244"/>
<path d="M252.9 156.83C252.896 156.988 252.881 157.145 252.855 157.3C252.765 157.842 252.487 158.334 252.069 158.69C251.652 159.047 251.122 159.244 250.573 159.247C250.026 159.237 249.499 159.037 249.083 158.682C248.667 158.327 248.387 157.839 248.291 157.3C248.265 157.145 248.25 156.988 248.246 156.83C248.238 156.518 248.293 156.208 248.406 155.917C248.519 155.626 248.689 155.361 248.905 155.136C249.121 154.911 249.38 154.732 249.667 154.608C249.953 154.483 250.261 154.417 250.573 154.413C251.2 154.429 251.796 154.692 252.232 155.144C252.667 155.597 252.907 156.202 252.9 156.83Z" fill="white" stroke="#FE5244" stroke-width="3" stroke-miterlimit="10"/>
</svg>
