<svg width="1920" height="954" viewBox="0 0 1920 954" fill="none" xmlns="http://www.w3.org/2000/svg">
<path d="M-0.00012207 887.286C-0.00012207 887.286 177.021 751.718 433.218 887.286C689.415 1022.85 914.812 910.526 959.611 887.286C1004.41 864.046 1228.65 758.328 1461.05 874.529C1693.45 990.73 1925.38 818.559 1925.38 818.559L1920 676.032H-0.00109863L-0.00012207 887.286Z" fill="#D0F0E4"/>
<path d="M1923.84 777.208L-7.68604 776.929V179.387L194.998 82.7729H1761.72L1923.84 169.217V777.208Z" fill="#D0F0E4"/>
<path d="M1377.39 786.017C1377.39 786.017 1368.99 710.396 1423.69 686.063C1423.69 686.063 1431.76 768.338 1404.46 762.953C1394.23 760.923 1416.19 740.96 1452 740.115C1452 740.115 1424.57 786.215 1391.24 786.864" stroke="#31006F" stroke-width="6" stroke-miterlimit="10"/>
<path d="M1391.12 786.751C1391.12 786.751 1387.97 752.151 1354.24 741.383C1323.79 731.683 1377.08 785.904 1377.08 785.904" stroke="#31006F" stroke-width="6" stroke-miterlimit="10"/>
<path d="M935.435 95.391L711.32 95.791C683.85 95.9809 654.669 96.0759 624.404 96.0759C550.738 96.0759 483.404 95.4679 431.904 94.4599H224.592C224.592 57.8449 264.892 73.929 275.521 80.392C287.878 87.901 271.966 47.9221 297.193 47.9221C318.793 47.9221 331.146 58.777 331.146 58.777C331.146 58.777 331.735 37.677 352.21 37.371C372.685 37.065 385.688 55.108 401.847 69.955C408.543 75.8817 416.044 80.8307 424.127 84.655C476.539 83.555 546.954 82.8679 624.403 82.8679C661.093 82.8679 696.187 83.0198 728.562 83.3058C786.088 83.3058 838.762 53.06 853.708 45.475C890.627 26.693 873.137 71.4631 873.137 71.4631C873.137 71.4631 901.596 59.486 921.614 59.581C949.883 59.691 935.435 95.391 935.435 95.391Z" fill="#D0F0E4"/>
<path d="M819.146 94.292C819.146 94.292 824.811 43.3059 787.931 26.8999C787.931 26.8999 782.494 82.3729 800.896 78.7419C807.796 77.3729 792.987 63.9138 768.844 63.3418C768.844 63.3418 787.344 94.4238 809.812 94.8618" stroke="#FFCF2D" stroke-width="3" stroke-miterlimit="10"/>
<path d="M809.89 94.7868C809.89 94.7868 812.019 71.4609 834.756 64.1989C855.287 57.6589 819.356 94.217 819.356 94.217" stroke="#FFCF2D" stroke-width="3" stroke-miterlimit="10"/>
<path d="M299.341 92.658C299.341 92.658 266.741 70.321 257.556 33.877C257.556 33.877 286.414 42.5081 298.656 60.8721C298.656 60.8721 303.675 19.072 315.804 5C315.804 5 322.363 14.4288 323.18 49.3708C323.18 49.3708 338.046 24.0489 349.11 15.8708C349.11 15.8708 347.589 48.8159 339.681 65.6409C339.681 65.6409 351.106 56.741 358.825 65.47C366.544 74.199 351.411 86.97 351.411 86.97" stroke="#FE5244" stroke-width="5" stroke-miterlimit="10"/>
<path d="M315.824 6.23608C315.824 6.23608 316.147 82.392 312.687 92.259" stroke="#FE5244" stroke-width="5" stroke-miterlimit="10"/>
<path d="M348.047 17.7942C348.047 17.7942 325.31 76.2131 312.687 92.2581" stroke="#FE5244" stroke-width="5" stroke-miterlimit="10"/>
<path d="M339.339 65.905C338.503 68.966 332.739 77.4049 331.602 73.7749C330.48 70.1439 340.841 64.27 343.446 63.3" stroke="#FE5244" stroke-width="5" stroke-miterlimit="10"/>
<path d="M298.676 60.8911C300.216 63.8571 305.425 72.1831 300.159 71.9741C296.718 71.8411 299.608 54.374 299.608 54.374" stroke="#FE5244" stroke-width="5" stroke-miterlimit="10"/>
<path d="M917.892 96.08L1185.4 95.791C1212.87 95.9809 1242.05 96.0759 1272.32 96.0759C1345.98 96.0759 1413.32 95.4679 1464.82 94.4599H1672.12C1672.12 57.8449 1631.83 73.929 1621.2 80.392C1608.84 87.901 1624.75 47.9221 1599.52 47.9221C1577.92 47.9221 1565.57 58.777 1565.57 58.777C1565.57 58.777 1564.98 37.677 1544.51 37.371C1524.03 37.065 1511.03 55.108 1494.87 69.955C1488.17 75.8817 1480.67 80.8307 1472.59 84.655C1420.18 83.555 1349.76 82.8679 1272.31 82.8679C1235.62 82.8679 1200.53 83.0198 1168.15 83.3058C1110.63 83.3058 1057.95 53.06 1043.01 45.475C1006.09 26.691 1023.58 71.4609 1023.58 71.4609C1023.58 71.4609 995.122 59.484 975.104 59.579C946.836 59.691 917.892 96.08 917.892 96.08Z" fill="#D0F0E4"/>
<path d="M1077.57 94.292C1077.57 94.292 1071.91 43.3059 1108.79 26.8999C1108.79 26.8999 1114.22 82.3729 1095.82 78.7419C1088.92 77.3729 1103.73 63.9138 1127.87 63.3418C1127.87 63.3418 1109.37 94.4238 1086.91 94.8618" stroke="#3A9EFD" stroke-width="3" stroke-miterlimit="10"/>
<path d="M1086.83 94.7868C1086.83 94.7868 1084.7 71.4609 1061.96 64.1989C1041.43 57.6589 1077.36 94.217 1077.36 94.217" stroke="#3A9EFD" stroke-width="3" stroke-miterlimit="10"/>
<path d="M361.572 719.292C361.572 719.292 355.907 668.306 392.787 651.9C392.787 651.9 398.224 707.373 379.822 703.742C372.922 702.373 387.731 688.914 411.874 688.342C411.874 688.342 393.374 719.424 370.906 719.862" stroke="#FE5244" stroke-width="6" stroke-miterlimit="10"/>
<path d="M370.827 719.787C370.827 719.787 368.698 696.461 345.961 689.199C325.43 682.659 361.361 719.217 361.361 719.217" stroke="#FE5244" stroke-width="6" stroke-miterlimit="10"/>
<path d="M1597.38 92.658C1597.38 92.658 1629.98 70.321 1639.16 33.877C1639.16 33.877 1610.3 42.5081 1598.06 60.8721C1598.06 60.8721 1593.04 19.072 1580.91 5C1580.91 5 1574.35 14.4288 1573.54 49.3708C1573.54 49.3708 1558.67 24.0489 1547.61 15.8708C1547.61 15.8708 1549.13 48.8159 1557.04 65.6409C1557.04 65.6409 1545.61 56.741 1537.89 65.47C1530.17 74.199 1545.31 86.97 1545.31 86.97" stroke="#8021C8" stroke-width="5" stroke-miterlimit="10"/>
<path d="M1580.9 6.23608C1580.9 6.23608 1580.57 82.392 1584.03 92.259" stroke="#8021C8" stroke-width="5" stroke-miterlimit="10"/>
<path d="M1548.67 17.7939C1548.67 17.7939 1571.41 76.2128 1584.03 92.2578" stroke="#8021C8" stroke-width="5" stroke-miterlimit="10"/>
<path d="M1557.38 65.905C1558.22 68.966 1563.98 77.4049 1565.12 73.7749C1566.24 70.1439 1555.88 64.27 1553.27 63.3" stroke="#8021C8" stroke-width="5" stroke-miterlimit="10"/>
<path d="M1598.04 60.8909C1596.5 63.8569 1591.29 72.1829 1596.56 71.9739C1600 71.8409 1597.11 54.3738 1597.11 54.3738" stroke="#8021C8" stroke-width="5" stroke-miterlimit="10"/>
</svg>
