<svg width="122" height="122" viewBox="0 0 122 122" fill="none" xmlns="http://www.w3.org/2000/svg">
<path d="M60.73 0C76.8366 0 92.2835 6.39832 103.673 17.7874C115.062 29.1765 121.46 44.6234 121.46 60.73C121.46 76.8366 115.062 92.2835 103.673 103.673C92.2835 115.062 76.8366 121.46 60.73 121.46C44.6234 121.46 29.1765 115.062 17.7874 103.673C6.39832 92.2835 0 76.8366 0 60.73C0 44.6234 6.39832 29.1765 17.7874 17.7874C29.1765 6.39832 44.6234 0 60.73 0V0Z" fill="#31006F"/>
<path d="M94.2455 60.73L44.23 31.7032L44.23 89.7569L94.2455 60.73ZM97.2378 60.73C97.2378 61.0661 97.0717 61.4022 96.7397 61.5949L43.7319 92.3584C43.0653 92.7453 42.23 92.2643 42.23 91.4935L42.23 29.9666C42.23 29.1958 43.0653 28.7148 43.7319 29.1017L96.7397 59.8651C97.0717 60.0578 97.2378 60.3939 97.2378 60.73Z" fill="white"/>
</svg>
