<svg width="224" height="227" viewBox="0 0 224 227" fill="none" xmlns="http://www.w3.org/2000/svg">
<path d="M56.7077 185.669C58.6264 178.393 16.3054 94.4293 82.0603 117.366C147.815 140.302 198.741 125.325 195.82 80.3512C192.898 35.3773 119.774 36.4301 53.9708 34.5931" stroke="#31006F" stroke-width="2.40028" stroke-linecap="round"/>
<path fill-rule="evenodd" clip-rule="evenodd" d="M69.7189 188.688L39.8311 189.299C39.6615 189.303 39.4958 189.35 39.3494 189.436C39.2031 189.521 39.0809 189.643 38.9945 189.789C38.908 189.935 38.86 190.1 38.8551 190.27C38.8501 190.439 38.8884 190.607 38.9662 190.758L54.7621 221.476C54.8474 221.642 54.9779 221.78 55.1385 221.875C55.2991 221.97 55.4833 222.017 55.6698 222.012C55.8562 222.007 56.0373 221.948 56.1921 221.844C56.3469 221.74 56.4691 221.594 56.5445 221.424L70.6357 190.092C70.7054 189.939 70.7354 189.772 70.7229 189.605C70.7105 189.438 70.6559 189.277 70.5644 189.137C70.4728 188.997 70.3473 188.882 70.1994 188.804C70.0516 188.725 69.8863 188.685 69.7189 188.688Z" fill="#FFCF2D"/>
<path fill-rule="evenodd" clip-rule="evenodd" d="M56.2044 224.183L72.1031 189.713C72.1658 189.579 72.1938 189.431 72.1844 189.283C72.175 189.135 72.1286 188.992 72.0495 188.867C71.9703 188.742 71.8609 188.638 71.7314 188.566C71.6018 188.494 71.4563 188.456 71.3081 188.455L59.7923 188.333L60.9208 190.128L69.9041 190.224L55.3746 221.729L39.8946 189.937L50.2091 190.036L54.3539 210.025C54.401 210.22 54.5122 210.394 54.6698 210.519C54.8274 210.644 55.0223 210.713 55.2235 210.714C55.4247 210.715 55.6204 210.649 55.7796 210.526C55.9387 210.403 56.0521 210.23 56.1016 210.035L60.9217 190.128L59.7932 188.333L51.6737 188.265L50.2565 181.434L56.0542 186.398C56.2354 186.55 56.4696 186.626 56.7059 186.607C56.9423 186.588 57.1616 186.477 57.3164 186.297C57.3938 186.209 57.4529 186.107 57.4903 185.995C57.5278 185.884 57.5429 185.767 57.5347 185.65C57.5265 185.533 57.4953 185.419 57.4428 185.314C57.3902 185.209 57.3174 185.116 57.2286 185.039L49.4331 178.363C49.2903 178.241 49.113 178.167 48.926 178.151C48.739 178.135 48.5517 178.178 48.3902 178.273C48.2287 178.369 48.1012 178.513 48.0254 178.685C47.9497 178.856 47.9295 179.047 47.9677 179.231L49.8372 188.247L38.471 188.138C38.3182 188.136 38.1674 188.174 38.033 188.246C37.8985 188.319 37.7847 188.425 37.7024 188.553C37.6201 188.682 37.5719 188.83 37.5624 188.982C37.5529 189.135 37.5824 189.287 37.6482 189.425L54.5851 224.214C54.6618 224.365 54.7794 224.491 54.9243 224.578C55.0692 224.665 55.2357 224.709 55.4046 224.706C55.5736 224.703 55.7382 224.652 55.8796 224.559C56.0211 224.467 56.1336 224.336 56.2044 224.183ZM59.0829 190.121L55.301 205.752L52.0467 190.058L59.0829 190.121Z" fill="#31006F"/>
</svg>
