<svg width="94" height="94" viewBox="0 0 94 94" fill="none" xmlns="http://www.w3.org/2000/svg">
<path d="M46.9999 94C72.9573 94 93.9999 72.9574 93.9999 47C93.9999 21.0426 72.9573 0 46.9999 0C21.0425 0 -0.00012207 21.0426 -0.00012207 47C-0.00012207 72.9574 21.0425 94 46.9999 94Z" fill="#3A9EFD"/>
<path d="M25.1 72.654C24.908 72.6551 24.7178 72.6159 24.5419 72.539C24.3765 72.4694 24.2267 72.3674 24.1012 72.2392C23.9757 72.1109 23.8769 71.9589 23.8109 71.792C23.7421 71.6224 23.7076 71.4407 23.7098 71.2577C23.7121 71.0747 23.7509 70.8939 23.8239 70.726L27.5179 62.126C25.7442 59.9079 24.3579 57.406 23.4178 54.726C22.4783 52.0507 21.9989 49.2355 21.9999 46.4C22.0062 39.6655 24.6844 33.2086 29.4464 28.4465C34.2085 23.6845 40.6652 21.0064 47.3998 21H47.4838C50.864 20.9975 54.21 21.6778 57.3209 23C60.3232 24.2733 63.0497 26.1174 65.349 28.43C67.6559 30.7379 69.4925 33.4718 70.757 36.48C72.0698 39.5969 72.7395 42.9469 72.726 46.329C72.7196 53.0636 70.0415 59.5205 65.2794 64.2825C60.5174 69.0445 54.0604 71.7227 47.3258 71.729H47.2118C44.3715 71.7288 41.5533 71.2324 38.8839 70.262L25.3348 72.643C25.2569 72.6528 25.1785 72.6564 25.1 72.654ZM33.0548 50.524C32.6298 50.5238 32.2095 50.6127 31.8209 50.785C31.0795 51.1141 30.4986 51.7237 30.2057 52.4801C29.9127 53.2366 29.9315 54.0784 30.2579 54.821C31.7547 58.2098 34.2037 61.0907 37.3073 63.1135C40.4109 65.1363 44.0353 66.2138 47.7399 66.215C51.435 66.2125 55.0503 65.1398 58.1488 63.1264C61.2473 61.1131 63.6963 58.2454 65.1998 54.87C65.3644 54.5033 65.4548 54.1076 65.4655 53.7057C65.4761 53.3039 65.4068 52.9039 65.2618 52.529C65.1191 52.153 64.9031 51.8091 64.6263 51.5173C64.3496 51.2255 64.0177 50.9915 63.6498 50.829C63.2588 50.654 62.8352 50.5637 62.4069 50.564C61.8144 50.5636 61.2346 50.7351 60.7377 51.0576C60.2407 51.3801 59.8478 51.8398 59.6068 52.381C58.585 54.6759 56.9202 56.6256 54.8136 57.9942C52.707 59.3629 50.2491 60.0919 47.7369 60.093C45.2187 60.0917 42.7548 59.3589 40.6451 57.9838C38.5354 56.6087 36.8707 54.6505 35.8529 52.347C35.6133 51.8053 35.2218 51.3446 34.7257 51.0209C34.2296 50.6972 33.6504 50.5242 33.058 50.523L33.0548 50.524Z" fill="white"/>
</svg>
